<?xml version="1.0" encoding="UTF-8"?>
<svg id="Layer_2" data-name="Layer 2" xmlns="http://www.w3.org/2000/svg" viewBox="0 0 1203.6 221.97">
  <defs>
    <style>
      .cls-1 {
        fill: #fff;
      }
    </style>
  </defs>
  <g id="Layer_1-2" data-name="Layer 1">
    <g>
      <path class="cls-1" d="m7.13,156.52c-.05,7.15-.62,14.3-.25,21.46.09,1.83.07,3.66.08,5.49,0,.38.11.86-.51,1.03-.66-.34-.35-.99-.38-1.49-.06-1.32.08-2.66-.7-3.87-.43-.66-.25-1.46-.26-2.2-.04-4-.06-7.99-.09-11.99,0-.99.09-1.99-.66-2.83-.48-.53-.34-1.26-.34-1.92-.01-1.75-.01-3.5,0-5.25,0-.92.04-1.83-.61-2.6-.2-.24-.38-.62-.35-.91.39-3.58-1.63-6.9-1.08-10.51.18-1.2.2-2.46-.61-3.6-.44-.61-.26-1.45-.26-2.2-.02-2.66-.02-5.33-.05-7.99-.01-1.4.07-2.8-.75-4.1-.44-.7-.28-1.62-.28-2.45,0-9.33,0-18.66,0-27.98,0-.92-.06-1.83.6-2.61.46-.55.41-1.25.42-1.91.01-2,0-4,.02-5.99.02-1.81-.33-3.65.81-5.32.28-.41.14-1.13.14-1.71.01-2.17-.03-4.33.02-6.5.03-1.29-.35-2.66.8-3.76.23-.22.14-.79.18-1.2.13-1.41-.48-2.98.93-4.12.13-.11.1-.49.06-.73-.44-2.32.73-4.33,1.22-6.47.05-.24.18-.46.3-.68.18-.31.46-.47.82-.45.56.03.65.43.65.86.01,1.33,0,2.67.02,4,.02,1.5.08,2.99.12,4.49,0,.17-.01.35-.02.52-.19,1.32-.58,2.94.05,3.92,1.49,2.29-.02,5.18,1.8,7.28-.09,2.98,1.62,5.73,1.08,8.76-.05.28.21.4.47.42.78-.29.29-1.38.94-1.77.82.53.34,1.32.63,1.88-.04.28.07.48.36.45.25-.03.43-.2.36-.5.33-.42-.07-1.18.63-1.42.97.32.13,1.59,1.02,1.97q.84-1.32,1.22-1.39c1.68-.35,2.03-.72,2.31-2.36.09-.56-.24-1.3.55-1.61.74.65.09,1.69.71,2.22.91.02.53-1,1.23-1.14.57.66.93,1.68,1.93,1.77,1.67.16,1.59,1.36,1.67,2.52,0,.33,0,.67,0,1-.36,1.02.3,1.72.77,2.5.42.7,1.12,1.31,1.11,2.18-.02,2.8,1.61,5.38,1.05,8.26-.12.62.07,1.17.89,1.14.89-.02,1.09.51,1.1,1.28,0,.7-.13,1.44.21,2.22,2.19-1.06,1.55-4.03,3.59-5.06.42.95-.08,1.91.41,2.7.77.13.7-.95,1.58-.84.14.98.64,1.89,1.23,2.75.84,1.24,1.03,1.22,1.86-.05.2-.31.09-.85.72-.91.64.3,0,1.57,1.02,1.6.71-.35.04-1.66,1.22-1.6.33.74-.17,1.65.44,2.32q1.65-.73,1.71.77c.03.74.08,1.49.12,2.23-.04.27.07.44.34.41.23-.03.4-.18.34-.46.43-.68-.19-2,.73-2.17,2.05-.39,1.29-1.9,1.51-3.04.19.05.39.1.58.16.04.39-.14.88.35,1.1,1.13.5.81-1.13,1.51-1.26.96,1.22,1.2,2.63,1.93,3.84.99-.56.08-2.09,1.41-2.22,1.09-.11,2.09-.73,3.22.36,1.06,1.04,3.34.74,3.76-.29.36-.9.21-2.01,1.78-1.54.43.13.4-.6.41-.99.02-1.5.01-3,.04-4.5,0-.46.22-.79.75-.77.5.01,1.03,0,1.15.66.04.24.03.5.06.74q.27,1.88,2.3,2.06c.25.02.49.08.76.88,0,1.39,0,3.3,0,5.21,0,.33.29.33.51.4.75-.17.11-1.36.92-1.42.75.21.12,1.51,1.31,1.28.46-1.33-.35-2.97.37-4.07.97-1.49.75-2.98.82-4.51.03-.74-.02-1.48.34-2.19,1.46-2.87,2.03-5.9,1.56-9.1,0-.36,0-.72.01-1.08.03-1.66.06-3.32.09-4.98.01-.66-.16-1.42.3-1.93.9-1,.67-2.17.7-3.32.03-1.33-.4-2.9.16-3.94,1.21-2.24.75-4.48.74-6.75.08-.17.16-.34.24-.51,1.81-.12,1.83-.12,1.86-1.69.03-1.41-.04-2.83.02-4.24.04-.94-.26-1.93.75-2.73.55-.44.21-1.43.23-2.17.05-1.84-.06-3.7.37-5.53,1.03,1.93.53,3.97.61,5.95.09,2.08.02,4.16.02,6.24,0,2.08,0,4.16,0,6.24,0,2.07,0,4.15,0,6.39,1.6-.5.55-2.05,1.4-2.69.13.03.41.07.41.09-.29,3.96,1.74,7.68,1.19,11.67-.13.97.28,1.77.86,2.52.6.79,1.24,1.58,1.28,2.82.69-.26,1.08-1.18,1.69-.85,1.62.87,2.1-.45,2.63-1.36,1.51-2.58,2.71-5.25,2.57-8.41-.17-3.9-.09-7.82-.11-11.73.03-.06.1-.12.1-.18-.01-.13-.06-.25-.1-.38.05-5.78.1-11.56.15-17.59,1.25.63.91,1.48.91,2.12.03,6.5.02,13,.03,19.49,0,.83.06,1.66.09,2.49-.03.24.06.46.29.48.31.02.55-.13.49-.52.07-4.62.14-9.23.21-13.85.2-.01.41-.03.61-.04.72,2.54-.04,5.3.47,7.97,1.01-.4.79-1.06.8-1.57.03-1.66-.47-3.53.13-4.94,1.01-2.42.78-4.83.92-7.26.03-.64.47-1.03.79-1.51.64-.97.88-2.11,1.28-3.18,1.04-2.77.93-5.62.95-8.53,1.25.25.94,1.05.94,1.62.03,3.99-.16,7.99.08,11.97.14,2.27.57,4.63,2.08,6.54.59.75.94,1.56.85,2.53,0,.08.01.17,0,.25-.46,2.76.22,5.47,1.17,7.9.83,2.14.73,4.18.83,6.3.03.74-.11,1.57,1.01,1.63.06.41.13.83.19,1.24-.04,1.83-.04,3.66-.15,5.48-.06,1,.32,1.77.86,2.51.33.45.59,1.13,1.31.89.51-.17.7-.76.68-1.23-.08-1.85,1.41-3.19,1.32-5.18,1.25.85.39,2.09,1.15,2.98,1.62-2.03,2.9.1,4.37.55.56-1.34-.1-2.71.61-4.07,1.12.87.16,2.26,1.22,3.1.91-2.08.03-4.27.6-6.27,1.78.36,1.79.36,1.82-1.28.02-1.75,0-3.49.01-5.24,0-.58-.13-1.37.19-1.69,1.13-1.13.81-2.41.68-3.7l-.05-.15c.58-3.05,1.61-6.03,1.26-9.21-.08-.73-.21-1.66.14-2.2,1.11-1.7.67-3.52.78-5.31.05-.75-.17-1.57.48-2.47.72.92.5,1.76.51,2.53.06,5.48.09,10.95.13,16.43,0,.17-.01.35-.02.52-.18,2.75-.14,5.49-.05,8.18,1.08.07.85-1.31,1.83-.93.07,1.23-.25,2.67.28,3.65,1.09,2,.72,4.03.83,6.07.06,1.17-.13,2.37.14,3.53,1.09-.2.8-1.7,1.32-1.42,1.66.88,1.45-.94,2.35-1.53.39,1.09-.3,2.86,1.72,2.62.45-.05.44.59.49,1,.06.59-.16,1.25.28,1.81.28-.19.51-.26.52-.35.14-1.36.46-2.49,2.25-2.13.58.12.84-.32,1.07-.82.42-.93,1.31-1.48,1.97-2.22.48-.54,1.47-.12,1.75-.78.78-1.87,2.51-3.36,2.15-5.69-.16-1.05-.03-2.16-.03-3.24,0-.99.23-1.85.67-2.8.7-1.51,1.8-3.05,1.21-4.92,0-.36.02-.72.02-1.08.03-2.65.14-5.31.06-7.96-.07-2.24,1.39-4.15,1.24-6.43-.03-.49.66-1.57,1.79-1.92,0,1.35,0,2.5,0,3.66.04,4.39.08,8.79.12,13.18,0,.17-.01.35-.02.52-.04.91-.07,1.83-.11,2.74-.03.7.07,1.37.7,1.77,1.36.85,1.32,2.15,1.31,3.52,0,3.01-.34,6.05,1,8.94.55,1.19,1.35,1.92,2.58,1.95,1.3.02,1.39-.9,1.58-1.81.04-.22.23-.45.6-.31.62.95-.2,2.23.78,3.52.95-1.93-.08-4.01.88-5.72.89.73.18,1.8.9,2.37.77.08.66-1.13,1.29-.97,1.56.41,1.38-.6,1.38-1.51,0-1.08-.03-2.17.02-3.25.02-.43-.19-1.08.59-1.04.35.23.34.58.39.9.16.94-.53,2.58,1.25,2.36,1.4-.18.55-1.65.73-2.53.19-.9-.19-1.9.53-3.1,1.02,1.94-.07,3.93.85,5.5,1.05-.41.26-1.72,1.24-2.03.51.35.37.8.37,1.17.02,3.33.02,6.66.03,9.99,0,.86-.3,2.05,1.34,1.42.37-.14.65.16.61.54-.21,2.24,1.48,4.11,1.11,6.44-.16,1.04.22,2.49,1.25,3.03,1.35.72,1.73,1.81,1.83,3.01.92.4.88-1.13,1.75-.58.08,1,.15,2,.26,3.41,1.2-2.8,3.88-1.77,5.46-3,.13-.1.31.3.37.53.1.41.19.83.78.6.31-.36.24-.79.21-1.18-.16-1.8.08-3.45,1.38-4.84.74-.79.63-1.84.64-2.85,0-1.6.06-3.2.09-5.05.9.44.91.93.9,1.4-.01.63.14,1.23.7,1.5,1.44.69,1.29,1.93,1.33,3.19.03.96-.35,2.04.47,3.11.94-1.17.09-2.59,1.14-3.8.6,2.05.15,3.88.47,5.64-.03.23.04.47.26.49.31.02.52-.18.51-.53.06-.72.11-1.43.17-2.15.2,0,.39.02.59.03.72,1.31,1.64,2.54,1.51,4.16.28.76.51.48.72-.04.41-1.04-.18-2.32.69-3.59.79,1.54.23,2.9.58,4.14.04.13.05.34.13.38.26.11.38-.07.43-.31.43-.49.28-1.1.31-1.67.02-.5.05-1,.4-1.41.28-.32.61-.59,1.06-.52.55.09.48.56.55.96.1.65-.27,1.44.32,1.93,1.02-.38.39-1.62,1.29-2.04.75,1.39,0,2.89.83,4.42,1.34-2.13-.6-5.12,2.11-6.51.94,1.09-.06,2.45.81,3.37.41-.11.63-.38.6-.73-.11-1.26.17-2.26,1.47-2.81.62-.26.58-.95.58-1.54,0-1.25,0-2.5,0-3.75,0-.6.03-1.17.89-1.18.92-.01,1.12.51,1.1,1.27-.01.83-.03,1.67.02,2.5.02.41-.22,1.03.74,1.1.59-2.35-.06-4.82.4-7.36.84.45.67,1.55,1.53,1.69.77-.76-.06-1.97,1-2.83.65,1.67-.06,3.45.55,4.99,1.28-.41.3-1.9,1.76-2.31,0,1.14-.06,2.18.02,3.2.08,1.04-.39,2.2.49,3.23.84-.91.24-1.93.62-2.74.04-.09.25-.11.35-.16.84.29.12,1.44,1.21,1.86.19-2.79,2.7-4.62,2.44-7.93,1.37,1.88.35,3.87,1.39,5.7,1.05-2.32-.16-4.62.93-6.61.52.33.52.66.52.99,0,1.83,0,3.66.03,5.49,0,.52-.24,1.25.69,1.31.82.06,1.22-.35,1.29-1.15.04-.43-.17-.98.42-1.2.19.11.35.17.46.27.53.47.91,1.42,1.76,1.04.71-.32.27-1.2.35-1.82.15-1.14-.25-2.36.45-3.79.91,1.38.33,2.6.65,3.67.05.14.05.37.14.41.28.12.39-.09.45-.34.4-.47.31-1.04.32-1.59.16-.14.32-.28.48-.42,1.29,1.15,1.58,2.61,1.53,4.28-.05,1.99-.17,4.01.41,6.02.9-3.05-.09-6.46,2.15-9.26.95,3.41,2.14,6.79,4.08,10.11.61-1.08.05-2.21.74-3.41.6,1.43,1.07,2.47,1.47,3.54.36.98-.19,2.18.71,3.08.55-1.54.39-3.09.4-4.62,0-1.72.68-3.07,2.16-3.88.58-.32.88-.96,1.52-1.16.17.71.86,1.45,1.85,1.94.34.17.44.45.47.79.07.68-.14,1.41.45,2.54.68-2.11,1.39-3.72,3.47-4.05.07.87.13,1.7.19,2.52-.04.27.06.48.36.45.25-.03.43-.19.4-.49.06-1.52.13-3.04.19-4.57.18.02.37.04.55.06.1.54-.25,1.19.33,1.6,1.01.71,1.19,1.74,1.05,2.83-.31,2.35,1.36,3.58,2.88,5.6.08-1.42.13-2.27.18-3.13.18-.06.35-.11.53-.17.28,2.16,1.98,3.17,3.49,4.33.56.53.59.53.84-.05.03-.25.06-.49.09-.74.07-.55-.18-1.27.42-1.59.7-.37,1.25.06,1.69.64.15.2.37.33.65.25.47-2.16.93-2.34,3.11-1.87,1.4.31,2.43.77,2.4,2.86,1.29-1.72.18-3.5,1.16-4.79,1,.65.2,1.72.88,2.34.66-.22,1.33-1.04,1.85.37.41,1.09.98,2.08.85,3.3-.07.7-.01,1.41-.01,2.25,2.43-1.41,3.66-3.13,3-5.84,1.17,1.75,1.52,1.76,2.82.3.3-.34.2-1.05,1.28-1.02v5.08c.04.13.05.34.14.38.26.12.39-.07.47-.3.82-1.59-.25-3.49.68-5.13.97.53.36,1.44.75,2.04-.06.2,0,.38.2.39.26.01.48-.1.48-.43.34-1.04.1-2.12.18-3.18.05-.65-.13-1.5.21-1.91.96-1.16.76-2.44.79-3.73.01-.41-.12-.95.09-1.21,1.44-1.82.82-3.88.81-5.88,0-.36,0-.72.01-1.08.03-.57.03-1.15.09-1.72.31-3.03-.82-6.21.96-9.08.11-.18.03-.49.03-.73-.03-3.13-.06-6.26-.09-9.38.05-.35.11-.7.16-1.04.75-.51,1.74-.91,1.84-1.9.28-2.82,1.6-5.46,1.2-8.4-.21-1.55-.06-3.16-.05-4.74,0-.49-.1-1.2.17-1.43,1.01-.85.67-1.95.79-2.98.04-.34-.08-.86.63-.85.46.55.29,1.23.29,1.86.02,5.49.02,10.97.05,16.46,0,.82-.17,1.67.21,2.46.12.39.41.53.78.55,0,2.07.03,4.15-.01,6.22-.02.96.11,1.8.95,2.41.9.64,1.13,1.55,1.08,2.62-.04.91.06,1.82.09,2.73-.04.29.09.48.38.45.26-.02.45-.18.4-.49.36-.92-.2-2.04.69-3.24.79,2.13.15,4.01.51,5.79.05.14.06.36.15.4.28.11.4-.09.44-.34.47-.57.25-1.28.4-1.92.23-.93.62-1.99,1.57-2.02,1.09-.04,1.35-.9,1.81-1.37.52.18.5.44.51.68.04,1.12-.26,2.41,1.57,2.43.46,0,.43.62.46,1.03.04.52-.18,1.11.5,1.78.71-1.75,1.56-3.21,1.5-5.02-.06-1.91-.02-3.83.01-5.75,0-.43-.16-.99.67-1.26.74,1.52-.14,3.33.82,5.32.84-2.9,1.85-5.18,1.52-7.79-.11-.85-.42-1.92.36-2.6.7-.62.55-1.33.6-2.05.05-.66-.19-1.53.15-1.95,1.31-1.64.72-3.5.85-5.27.1-1.24-.37-2.61.3-3.69.73-1.17.7-2.35.71-3.59,0-1.75-.01-3.5.02-5.25,0-.41-.2-1.07.69-1.03.41.57.28,1.24.28,1.88,0,2.42,0,4.83,0,7.25,0,.66-.17,1.4.22,1.96.94,1.35.77,2.85.78,4.34.01,2.25-.02,4.5.03,6.75.01.48-.36,1.19.46,1.44.81-.77.22-2.05.95-3.07.75.92.54,1.77.54,2.56.01,5.33,0,10.66.02,15.99,0,.58-.23,1.27.6,1.9.97-2.12-.34-4.52,1.17-6.32.22,3,.94,5.75,2.66,8.2.12.09.25.27.35.25.19-.04.21-.22.1-.39.31-.91-.24-2.05.59-3,.93,1.16.08,2.47,1.09,3.82.89-2.65-.03-5.24.77-7.93,1.16,1.42.11,3.02,1.33,4.48.54-1.63.47-3.04.89-4.33.71-2.21,1.75-4.41,1.47-6.92-.21-1.93-.04-3.89-.04-6.01,2,1.44,2.65,1.21,2.96-.72.12-.79-.27-1.76.85-2.55.38,2.56.13,4.86.18,7.15.04,2.25-.04,4.5.02,6.75.07,2.24-.29,4.52.29,6.98.98-.74.65-1.54.67-2.21.07-1.58.05-3.16.08-4.74.01-.53.23-1.06.78-1.12.73-.08,1.05.53,1.07,1.12.07,2.08.03,4.16.1,6.24.02.59-.32,1.31.35,1.74.86-.32.38-1.47,1.48-1.84.09,1.88.17,3.67.26,5.48,1.97-1.3,2.03-3.13,1.93-5.06-.07-1.33-.04-2.67,0-4,.01-.41-.21-1.04.75-1.14.6,1.52-.18,3.32.6,5.12,1.13-1.2.13-2.76,1.29-3.93.49,1.68.3,3.09.31,4.47,0,.98.15,1.83,1.11,2.31.88.44,1.09,1.13.96,2.07-.11.74-.02,1.5-.06,2.25-.06,1.31.46,2.19,1.73,2.55.52-.61-.01-1.54.74-2,1.02.65.05,1.88.95,2.49.94-.55.56-1.48.56-2.23.04-5.16.01-10.33.04-15.49,0-.57-.23-1.29.47-1.64.55.35.5.79.5,1.18.01,1.67.18,3.35-.03,4.99-.29,2.19,1.15,3.95,1.24,6.03.02.4.64.73,1.17.81.22.3.43.59.65.89-.1,1.09.89,1.69,1.21,2.64.43,1.27,2.26,1.09,2.86-.14.55-1.12.94-2.26.91-3.57-.07-3.16-.02-6.33,0-9.49,0-.66-.18-1.55.17-1.94,1.15-1.32.73-2.82.83-4.27.07-.89-.3-1.89.43-2.63.77-.78.58-1.66.46-2.57,0-.36.01-.72.02-1.08l.16-11.24c.75,1.02,1.87,1.62,1.95,2.9.07,1.11-.4,2.35.42,3.46.67-.5.54-1.03.55-1.5.03-2.75.04-5.49.06-8.24,0-.58-.2-1.4.1-1.7,1.32-1.34.69-2.95.85-4.44.07-.67-.14-1.42.5-2.22.72,1.02.49,1.95.48,2.8-.04,6.9-.13,13.81.14,20.71,0,.17-.01.35-.02.52-.05,1.13-.61,2.46.38,3.3,1.22,1.03,1.67,2.19,1.51,3.71-.04.41.02.82.34,1.15.73.73.64,1.66.65,2.58,0,1.08,0,2.16,0,3.24,0,.79.04,1.56,1.12,1.52,1-.04.89-.82.86-1.46-.09-1.98-.04-3.92,1.43-5.64.88.77,1.53,1.71,2.2,2.64.72,1,.02,2.35.7,3.42.86-.5.65-1.14.67-1.68.03-1.16,0-2.33.02-3.49.01-.47-.09-1.18.58-1.15,1.17.05,1.4-.86,1.65-1.59.75.15.74.9,1.31.95.08.1.18.29.23.28.17-.04.19-.19.09-.34.07-1.24.15-2.47.22-3.71,2.3.34,2.86-.12,2.89-2.35.02-1.41.03-2.82,0-4.24-.02-1.03.11-2.07.79-2.82,1.23-1.37,1.28-2.95,1.24-4.63-.03-1.31-.46-2.8.27-3.91.73-1.1.69-2.16.7-3.3.02-2.08,0-4.15,0-6.23,0-.53-.08-1.11.48-1.63.76.68.49,1.47.5,2.14.03,3.49,0,6.98.02,10.47,0,.74-.23,1.58.24,2.19.9,1.18.73,2.51.75,3.83.04,2.07.08,4.15.11,6.22.05.93.65,1.33,1.46,1.53.72.78.41,1.74.41,2.62.03,4.47.01,8.94.01,13.61.95-.45,1.76-1,2.31.25.2.45.77.62,1.3.39.49-.21.37-.7.38-1.08.03-1.16-.03-2.33.03-3.49.06-1.23.73-1.74,1.76-1.18,1.67.9,3.84,1.53,3.26,4.23-.05.25.11.45.59.69.8-1.38-.03-3.05.6-4.44.46.19.83.35,1.19.5.26.27.48.39.44-.16.04-1.49.08-2.98.12-4.47.02-.66-.14-1.39.38-1.9.7-.67.63-1.49.61-2.31-.01-.97-.06-1.9,1.42-1.39.36.12.56-.25.55-.62-.02-.74-.05-1.49-.08-2.23,0-.36.01-.72.02-1.08.05-1.68.1-3.36.15-5.04.18.02.35.04.53.06.13.52-.31,1.22.47,1.54.6.57.63.57.86-.05.05-4.41.11-8.82.17-13.65,1.43,1.08.42,2.45,1.37,3.23.91-.56.58-1.48.59-2.23.04-3.58.02-7.16,0-10.74,0-1.16.17-2.15,1.59-2.26.55.62.38,1.33.32,1.94-.44,4.66.06,9.32.05,13.97,0,5.33-.01,10.66.02,15.99,0,.47-.37,1.18.44,1.39.66-.27.5-.84.6-1.31.1-.45-.02-1.07,1.01-1.06v12.52c1.53-1.27.42-3.07,1.18-4.51.89.3.41,1.52,1.48,1.72.57-1.19-.02-2.56.44-3.79q1.5,1.65,2.94-.14c.2-.25.32-.61.88-.38,0,1.44-.01,2.92,0,4.4.02,1.4.06,2.8.1,4.21,1.56-2.11.26-4.62,1.41-7.05.89,1.48,0,3.03,1.16,4.63.74-2.63.07-5,.82-7.19.88,2.73.2,5.59.85,8.33,1.11-1.54.45-3.29.65-4.92.22-1.75-.33-3.57.59-5.28.53,1.57.28,3.21.43,4.81.15,1.6-.5,3.32.61,5.2.92-2.48-.23-4.87,1.04-6.93.46,1.41.33,2.85.37,4.28.04,1.4.08,2.81.12,4.32.85-.34.76-.8.76-1.18,0-2.58-.05-5.16-.03-7.74.01-1.49-.77-3.16.97-4.31.21-.14.14-.79.12-1.2-.18-2.95,1.69-5.65,1.08-8.67-.04-.19.12-.54.3-.65.93-.57.62-1.47.63-2.25.03-3.91.05-7.83,0-11.74-.02-1.5.42-2.67,2.01-3.84,0,1.33-.01,2.29,0,3.25.01.66-.18,1.4.27,1.94.84,1.01.72,2.17.72,3.33,0,5.16,0,10.33,0,15.49,0,.66-.17,1.44.11,1.97,1.38,2.67,2.15,5.45,1.9,8.48-.03.42.04.86.4,1.13.63.48.6,1.15.58,1.82-.03.97.04,1.71,1.32,1.88.78.1.61,1.04.69,1.69.11.86-.34,1.88.46,2.71.25-.29.45-.41.44-.52-.13-2.39.27-4.61,1.8-6.55.44-.56.25-1.28.28-1.94.03-.61-.11-1.28.38-1.91.8.53.47,1.32.75,1.86-.03.27.08.46.36.43.25-.02.43-.17.37-.47.16-1.82.44-3.61,1.91-5.02.22,2.44.22,4.85.22,7.27,0,1.07-.09,2.16.97,2.87.08.44.41.75.79.68.3-.05.3-.47.17-.78.26-1.28-.24-2.69.51-4.31.94,1.53-.1,3.76,2.2,3.97.47-.33.37-.79.34-1.16-.35-4.01,1.22-7.75,1.6-11.65.04-.44.22-.76.45-1.12.83-1.31,1.01-2.75.98-4.29-.07-3.58-.03-7.16,0-10.75,0-.6-.27-1.52.74-1.53,1.24-.02,1.27-.74,1.25-1.64-.03-1.5-.02-3,0-4.5,0-.43-.14-1.01.66-1.17.59.71.31,1.56.31,2.34.02,5.58.02,11.16,0,16.75,0,2.35.28,4.53,2.67,5.77.55.28.33.87.33,1.35.01,1.83,0,3.67,0,5.5,0,.75-.25,1.69.1,2.21,1.03,1.5.82,3.16,1,4.77.04.13.05.34.13.38.26.11.38-.08.44-.31.55-.65.25-1.43.31-2.16.1-1.18.55-2,1.85-2.19q.18,1.94,1.74,3.45c.33.32.4.71.41,1.13.01.6.19.92.88.73.71-.19.97.48,1.41.83,1.17.92,1.42.83,1.69-.63.06-.32.03-.66.05-1,.15-.07.3-.13.46-.2.81.58,1.49.89,1.53-.59,0-.42-.25-1.01.41-1.21.47.31.48.84.7,1.27.01.37.21.56.56.48.24-.05.31-.27.24-.51.03-1.16.08-2.32.08-3.48,0-1.28.6-2.68,1.63-2.78,1.63-.16,1.35-1.03,1.37-1.98.01-.58-.08-1.23.32-1.68.82-.92.64-2,.65-3.07.01-1.16-.32-2.61.24-3.41.83-1.17.77-2.29.79-3.48.05-3.57.13-7.15.03-10.71-.05-1.7,1.02-2.81,1.61-4.22.23,1.42.24,2.8.23,4.18-.05,5.76-.63,11.55,1.25,17.17,0,.17-.01.35-.02.52-.11,1.31-.37,2.66.16,3.92.94,2.22,1.83,4.4,1.76,6.91-.1,3.79-.03,7.58-.03,11.39.87.1,1.32-1.61,2.11-.24-.05.39-.05.85.46.82.55-.03.4-.49.3-.86.1-.65.13-1.33.33-1.96.21-.68.72-1.26,1.48-.91,1.04.48,1.51-.07,2.04-.77.28-.37.55-.9,1.17-.54.3.86-.2,1.9.52,2.78,1.17-.99-.03-2.57,1.13-3.39.99.73-.13,2.16.99,2.81.97-1.02-.05-2.49.93-3.42.98.62,0,1.89,1.14,2.51.99-1.88-.19-4.11.81-6.08.99.91.14,2.25,1.21,3.16.77-1.97.15-3.88.57-5.75,1.52.79,1.84,1.96,1.81,3.39-.05,2.07-.02,4.15,0,6.22,0,.37-.11.93.51.89.57-.04.45-.57.48-.95.06-.6.12-1.2.17-1.8.93.91.62,2.31,1.8,2.91.04.31.07.63.11.94-.11,2.65-.19,5.29.09,8.36,1.49-1.39.07-3.27,1.95-4.49v7.04c.21,0,.42,0,.63.01.58-1.8-.05-3.78.36-5.57.84-.03.78.93,1.18.88.45-.07,1.24,0,1.28-.75.03-.54.05-1.09.68-1.1.63-.01.65.63.76,1.1.09.38.29.55.82.41.33-.97.12-2.04.2-3.09.05-.63-.2-1.36.56-1.77.1.12.23.17.38.14,0,1.08-.01,2.16.03,3.24.04.99-.22,2.03.36,3.26.86-.95.6-1.81.61-2.58.03-3.65,0-7.3.03-10.96,0-.54-.24-1.25.43-1.52.67-.27,1.36-.14,1.59.68.19.7.5.41.82.17.89-.65,1.15-.24,1.14.66,0,1.61,0,3.22,0,4.63,1.09.61,1.02-1.06,2.05-.27,0,.93,0,2,0,3.07,0,.31.28.35.5.39.84-.11.1-1.59,1.32-1.43.07,1.35.15,2.67.22,3.99-.03.23.05.46.28.48.31.02.54-.14.48-.52.4-3.26-.16-6.57.35-10.17,1.47,1.49.14,3.43,1.55,5.16.4-2.11-.2-4.32,2.23-5.17,0,1.56.04,2.97-.01,4.37-.05,1.45.19,2.75,1.44,3.65.57-.39.56-.98.56-1.57,0-.64.32-.88.94-.8.52.07,1,.17,1.03.83.02.5.02,1,.03,1.5.04,2.25.07,4.49.11,6.74.04.13.05.34.13.38.26.12.39-.07.46-.3.54-.66.26-1.44.28-2.16.05-1.5.01-2.99.05-4.49.01-.56.04-1.18.85-1.23.39.62.18,1.3.22,1.95.04.59.02,1.29.75,1.37.86.1,1.06-.56,1.15-1.29.08-.7-.31-1.61.78-2.12.56,1.84-.15,3.69.49,5.55,1.4-.82,1.76-1.89,1.74-3.22-.04-2.03-.01-4.06-.01-6.1.17-.06.34-.12.5-.17.78.83,1.55,1.65,2.33,2.48-.02.19.06.3.25.35-.05,1.82-.58,3.78.24,5.4.58,1.14.65,2.16.68,3.3.03,1.03,0,2.05,0,3.08,1.27-2.31,3.05-4.28,3.03-6.97,0-.32.05-.68.19-.96.24-.47.7-.72,1.23-.64.52.08.54.55.54.97,0,1.08.02,2.16,0,3.24-.02,1.14.26,2.14,1.43,2.95,1.29-1.4,1.69-3.52,3.45-4.62.32-.2.07-1.26.13-1.92.08-.91-.24-1.9.34-2.82.83.44.64,1.07.65,1.59.02,1.91.05,3.82-.01,5.73-.04,1.23.2,2.3,1.14,3.14.01.43.34.62.66.59.25-.02.3-.35.14-.61.33-1.06-.3-2.35.79-3.55.56,1.7.07,3.18.39,4.58.05.14.05.35.14.39.27.12.39-.08.45-.32.47-.58.21-1.28.32-1.92.17-.92.77-.74,1.29-.4.61.4.66,1.09.71,1.78.03.5-.3,1.19.46,1.42.9-.24.23-1.55,1.28-1.65.62.97-.2,2.24.91,3.61.69-3.05.04-5.82.5-8.63,1.08,1.76,1.93,3.33,1.96,5.33.02,1.37,1.01,1.52,2.07.47.18-.18.38-.31.74-.11.23,1.31-.18,2.78.4,4.57,1.37-2.41-.04-4.86,1.13-6.96.97.9.1,2.09.96,3,2.02-1.52,3.86-3.03,3.6-5.98-.15-1.73,0-3.49.01-5.24.19.01.38.03.57.04,1.55,2,1.43,4.42,1.72,6.84.65-2.07,1.65-3.95,1.86-6.13.23.13.36.16.36.21.1.61.33,1.22,1.04,1.1.67-.11.36-.8.4-1.24.08-.82-.12-1.69.35-2.81.92,1.34.43,2.58.81,3.63,0,.37.19.56.53.49.23-.05.3-.27.22-.51.27-1.54-.34-3.2.56-4.64,1.27-2.04,1.79-4.24,1.58-6.63-.02-.2.01-.48.64-.56.72,2.64-.06,5.43.7,8.1,1.18-3.55.04-7.34,1.08-10.92.88,2.18.18,4.49.63,6.68.06.32.16.5.4.1.31-.19.47-.46.48-.83,1.04-.23.71.81,1.1,1.18.81,1.21.48,2.73,1.47,4.04,1.77,2.35,1.55,2.51,3.19.03.19.11.43.19.58.35.35.36.68.8,1.24.58.62-.25.34-.85.36-1.3.05-.75,0-1.5.06-2.24.04-.51-.29-1.3.61-1.36.78-.06,1.21.49,1.31,1.22.11.74.13,1.49.18,2.23,0,.17,0,.35-.01.52-.13,1.65-.45,3.37.15,4.92.84,2.18,2.19,4.18,1.73,6.78,1.22-.43.99-1.18,1-1.8.03-2.24,0-4.49.03-6.73,0-.41-.22-1.07.76-1.05.45,1.5.24,3.07.18,4.59-.06,1.49.3,2.61,1.74,3.19,1.11.44,1.38,1.26,1.31,2.37-.04.72-.21,1.54.62,2.66.29-2.35.98-4.07,1.73-5.95.36.41.56.67.79.89.72.69.79,1.57.9,2.5.14,1.27,1.66.1,2.15,1.12.34.71.63,1.54,1.42,1.96-.06.18,0,.37.17.36.18-.02.21-.21.1-.37.27-2.93.28-2.94,2.73-1.68.68.35,1.25.59,1.4-.5.03-.22.24-.57.38-.58,2.12-.13,1.52-1.71,1.57-2.92.06-1.49-.37-3.23.24-4.43.93-1.81.7-3.51.66-5.31,0-.36,0-.72.01-1.08.07-1.07-.22-2.38.3-3.15.95-1.39.75-2.8.77-4.25.03-2.4,0-4.79.01-7.19,0-.58-.18-1.36.11-1.69,1.25-1.43.86-3.05.78-4.65,0-.36,0-.71.01-1.07.03-1.33.06-2.66.09-3.99.01-.52.06-1.06.74-1.07,1.19-.01,1.32-.75,1.26-1.67-.1-1.54,1.05-2.56,1.61-3.86.67,3.71.13,7.43.5,11.11,0,.17,0,.35,0,.52-.04,1.33-.14,2.66-.09,3.99.06,1.35-.33,2.76.26,4.02.71.06.95-.93,1.68-.39.18,1.74-.35,3.64.96,5.23.21.26.11.81.07,1.22-.14,1.63.13,2.8,1.78,3.82,3.58,2.21,5.28,1.96,6.27-1.98.03-.13.19-.22.29-.33.81-.1.53,1.28,1.43,1.06.56-.92-.11-2.06.52-3.13.54,1.17,1.71,1.72,1.92,2.93-.04.36.14.54.48.48.22-.04.28-.27.18-.49,0-2.16,0-4.31.04-6.47,0-.56-.23-1.31.29-1.65,1.08-.7.73-1.73.79-2.66.07-1.15-.37-2.48.26-3.42.68-1.01.69-1.98.72-3.04.01-.49-.08-1.17.2-1.44,1.12-1.1.8-2.45.82-3.74.03-2.24,0-4.48.01-6.72,0-.66-.16-1.48.16-1.95,1.2-1.75.72-3.67.84-5.53.04-.57-.21-1.28.69-1.85.53,1.64.19,3.12.29,4.56.07.97-.23,1.99.39,2.91.64.95.61,2.03.62,3.12.02,3.65.07,7.3.11,10.95-.57,1.92.99,1.4,1.88,1.64,0,1.5-.07,3,.02,4.5.09,1.46-.44,3.02.43,4.46,1-.61.18-1.72,1.1-2.37.9,2.53.08,5.19.61,7.61.53.06.73-.1.75-.36.19-2.48,1.09-4.76,1.93-7.06.24-.66,0-1.94,1.43-1.03.36.23.62-.17.64-.5.14-2.37,2.12-4.02,2.3-6.32,1.1.08.46,1.54,1.74,1.56,1.97.03,1.96.2,2.04,2.14.05,1.08-.42,2.41,1.45,2.52.55.03.57.77.53,1.26-.1,1.15.42,2.09.87,3.08.31.67.82,1.31.75,2.09-.11,1.19.31,1.74,1.55,1.54.49-.08.89.2.81.67-.27,1.55.76,2.65,1.29,3.91.84-.08,1.06-1.27,2.04-1.22,1.3,1.52,1.89,3.21,1.75,5.26-.08,1.26-.46,2.68.34,3.96.98-.65.24-1.89,1.09-2.48.81.66.32,1.51.61,2.17-.03.24.06.48.3.5.34.03.56-.15.48-.54.26-.7-.06-1.56.63-2.35.71.81.35,1.68.6,2.39-.02.24.07.46.31.48.33.03.56-.13.48-.52.03-.99,0-1.98.12-2.95.09-.81-.45-2.28.47-2.28,1.11,0,.12,1.55.64,2.26-.02.27.1.43.36.41.24-.02.41-.16.34-.45.5-4.06-.07-8.18.57-12.27.88,1.86.67,3.9,1.42,5.8.75,1.89-.06,4.18.38,6.3.97-.25.77-.92.78-1.46.03-2.58.15-5.17,0-7.74-.17-3.11,1.03-5.81,2.15-8.56.1-.25.27-.39.87-.28,0,.7,0,1.49,0,2.27,0,3.33,0,6.66,0,9.99,0,.66-.2,1.42.24,1.94.97,1.16.71,2.5.76,3.82.05,1.25-.19,2.54.21,3.85,1.1-.45.76-1.22.77-1.81.04-2.58.02-5.16.03-7.74,0-.5.03-1.01.74-1.05.67-.03,1.16.16,1.21.91.04.58,0,1.17.04,1.75.07,1.02-.22,2.09.37,3.23.88-.66.6-1.47.6-2.14.04-3,.07-6,0-8.99-.03-1.41.42-2.39,1.76-2.94.49,2.26,1.55,4.32,1.32,6.73-.17,1.84-.48,3.81.85,5.51.25.32.11.97.12,1.47,0,.5-.17,1.12.2,1.44.97.85.67,1.99.88,3.02-.03.23.04.47.26.49.31.02.53-.17.47-.54.44-2.31,1.38-4.49,1.21-6.96-.21-3.06-.05-6.15-.02-9.23,0-.5-.18-1.15.83-1.52.1,2.37.2,4.56.3,6.75-.03.27.1.44.37.42.24-.02.41-.16.33-.45.5-1.39-.34-3.03.69-4.49.57.56.41,1.08.42,1.55.02,2.33.05,4.67.03,7,0,.98.03,1.84,1.23,2.1.72.16.78.75.79,1.37,0,.52-.14,1.13.39,1.48.8-.29.57-.87.58-1.31.03-1.58,0-3.17.02-4.75.03-2.42.24-2.69,3.1-3.75v7.3c1.13-1.11.88-1.98.88-2.74.02-5.25,0-10.5.03-15.75,0-.64-.29-1.46.61-1.98.81,1.35-.12,2.97.99,4.58.59-2.29.35-4.16.28-6.03,0-.36,0-.72.01-1.08.26-.94-.21-2.05.72-2.97.32,1.29.31,2.67,1.48,3.5,0,.17,0,.35,0,.52-.02,1.26-.56,2.62.68,3.95.32-1.54.26-2.82.11-4.1h-.01c.05-1.33.08-2.65.14-3.98.06-1.23-.26-2.52.52-3.69.76,2.18.13,4.49.7,6.94,1.73-.93,2.83-1.9,2.78-3.86-.04-1.41-.21-2.87.2-4.35,1.01.39.76,1.05.76,1.56.02,2.91,0,5.81.02,8.72,0,.74-.23,1.59.27,2.18.85,1.01.72,2.17.72,3.32.01,3.65,0,7.31.02,10.96,0,.4-.31,1.03.82,1.25-.21-1.88.96-3.19,1.86-4.62.38-.61.28-1.28.29-1.94.02-2.16.03-4.32.05-6.48.18.02.37.05.55.07.22,1.95.29,2.02,2.25,2.37.4-1.02-.17-2.24.77-3.68.8,3.35-.01,6.38.67,9.67.89-1.04.68-1.88.69-2.65.03-2.91.01-5.83.06-8.74,0-.48-.27-1.22.97-1.31v10.65c2.66-1.59,1.76-4.62,3.75-6.3.38,1.53-.17,3.1.53,4.41.61,1.15.66,2.38.83,3.61.29.79.52.51.74-.04.07-2.32.12-4.64.21-6.96.02-.52-.13-1.24,1.03-1.32v12.39c1.14-.48.86-1.24.87-1.83.04-1.91,0-3.82.02-5.73,0-.67-.01-1.38.96-1.41.96-.02,1.03.63,1.03,1.34,0,1.99-.01,3.99.01,5.98,0,.73-.23,1.55.35,2.15.8.83.6,1.85.69,2.82.05.65-.29,1.44.18,1.94,1.01,1.06.74,2.31.77,3.52.02.95,0,1.9,0,3.36,1.12-1.45,1.89-2.43,2.9-3.73.07,1.59.12,2.72.18,3.86.24-.05.42-.03.53-.11.48-.36.52-1.39,1.44-1.07.84.29.94,1.07.95,1.85,0,.91-.03,1.83.02,2.74.02.41-.22.99.57,1.18.51-.53.36-1.21.41-1.83.07-.82-.09-1.78.28-2.44.72-1.27.63-2.53.5-3.85.15.03.24-.03.27-.18.74.02.97-.43.96-1.08-.02-1.13,0-2.26-.07-3.39-.05-.75.27-1.03.96-1.03-.01.17.05.31.2.4-.2,2.83-.21,5.65.04,8.48.27.66.51.54.72-.03.43-1.24-.28-2.7.56-3.95,1.72,3.89,1.66,7.88,1.62,12.07.77-.36.95-.72.92-1.13-.12-1.42.37-2.64,1.23-3.69,1.29-1.59,2.09-3.33,1.95-5.42-.02-.24.16-.29.63.11.67,1.83-.19,4.17.6,6.88,1.13-2.82.12-5.36,1.12-8.17.67,1.51.4,2.57.49,3.57.04.44.13.83.64.91.51.08,1.18.08,1.27-.46.26-1.43,1.44-2.55,1.15-4.21-.24-1.34-.02-2.76,0-4.14.74.82.29,2.05,1.76,2.44.5-2.54-.2-5.16.41-7.59.62,0,.74.3.72.5-.4,2.91.79,5.61,1.06,8.43.03.34.11.86.39.82,1.72-.26,1.54,1.21,2.22,2.24.33-2.4.23-4.87,2.05-6.78.62.98.07,2.13.51,3.1-.01.3.17.46.44.47.29,0,.42-.18.32-.48.02-1.06.07-2.12.06-3.18-.01-.67.19-1.11.91-1.18-.01.17.05.31.19.41-.08,2-.4,4.01.14,5.99,1.11-.13.46-1.44,1.57-1.67.46,2.72-.14,5.43.4,8.19,1.07-.54.71-1.38.76-2.04.08-1.07-.29-2.37.19-3.18,1.31-2.22.69-4.51.74-6.78,0-.18,0-.35,0-.53.16-.44-.08-1.18.51-1.26.7-.09.62.65.6,1.08-.09,1.5-.1,2.94.85,4.25.25.35.16.96.23,1.44-.1.4.1.68.47.67.43-.01.48-.34.35-.7.27-2.54-.16-5.13.27-7.89,1.06,1.71,2.14,3.08,2.05,5.22.98-.86.73-1.56.74-2.17.03-2.65,0-5.31.03-7.96,0-.8-.18-1.64.58-2.31.63-.55.36-1.4.41-2.12.2-2.67-.6-5.45.94-7.99.25-.41-.02-1.13-.04-1.71,0-.36.01-.71.02-1.07.03-3.65.05-7.31.09-10.96,0-.79-.24-1.74,1.16-1.61.84.08.82-.63.83-1.22,0-1.16.03-2.33,0-3.49-.02-.85.08-1.47,1.19-1.32.65.09.79-.43.81-.98.02-.6-.06-1.24.56-1.93.62,1.07.42,1.99.43,2.85.06,6.39.09,12.78.13,19.18,0,.17,0,.35-.01.52-.04.99-.09,1.99-.1,2.98,0,.5.06,1.09.8.84,1.25-.42,1.18.41,1.18,1.18,0,1.33.07,2.66-.01,3.99-.1,1.56.31,2.89,1.14,4.22.82,1.3,1.91,2.5,1.94,4.23.01.91,1.06.8,1.22.38.73-1.89,2.77-3.01,2.82-5.37.04-1.89.67-3.8,2.92-5.27v4.52c1.05.63,1.06-.95,1.9-.4.06,1.16.11,2.34.19,3.91.8-1.49,1.97-2.19,1.91-3.73-.13-3.82-.1-7.64-.13-11.46v-1.08c.07-1.74-.39-3.73.31-5.14.84-1.7.67-3.29.79-4.96.04-.57-.14-1.25.31-1.67.86-.81.69-1.81.69-2.78.01-6.63-.01-13.26.01-19.9.01-2.69-.42-5.45.95-7.99.06-.12-.04-.32-.07-.48.02-.36.03-.71.05-1.07.61-2.63-.59-5.39.67-8.01,1.15-2.4-.28-5.22.9-7.98.71,1.16.47,2.09.47,2.98.02,6.33,0,12.65.02,18.98,0,.73-.32,1.66.27,2.16.95.81.71,1.79.71,2.73.02,5.74.02,11.49,0,17.23,0,2.55,1.58,4.87,1.08,7.49-.02.12.12.34.24.41.95.53.62,1.44.69,2.23.06.6-.15,1.27.55,2.04,1.19-2.49-.25-5.15,1.15-7.85.6,2.4-.38,4.54.6,6.12,1.09,1.76.15,3.82,1.28,5.83.9-1.86-.09-3.69.95-5.47.84,1.54.19,2.92.61,4.14-.02.3.14.46.41.44.26-.02.44-.16.35-.47.1-.82-.04-1.78.35-2.43.96-1.63.75-3.34.77-5.07.02-1.6-.14-3.22.16-5.01,1.09.63.76,1.46.79,2.12.15,3.3-.16,6.61.17,9.91-.02.25.09.41.34.38.22-.02.38-.16.32-.43.53-2.26-.51-4.79.6-6.81,1.16-2.11-.11-4.47,1.19-6.8.7,1.5.06,2.83.58,3.94,1.34,2.86,2,5.83,1.84,8.99-.05.9.07,1.82.12,2.72-.03.28.09.46.37.43.25-.02.42-.18.35-.47.35-.87-.1-1.93.79-3.16.58,1.8.19,3.3.45,4.71-.04.23.03.47.26.48.31.02.53-.16.5-.53.29-5.41.12-10.82.11-16.23,0-1.51.27-2.56,1.87-2.99,1.59-.44,2.23-1.58,2.17-3.2-.05-1.41-.03-2.83,0-4.25.01-.41-.2-1.07.98-1.03,0,1.69,0,3.41,0,5.12,0,1.83,0,3.67,0,5.5,0,1.75,0,3.5,0,5.25.01,1.75.05,3.51.08,5.44,1.41-.59.51-2.02,1.59-2.68.58,2.68.13,5.18.44,7.62,0,.17,0,.34,0,.52-.18,2.04-.14,4.07-.04,6.17.74.02,1.2-.67,1.93-.21,0,.99-.01,2.05,0,3.12.01.83-.26,1.94.16,2.42,1.17,1.32.72,2.79.84,4.22.04.44-.17.98.86,1.41-.18-2.94,1.4-5.33,1.6-8.14.75,2,.05,4.32,1.7,5.99.02.45.27.72.71.61.18-.05.18-.4.05-.62.06-1.25.13-2.5.21-4.2.58,1.06.35,2.17,1.77,2.05.06-4.09.12-8.2.18-12.31.15-.01.3,0,.44.06.11.78-.22,1.69.56,2.3.89.7.93,1.66.9,2.67-.01.51-.17,1.11.36,1.49.89-.31.5-1,.65-1.49.4-1.33.53-2.83,2.04-3.52-.05,1.64-.22,3.28.45,4.88.61-1.63.58-3.28.37-4.94,0-.63-.01-1.26-.02-1.89.26-.34.53-.67.79-1.01.6-.53.33-1.24.34-1.87.03-2.9,0-5.8.03-8.7,0-.61-.27-1.32.38-1.92.27.33.52.63.76.94.01.29.2.45.46.45.29,0,.41-.18.31-.47.02-1.08.05-2.16.07-3.24.02-1.16-.41-2.66.15-3.42,1.18-1.62.69-3.28.86-4.93.05-.44-.1-.99.61-1.26.55.51.36,1.2.37,1.8.02,2.75,0,5.49.01,8.24,0,.66-.19,1.41.28,1.93.83.92.7,1.99.71,3.06,0,1.33.04,2.66,0,3.99-.05,1.2.15,2.25.91,3.26.92,1.22,1.25,2.64,1.13,4.23-.14,1.9-.05,3.83-.01,5.74,0,.42-.22,1.04.73,1.15.68-1.61-.18-3.5.79-5.12.84,3-.36,6.46,2.21,9.35.38-1.11.25-2.01.26-2.88.02-1.33,0-2.66.02-3.99,0-.64.2-1.18.94-1.22.76-.04.95.48,1.01,1.13.07.77-.24,1.63.39,2.35,1.76-.48,1.28-2.38,2.47-3.66.1,2.13.19,3.83.27,5.52-.03.27.09.44.35.41.24-.02.41-.17.35-.46.36-2.64.08-5.29.17-7.93.03-.94-.33-2.06,1.36-1.98.8.04.57-.83.64-1.37.1-.71-.29-1.57.67-2.21.51,1.11.21,2.11.35,3.06.15,1.06,1.18,1.81,1.08,2.97,0,.38.17.61.56.52.24-.06.32-.29.25-.55-.48-3.15,1.52-6,1.13-9.15-.03-.21.1-.55.27-.66.96-.65.65-1.64.67-2.51.03-2.66,0-5.31.03-7.97,0-.59-.28-1.52.72-1.55,1.2-.04,1.22-.72,1.28-1.63.24-3.77-.49-7.62.99-11.28.12-.29.03-.66.04-.99.43-.1.67.21.94.45-.48,6.79.26,13.59.02,20.38-.01.41-.07.95.15,1.21,1.24,1.44.81,3.15.82,4.77,0,2.07-.1,4.13,1.11,5.97,0,.34.01.67.02,1.01-.03,2.24-.07,4.49-.1,6.73,0,.49-.09,1.03.23,1.45.88,1.16.76,2.5.77,3.83.02,1.66.06,3.32.09,4.98.04.13.05.35.14.39.26.12.4-.07.48-.3.45-1.21.28-2.63,1.35-3.62.41-.38.72-.26,1.06.03.04.35.26.53.58.47.23-.04.3-.26.23-.49.23-.94-.16-2.04.41-2.9l.6.05v6.58c1.01.54,1.01-.77,1.7-.41.48.25.11,1.26,1.19,1.12.21-1.99,1.41-3.73,1.34-5.95,2.05,1.3,3.15,2.87,3,5.46,1.11-.97.73-1.84.81-2.59.09-.82-.32-1.87.27-2.42.98-.91.69-1.96.73-2.99.06-1.58-.45-3.42.21-4.68.85-1.62.79-3.09.7-4.7,0-.36.01-.72.02-1.08.03-.41.05-.81.09-1.22.04-.37-.12-.92.45-.93.22,0,.45.43.68.67.02.29.2.45.47.44.28,0,.42-.17.32-.47.03-1.49.05-2.98.08-4.47.02-.74-.12-1.51.2-2.21,1.3-2.86,1.97-5.85,1.88-9-.05-1.57,0-3.15-.01-4.72,0-2.72-.22-5.46,1.05-8.01.31-.11.62-.15.92.03-.53,4.77-.15,17.24.82,18.95.36-4.58-.1-8.79.29-13.03.89.26.78.74.79,1.11.04,1.58.26,3.19.02,4.73-.61,3.92,1.41,7.56,1.06,11.43-.02.23.05.54.2.69.96.94.74,2.14.78,3.29.03,1.08.08,2.15.12,3.23,0,.17,0,.35-.01.52-.41,2.21-.02,4.26,1.18,6.16.4.64.75,1.31.7,2.08-.23,3.25,1.33,5.99,2.52,8.9.66-2,1.92-3.82,1.47-6.02-.48-2.39,1.22-4.37,1.15-6.66,1.38-1.28.77-2.91.79-4.43.06-.16.12-.32.18-.48.41.01.87-.02.9.56.02.58-.03,1.16-.02,1.75.03,1.82.06,3.64.1,5.47,1.25-.87.71-2.03,1.03-2.99.06-.18.16-.25.41-.18.77.32.09,1.46,1.01,1.82,1.04-.5,1.57-1.28,1.49-2.53-.07-.99.02-2,.04-2.99.27.09.54.18.81.27.37,5.22-.13,10.47.6,15.7.83-1.89.25-3.94.7-5.97,1.46.56,1.82,1.53,1.84,2.79.02,1.24-.22,2.53.43,3.73.94-1.34.21-2.96.76-4.44,2.25,2.33,3.14,4.93,2.83,8-.12,1.14-.21,2.37.31,4.03.96-1.52.47-2.7.67-3.76.06-.32.09-.72.57-.6.37.09.38.49.5.79q-.09,1.94,1.86,2.21c.18,2.41-.17,4.86.34,7.81.97-1.4.6-2.48.7-3.46.06-.54-.13-1.43.61-1.38,1.59.1,1.32-1.07,1.52-1.98,1.5,1.54,3.74,2.59,2.94,5.31-.04.12.08.35.2.44.93.75.67,1.8.74,2.77.03.43-.15.98.54,1.19,1.06-1.01-.18-2.73,1.13-3.84.69,1.54-.05,3.08.65,4.63,1.28-1.16.14-2.86,1.39-3.93.95-.81-.34-2.65.86-3.77.61.71.36,1.4.41,2.04.06.66.09,1.32.13,1.98.04.12.05.32.13.35.24.11.36-.07.43-.28.8-1.13-.2-2.68.87-3.99.74,1.01.23,2.05.59,2.91-.02.3.14.46.41.44.26-.02.44-.16.35-.47.35-2.15-.41-4.46,1.05-6.46.22-.31-.03-.96-.06-1.45.02-.36.04-.72.06-1.08.17-.22.44-.31.62-.12.88.93,1.03.62,1.58-.46.89-1.73.82-3.46.83-5.23.02-1.91,0-3.82.02-5.73,0-.61-.09-1.26.66-2.22.72,2.85-.11,5.45.69,8.14,1.12-1.31.14-2.74.96-3.75.71.47.82,1.42,1.69,1.52h-.04c.05.79.1,1.58.15,2.37-.1.79-.07.82.48.58,3.14-.62,3.34-.9,3.41-4.03.04-1.57-.5-3.28.9-4.63.17-.17.08-.64.07-.96-.03-2.14-.06-4.28-.1-6.41,0-.36.01-.71.02-1.07.03-1.57.1-3.13.08-4.7-.02-1.07.49-1.13,1.39-1.08.85.05,1.65-.22,1.63,1.11-.03,1.73.06,3.46.1,5.19,0,.17,0,.35,0,.52.05,1.09.3,2.11.9,3.04.16.41.28.96.87.76.27-.09.16-.54.05-.84.06-.74-.14-1.69.24-2.19,1.16-1.49.78-3.14.82-4.75.05-1.82,0-3.65.02-5.48,0-.52-.12-1.12.58-1.66.6.82.39,1.65.4,2.41.06,4.39.09,8.79.13,13.18.04.13.05.33.13.37.25.12.38-.06.44-.29.63-1.32.17-2.73.3-4.09.07-.73.14-1.35,1.12-1.02-.26,6.01-.1,12.02.14,18.05,1.51-2.12,0-4.8,1.3-7.31.63,1.89.68,3.6,1.74,4.92,1.14,1.43.39,3.3,1.18,4.91.55-1.29.86-2.61,1.3-3.85.45-1.26.13-2.78.22-4.19.08-1.28-.31-2.65.42-4.05.85.94.51,1.8.56,2.58.15,2.64-.25,5.3.22,7.94,0,.28.17.43.42.43.27,0,.39-.17.3-.44.26-.97-.18-2.08.74-3.37.54,2.38.1,4.43.46,6.4,0,.17-.01.35-.02.52v4.7c.81-.86,1.32-1.47,1.9-2.01.41-.39.88-.9,1.51-.68.74.25.52,1,.45,1.51-.29,2.13.68,3.87,1.64,6.09.62-1.78.32-3.18.37-4.54.03-.94.15-1.83.72-2.59.43-.57.95-.67,1.43-.07.53.66.89,1.38.87,2.28-.02.58-.15,1.23.3,1.83,1.08-.71.23-2.13,1.1-2.51,1.97-.86,1.66-2.41,1.51-3.98.1-.32.2-.64.3-.95,1.49.18.18,2.01,1.3,2.45.65-.51.45-1.13.46-1.67.03-1.82.04-3.65.01-5.47-.02-.97.09-1.8,1.08-2.29.76-.37.94-1.07.93-1.88-.05-4.06-.07-8.12-.1-12.18,0-.36,0-.72.01-1.08.03-2.91.05-5.82.09-8.73,0-.66-.17-1.51.16-1.95,1.14-1.49.81-3.16.82-4.78.03-3.83,0-7.65.01-11.48,0-1.5,0-2.99.01-4.49,0-.4,0-.87.56-.95.45-.07.79.18,1.08.5.61.7.14,1.64.53,2.38-.02.26.13.4.37.39.23-.01.39-.14.3-.42.05-.58.13-1.15.14-1.73.04-1.83.06-3.66.09-5.49.01-.66-.09-1.54.77-1.59,1.04-.07,1.02.92,1.07,1.64.07,1.16.08,2.33.08,3.49,0,7.9,0,15.81.02,23.71,0,.67-.23,1.44.26,2.03,1.27-.33.24-1.87,1.72-2.23v22.71c1.61-1.29.43-3.18,1.42-4.52,1.06-1.43.41-3.06.59-4.6.17-1.54-.31-3.17.51-4.65.73,1.32.34,2.72.49,4.07.14,1.27-.39,2.65.5,4,.74-.94.46-1.79.46-2.58.03-4.66.02-9.32.02-13.98,0-1.08-.07-2.19.59-3.13.92-1.32,1.6-2.72,1.58-4.53q1.23,1.36,1.83,1.52,1.98.51,1.99,2.41c0,1.83,0,3.66,0,5.49.01,2.39-.29,4.83,1.1,7.01,0,.38.17.59.55.49.24-.06.33-.27.25-.53.03-.91.08-1.82.09-2.74,0-1.31.61-2.11,1.92-2.5.24,1.69-.13,3.31.28,4.95,1.1-.51.78-1.27.79-1.87.03-3.66.01-7.31.03-10.97,0-.65-.28-1.51.22-1.92,1.05-.86.68-1.94.77-2.97.04-.5-.13-1.18.13-1.45,1.23-1.25.83-2.8.89-4.23.08-2.24.11-4.49.04-6.73-.04-1.54.2-2.96.96-4.3.43-.19.76-.04,1.02.32-.26,3.74-.24,7.47-.09,11.22.18,4.49.04,8.99.06,13.48,0,.58-.22,1.29.63,1.85.89-2.16-.22-4.45.87-6.6.71.97.46,1.82.47,2.6.03,3.75,0,7.49.02,11.24,0,.83-.18,1.73.27,2.45.8,1.3.71,2.69.74,4.11.01.52-.31,1.17.34,1.53.86.05.42-1,1.08-1.14,1.21,1.04,1.61,2.35,1.59,3.95-.02,2.25-.27,4.54.2,6.88,2.06-.9,2.99-2.16,2.81-4.33-.15-1.78-.38-3.66.85-5.29.21-.28.11-.81.1-1.22,0-1.58-.02-3.16-.04-4.74.13-.12.18-.28.15-.45.87-.07.86.5.89,1.12.06,1.08-.23,2.22.44,3.82,1.13-2.68-.34-5.7,2.43-7.36.09.88.16,1.61.23,2.34,0,.17,0,.34,0,.51-.03,2.08-.1,4.15-.09,6.23,0,2.1.15,2.26,2.45,2.95.55.17.53.55.54.94.02,1.25-.01,2.49.03,3.74.01.42-.22,1.07.64,1.05.78-.81-.08-2.08,1.04-3.23.68,3.07-.1,6,.85,8.75.66-3.72.21-7.51.58-11.32,1.02.34.78.92.85,1.37.06.4,0,.82.52,1,2.17.77,2.57,2.49,2.51,4.54-.03.96-.33,2.02.34,3.06,1.1-1.08.2-2.42.97-3.45,1.13.5,1.69,1.28,1.66,2.51-.03,1.16-.38,2.54.11,3.45,1.16,2.13.72,4.35.93,6.54.02.21.09.32.3.32.69.2.65-.99,1.65-.62v5.02c1.94-.87,1.96-.87,1.99-2.32.05-2.78-.32-5.6.94-8.24.03-.06-.03-.16-.05-.24l.03-1.08c1.15-2.1,2.47-4.14,2.12-6.73-.05-.37.12-.87.36-1.15.68-.79.59-1.69.59-2.6,0-1.41-.01-2.83.03-4.24.01-.42-.2-1.07.71-1.05.54,1.07-.24,2.54.38,3.32,1.33,1.68.77,3.48.87,5.23.09,1.66,0,3.33.04,4.99,0,.43-.25,1.04.52,1.19.81-.38.09-2,1.51-1.9.11.29-.26,1.01.57.65,1.75-1.02,2.53-2.52,2.39-4.55-.07-1.07-.4-2.42.1-3.19,1.46-2.24.64-4.63.88-6.93.09-.82-.2-1.85.2-2.44.94-1.38.74-2.84.81-4.31.03-.58-.16-1.41.15-1.69,1.2-1.08.8-2.43.84-3.69.05-2.08,0-4.16.02-6.23,0-.74-.19-1.57.39-2.14.77-.76.63-1.69.59-2.57-.2-3.95.12-7.83,1.38-11.74,1.16,1.3,1.67,2.75,1.65,4.48-.05,5.39-.02,10.79-.02,16.06.75.54,1.19-.38,2,.06,0,2.59,0,5.31,0,8.02,0,1.34-.02,2.68,1.05,3.72-.02.38.19.63.54.61.41-.02.47-.32.32-.67.26-1.41-.23-2.91.39-4.3,1.92,1.93,1.73,4.41,2.04,6.79.9-.84.6-1.85.66-2.77.09-1.25.69-1.87,2.16-1.98v8.84c3.05-1.56,1.14-4.47,2.15-6.61.91.56.52,1.45.83,2.04-.03.3.14.46.42.45.27-.01.44-.17.34-.48.03-4.23.06-8.46.11-12.69,0-.57-.23-1.29.69-1.72.79,2.33-.26,4.75.74,7.12,1.05-1.34-.02-2.92,1.06-3.94,1.1-1.05-.09-2.73,1.01-3.96.8.93.26,1.92.59,2.73-.07.47.17.8.6.72.32-.05.32-.45.2-.76,0-5.81.01-11.62.02-17.44.14-.35.14-.71,0-1.06.81-2.09,1.25-4.23,1.12-6.5-.07-1.13.61-1.95,1.94-2.47,0,3.3,0,6.35,0,9.4,0,.58-.17,1.41.13,1.69,1.25,1.16.76,2.59.86,3.93.05.66-.21,1.44.25,1.94.98,1.07.71,2.32.75,3.54.14,4.02-.57,8.11,1.11,11.99,0,.37.2.56.55.48.24-.05.32-.26.25-.51.29-1.29-.25-2.73.45-3.94.21.01.42.03.63.04v16.07c1.08-.47.98-1.09.98-1.63,0-2.16-.01-4.33-.01-6.49,0-.83-.13-1.69.36-2.43,1.48-2.24,1.92-4.7,1.68-7.33-.03-.34-.18-.8.43-1.11.07,1.44,1.08,2.33,1.8,3.36.81,1.18.64,2.6.91,3.93,2.21-.9,1.55-2.92,2.16-4.33.94.28.66.97.67,1.49.04,2.41,0,4.83.03,7.24,0,.43-.2,1.06.6,1.09.81-.54,0-1.76,1.08-2.5.65,2.26-.05,4.5.57,6.75,1.07-.69.71-1.52.72-2.18.04-3.83,0-7.66.02-11.49,0-.5-.18-1.14.63-1.47.53.83.34,1.67.35,2.46.02,4.16.1,8.33-.04,12.48-.07,2.2,1.56,4.01,1.19,6.24-.03.16.26.49.45.54,1.75.4,1.36,1.77,1.42,2.97.06,1.41-.17,2.85.5,4.23.85-2.36.09-4.91.77-7.31.72.27.67.71.68,1.11.02,1.91,0,3.83.03,5.74.01.83.06,1.66.16,2.49.06.48.18,1.02.84,1.04.55.02.58-.47.77-.82.27-.49.02-1.45,1.27-1.3,0,1.48,0,2.96,0,4.44,0,.5.31.73.8.73.5,0,1.04,0,1.12-.67.06-.49.02-1,.04-1.5.07-1.27-.19-2.58.19-3.9.83.46.99,1.42,1.88,1.45.41.07.82.14.82-.48.27-.53-.17-1.35.83-1.75.72,2.06-.21,4.31.84,6.27.63-1.67.36-3.39.42-5.08.06-1.75-.03-3.5.11-5.24.12-1.63-.45-3.34.28-5.01,2.16,2.7,1.38,5.89,1.99,8.83,1.01-1.29,1.75-2.53,1.67-4.22-.08-1.56-.26-3.18.23-4.9.91.56.72,1.18.72,1.71.02,1.83-.06,3.67.03,5.5.11,2.32.75,4.51,2.01,6.48.07.35.27.56.63.46.24-.07.33-.27.25-.53.04-1.53.08-3.06.12-4.59.18,0,.36-.01.55-.02.56.66,1.03,1.42,1.92,1.69.1.1.22.3.29.28.18-.04.2-.21.09-.37.44-2.29-.35-4.7.65-6.97.83,2.7.11,5.55.71,8.69.99-1.56.84-3.34,2.64-4.02.36,3.6-.16,7.16.28,10.96.83-.71.8-1.3.83-1.86.03-.46.21-.92.68-.87,1.49.15,1.31-.87,1.31-1.76,0-3.33.02-6.66,0-9.99,0-.96-.06-1.84,1.32-1.84.65,0,.67-.6.69-1.11.03-.51-.12-1.09.35-1.58,1.34,1.3,1.7,2.8,1.76,4.41.04.13.05.34.14.38.26.12.39-.06.45-.3.5-.76.22-1.62.29-2.43.05-.65-.15-1.4.4-1.89.75-.66.58-1.5.59-2.31.02-1,.03-2,0-3-.03-1.26.66-1.92,1.93-2.46.21,3.91-.09,7.64.18,11.37.38-.05.53-.05.53-.08.86-3.66-.02-7.4.51-11.12,1.51,1.47,2.04,3.32,2.06,5.76,2.02-3,1.95-5.77,1.66-8.59h-.01c.04-.58.16-1.17.12-1.74-.1-1.44.53-2.3,2.04-2.82,0,1.49.08,2.82-.02,4.13-.1,1.25.18,2.36,1.07,3.18.85.78.95,1.67.94,2.69-.03,2.33-.02,4.66,0,6.98,0,.41-.21,1.01.7,1.16.56-1.33.21-2.74.27-4.08.07-1.41-.06-2.83.03-4.24.09-1.32-.39-2.72.68-4.53.48,1.96.26,3.42.27,4.84.02,1.33-.14,2.64,1.36,3.43.87.46.66,1.44.67,2.26,0,3.66,0,7.32.02,10.97,0,.61-.13,1.26.38,2.03,1.08-1.09.15-2.56,1.19-3.78.84,1.72.02,3.43.56,4.89.6.04.69-.45.98-.69,1.1-.92,1.22-.89,1.97.39.17.29.34.57.48.87.52,1.13,1.56.71,2.41.81.99.11.83-.72,1.11-1.29.6-1.21,1.07-2.41.87-3.79-.05-.33.17-.87.4-.82,1.46.33,1.49-1.4,2.73-1.89v12.19c-.04.27.06.47.35.44.25-.03.42-.19.4-.48.45-3.94-.21-7.94.65-11.88.54,1.09.5,2.21.47,3.35-.02.74-.22,1.79.18,2.17,1.23,1.19.77,2.6.84,3.93.08,1.66.08,3.31.11,4.97-.03.24.05.47.28.48.31.02.54-.15.48-.53.29-2.57.06-5.15.14-7.73.02-.66-.18-1.53.16-1.95,1.17-1.48.72-3.15.86-4.76.07-.77-.15-1.59.41-2.67.84,1.41.47,2.65.56,3.81.1,1.24-.21,2.54.46,3.73.82-1.19.2-2.57.6-3.74.4-1.18,1.11-2.25,1.11-3.58.79.05.9,1.07,1.84.64,0-1.13,0-2.35,0-3.58,0-1.39.97-2.32,1.66-3.47.27,1.72-.27,3.74.48,5,.93,1.57.42,3.39,1.45,5.38.63-2.36.26-4.17.39-5.96.13-1.79-.34-3.64.59-5.35.63,2.11.3,4.24.38,6.36.04,1-.32,2.23.14,2.94,1.17,1.79.85,3.66.87,5.54.03,2.63.07,2.7,2.99,3.77,0-2.28.12-4.52-.03-6.74-.16-2.25,1.26-3.96,1.59-6.05.71,1.76.15,3.65,1.13,5.31,1.15,1.97,1.51,4.17,1.43,6.44,0,.08.23.16.35.24.84.04.48-1.28,1.44-1.18.03.55.06,1.12.1,1.69q.09,1.27,1.59,1.45v34c-1.88-.62-1.2-2.77-2.55-3.87v8.01c-1.14-.83-2.62-.12-3.43-1.67-.6-1.14-.04-2.64-1.14-3.55-.57.38-.44.82-.44,1.19-.01,1.25.05,2.5.02,3.74-.03,1.29-.64,1.14-1.38.48-.18-.16-.35-.35-.64-.05-.5.93-1.04,1.91-1.83,3.38-.45-3.37.13-6.28-.73-9.08-.6,3.2-.3,6.43-.52,9.94-1.01-.77-.73-1.61-1-2.24-.33-.78-.84-.62-1.4-.27-.6.38-.46,1-.54,1.56-.09.63.2,1.47-.78,1.84-.07-.35-.12-.59-.15-.83-.12-.87.24-2.01-.79-2.44-.95-.4-1.13,1.12-2.09,1.13-1-2.97-1.94-5.97-2.27-9.15-.1-.95-.4-1.96-1.75-1.95-.41,1.88.46,3.92-.46,5.48-.93,1.58-.12,3.52-1.44,4.92-.25-1.59-.18-3.15-.27-4.71-.08-1.46.49-3.04-.56-4.48-.92,1.06.2,2.53-1.41,3.82.39-3.42-.76-6.01-1.73-8.69-.28,2.01-.28,3.99-.28,5.96,0,1.91.06,3.83,0,5.74-.07,1.89.33,3.84-.49,6.07-.65-1.21-.37-2.12-.46-2.97-.12-1.13.29-2.32-.36-3.39-.25-.32-.49-.64-.74-.96.26-5.08.15-6.4-.6-7.5-.89.87.28,2.39-.99,3.38-.6-1.37-.13-2.66-.5-3.82.04-.28-.13-.42-.37-.44-.26-.02-.38.14-.35.41-.08,2.26-.16,4.51-.24,6.86-1.43-.57-.21-2.25-1.5-2.68-1.48,1.1-1.46,2.68-1.42,4.28-.31.02-.4.25-.46.5-.83.51-.48,1.34-.5,2.03-.04,2.74,0,5.48-.04,8.22,0,.76.21,1.6-.63,2.5-.88-2.15.34-4.39-1.11-6.14-.21,1.4-.21,2.79-.21,4.18,0,1.41.05,2.83-.05,4.24-.09,1.29.37,2.68-.82,3.85-.08-3.94-.15-7.88-.23-11.82.04-.32,0-.6-.39-.62-.42-.03-.41.3-.43.59.41,2.05-1.25,3.66-1.15,5.7.09,1.9.39,3.9-.44,5.88-.87-.81.09-2.23-1.42-2.59-.32,5.99.21,11.9-.51,17.79-.66-.5-.55-1.16-.55-1.76-.02-2.66-.02-5.32-.03-7.98,0-.66.2-1.48-.1-1.97-1.45-2.31-.69-4.84-.89-7.27-.07-.82.27-1.76-.19-2.45-.9-1.35-.74-2.86-.91-4.32.06-.39-.14-.58-.49-.54-.24.03-.32.27-.3.51.06,3.01-.27,5.95-1.55,8.72-.69-.16-.51-.75-.52-1.19-.04-1.74-.03-3.49-.05-5.23,0-.5.01-1.07-.63-1.18-.69-.11-1.12.36-1.23.96-.13.73-.13,1.49-.13,2.23-.01,3.74,0,7.48-.02,11.21,0,.52.28,1.3-.5,1.47-.68.15-1-.5-1.22-1.03-.18-.45-.24-.96-.36-1.44.11-.36.24-.88-.2-.95-.62-.1-.65.44-.58.93-.33,1.14-1.13,1.94-1.99,3.03-.11-1.04-.18-1.77-.26-2.5,0-.36.01-.72.02-1.08v-20.63c-.85-.42-1.11.6-1.94.28.17-2.13-.15-4.25-.81-6.4-.45-1.45-.18-3.12-.23-4.69.13-.31.16-.77-.13-.82-.4-.06-.72.28-.76.75-.82.58-1.08,1.37-1.05,2.37.06,1.99.02,3.99.04,5.99,0,.57.29,1.24-.21,1.66-.99.84-.76,1.94-.84,3-.05.75.21,1.59-.63,2.59-.5-1.61-.22-2.91-.35-4.17-.14-1.29.42-2.72-.75-4.24-.38,2.57-.11,4.79-.24,6.99-.14,2.22.29,4.5-.23,6.69-.21,0-.42,0-.64-.01-.06-2.1-.12-4.21-.19-6.31.1-.3.18-.66-.26-.66-.31,0-.57.25-.51.64-.12.68-.23,1.37-.38,2.22-1.46-1.05-1.83-2.24-1.82-3.77,0-1.22.6-2.63-.72-3.85-.49,1.47.04,2.91-.42,4.2-.64.11-1.19-.68-1.69-.04-.36.46.01,1.32-1.14,1.8v-8.82c-1.44,1.13-2.03,2.11-1.95,3.43.12,1.79-.81,3.21-1.41,4.78-1.59-.76-.99-2.74-2.48-3.46-.76.88-1.17,1.94-1.53,3.04-.19.05-.38.1-.57.16q-.07-3.02-1.45-5.59c-.13-.25-.39-.75-.45-.25-.24,2.26-1.49-.11-2.03.5-.34,2.14.14,4.36-.6,6.5-.87-2.71.02-5.65-1.18-8.31-.32,1.47-.3,2.92-.32,4.37,0,.54.14,1.36-.72,1.25-1.35-.17-1.28.65-1.26,1.5.06,2.63.22,5.27-1.4,7.59-.04.06,0,.16,0,.25-.19.04-.37.09-.56.13-.17-1.37.16-2.77-.2-4.13-.21-.55-.43-.72-.7-.03-.3,1.73-.26,3.48-.1,5.2.21,2.3-1.02,4.13-1.38,6.66-.94-1.72-1.67-2.93-1.69-4.52-.02-1.37.52-2.9-.63-4.31-.54,1.03-.26,1.94-.33,2.81-.05.66.2,1.54-.13,1.94-1.4,1.67-.67,3.63-.99,5.43-.26.07-.52.15-.78.22-.03-1.75,0-3.5-.12-5.24-.11-1.74.43-3.57-.71-5.29-.08,1.63-.46,3.13-1.41,4.38-.76,1-.91,2.08-.88,3.27.05,1.78.01,3.56.01,5.34-.16.03-.32.07-.48.1-.77-.95-1.54-1.89-2.43-2.98-.07,1.34-.12,2.46-.19,3.8-1.42-1.04-2.1-2.1-1.94-3.69.12-1.24.02-2.5.02-3.74,0-.53-.09-1-.76-1.08-.4.78-.21,1.62-.21,2.44-.03,3.08-.04,6.16,0,9.24.03,2-.97,3.62-1.71,5.37-.21-1.43-.12-2.83-.24-4.2-.1-1.24.5-2.68-1.13-4.08v22.71c-1.37-1.49-1.86-2.69-1.85-4.16.02-2.41-.05-4.83-.08-7.24-.02-1.27-.33-2.39-1.9-3.27-.1,3.03-.19,5.72-.3,8.78-1.53-2.31-1.87-4.45-1.81-6.71.06-2.33.02-4.66,0-6.99,0-.57.1-1.16-.51-1.56-.74-.49-1.42-1.04-2.48-1.83,0,1.2.09,2.09-.03,2.95-.11.85.49,1.95-1.04,2.81v-6.02c.08-.25,0-.49-.24-.55-.36-.09-.58.12-.69.46-.58.22-.98.1-.98-.59-.02-1.5-.12-3,0-4.49.17-2-.87-3.5-1.79-5.13-.24,1.24-.29,2.44-.22,3.64.06,1.02-.37,1.75-1.07,2.4-.85.8-1.04-1.05-1.95-.34,0,2.56,0,5.22,0,7.88,0,.83.22,1.82-.35,2.41-.77.8-.61,1.66-.64,2.55-.02.67.09,1.41-.3,1.95-.88,1.19-.69,2.52-.7,3.83-.01,2.08-.12,4.17.02,6.24.2,2.93-1.22,5.56-1.34,8.45-.05,1.2-.27,2.81-.88,3.73-1.01,1.53-.73,3-.78,4.52-.08,2.24,0,4.49-.03,6.74,0,.44.2,1.04-.62,1.21-.58-.96-.15-2.09-.48-3.09l-.05-.15c.36-2.82.09-5.65.16-8.47,0-.32-.02-.71-.19-.96-.91-1.34-.79-2.85-.79-4.34,0-2.58,0-5.16,0-7.74,0-.58.14-1.39-.17-1.69-1.15-1.11-.8-2.46-.82-3.74-.07-5.07-.09-10.15-.13-15.22-.22-.65-.47-.72-.75-.03-.27.41.03,1.19-.78,1.32-.53-.63-.33-1.32-.34-1.94-.03-3.07,0-6.14-.01-9.21,0-.66.17-1.54-.17-1.93-1.15-1.31-.73-2.81-.82-4.26-.08-1.4.46-3-.22-4.17-.73-1.26-.65-2.52-.87-3.79.07-.25-.02-.45-.25-.5-.35-.09-.55.11-.59.45-.23.22-.46.43-.75.7-.77-.94.18-2.34-1.31-3.61,0,1.81,0,3.09,0,4.36,0,.91,0,1.82-.37,2.69-1.01,2.4-1.91,4.83-1.65,7.52.09.9.02,1.83,0,2.74-.02.46.11,1.07-.79,1.02-.36-2.95-.03-5.93-.24-8.89.14-.38.04-.69-.37-.71-.4-.01-.54.29-.47.68-.24.34-.17,1.05-1.12.74,0-1.51.43-3.24-.1-4.59-.73-1.84-1.04-3.6-.89-5.52.04-.51-.09-1.12-.72-1.09-1.25.07-1.28-.68-1.29-1.58,0-.5.26-1.21-.61-1.36-.5.38-.34.91-.36,1.37-.04,1.24-.05,2.49-.06,3.74,0,.34-.02.69-.41.78-.42.1-.83,0-1.14-.32-.39-.39-.28-.93-.35-1.41-.15-1.06.15-2.16-.26-3.2.04-.33-.19-.43-.43-.41-.19,0-.25.18-.19.37-.3.98-.19,1.99-.14,2.97.07,1.51-.23,2.86-.92,4.25-1.36,2.76-2.4,5.65-2.13,8.84.05.6.19,1.31-.39,2-1.04-.46-1.46-1.25-1.51-2.31-.06-1.08-.11-2.15-.17-3.23.06-.39-.12-.64-.5-.59-.24.03-.31.31-.28.56-.37,2.62.21,5.33-.62,7.95-.36-1.71-1.03-3.27-1.43-4.9-.4-1.6.35-3.37-.67-4.94-.66,2.18-.14,4.45-.72,6.67-.76-1.95-.73-4.21-2.67-6.22,0,1.46,0,2.42,0,3.38,0,1.08.18,2.23-.34,3.2-.58,1.08-.7,2.18-.67,3.35.03,1.13-.36,2.02-1.67,1.99-1.21-.02-1.33.69-1.32,1.62.02,1.37,0,2.74,0,4.32-2.18-1.04-1.91-2.83-2.14-4.39.04-.3-.14-.46-.39-.48-.29-.03-.4.17-.36.44-.04,1.41-.07,2.82-.11,4.23-.01.35-.15.65-.59.58-.42-.07-.37-.5-.52-.77,0-.2,0-.4,0-.6.39-5.36.24-7.48-.72-8.7-.42,2.22.17,4.44-.57,6.55-.6-.7-.49-1.5-.51-2.28-.08-2.82-.15-5.65-.23-8.47.06-.28-.12-.4-.34-.42-.25-.02-.39.12-.35.39-.34,2.73-.09,5.48-.13,8.22-.01,1.03,0,2.09-.91,2.72-1.06.73-1.13,1.71-1.11,2.82.04,1.66,0,3.33-.01,4.99,0,.58.15,1.3-.12,1.72-1.42,2.22-.72,4.66-.87,7-.06.91.12,1.92-.44,2.67-.62.83-.57,1.7-.57,2.6,0,7.82,0,15.64-.01,23.46,0,.48.22,1.02-.16,1.43-.47.5-.68-.01-.94-.3.06-.1.03-.18-.07-.24-.7-1.8-.95-3.69-.73-5.59.39-3.44-1.52-6.6-1.11-10.03.03-.29-.13-.69-.34-.89-.77-.75-.62-1.68-.62-2.58-.01-3.92,0-7.83-.02-11.75,0-.45.23-1.03-.41-1.25-.63-.04-.71,1-1.59.59,0-6.77,0-13.59,0-20.42,0-.16-.05-.33-.11-.48-.02-.06-.11-.09-.18-.13-.08-.03-.16-.05-.17-.06-1.52,2.02-1.64,4.33-1.53,6.72.06,1.25.03,2.5,0,3.75,0,.44.17,1.07-.71,1.08-.61-2.36.07-4.86-.63-7.27-.79,1.4-1.84,2.58-1.65,4.39.14,1.29.45,2.83-.23,3.93-.88,1.42-.72,2.84-.75,4.31-.03,1.45,0,2.91,0,4.47-2.57-1.12-3.23-2.89-3.03-5.28.17-2.07.04-4.16.03-6.24,0-.56.12-1.37-.6-1.45-.88-.09-1.31.62-1.36,1.45-.06,1.16-.03,2.33-.09,3.5-.02.43.11,1.08-.72.99-.31-.88-.14-1.81-.22-2.72-.08-.89.23-1.86-.51-2.61-.9-.97.21-2.73-1.37-3.69-.36,1.36-.07,2.5-.09,3.63-1.33.26-1.02,1.32-1.02,2.18-.02,4.65-.03,9.29,0,13.94.01,2.1-.76,3.88-2.14,5.36-.62.67-.94,1.3-.88,2.18.04.68,0,1.37,0,2.09-1.04-.18-.97-1.43-2-1.24-.99.18-1-.58-1-1.27,0-2.82.02-5.64,0-8.46-.06-4.97.16-9.95-.12-14.92,0,0-.01-.02-.01-.02.29-2.07.08-4.15.14-6.22.02-.66.23-1.49-.08-1.96-1.39-2.15-.76-4.5-.92-6.78-.04-.65.16-1.36-.33-1.92-.74-.83-.66-1.84-.67-2.83,0-.87,0-1.73,0-2.72-1.16.25-1.06,1.11-1.48,1.55-.17-.06-.33-.12-.5-.18,0-1.16.02-2.33-.04-3.49-.04-.87.46-2.24-1.41-1.69-.63.19-.51-.47-.57-.82-.13-.74.24-1.63-.89-2.48-.33,4.07.21,7.88-.36,11.86-.91-.65-.71-1.26-.72-1.79-.03-1.75-.14-3.51,0-5.24.15-1.85-.46-3.32-1.79-4.93-.21,1.34-.99,2.18-1.16,3.19-.2,1.13-.04,2.32-.04,3.49-.01,1.67-.02,3.33-.07,5-.01.45.16,1.06-.7,1.14-.44-1.64.03-3.5-1.07-5-.85-1.17-1.11-2.54-1.28-3.94.12-.33.07-.7-.26-.77-.55-.11-.6.31-.55.73-.2.45-.28,1.03-.61,1.34-1.46,1.41-1.66,3.16-1.49,5.02.22,2.38-.07,4.61-2.13,6.64v-6.47c.06-.31-.13-.44-.38-.47-.28-.03-.42.14-.38.43-.3,2.96.19,5.97-.28,8.92-.2,0-.39,0-.59.01-.12-3.63-.25-7.26-.37-10.89.04-.31-.15-.46-.4-.49-.3-.03-.41.16-.36.45-.28,1.47.39,3.14-.37,4.41-.75,1.27-.71,2.5-.73,3.81-.02,1.25-.07,2.5.01,3.74.08,1.27-.54,1.78-1.71,1.91-.79-1.14.47-3.56-2.31-3.64,0,1.51,0,2.92,0,4.33,0,.83.27,1.8-.22,2.44-.96,1.26-.83,2.62-.75,4.02-.16.05-.23.15-.21.32-.97-.13-.81-.84-.81-1.51-.02-2.14.28-4.3-.28-6.42-.14-.14-.27-.29-.41-.43-.08.18-.15.35-.23.53-.35,1.44.44,3.07-.53,4.36-.58.77-.54,1.53-.54,2.34-.01,3.33-.01,6.66-.04,9.99,0,.44.19,1.04-.59,1.18-.55-.5-.37-1.2-.34-1.8.11-1.8-.41-3.27-1.38-4.87-.83-1.37-1.75-2.97-1.69-4.82.08-2.41-.23-4.86.09-7.23.34-2.49-1.18-4.53-1.14-6.92.02-1.59-.66-2.01-2.31-2.08-.18-.04-.37-.09-.55-.13-.09-1.49-.16-2.99-2.28-3.97.92,2.07-.93,3.19-.84,4.96.07,1.52.45,3.17-.81,4.6-.08-2.36-.15-4.73-.23-7.09.07-.24-.01-.45-.24-.5-.34-.08-.54.11-.62.44-1,.59-1.05,1.53-1.09,2.57-.03.87.42,1.93-.64,2.76-.48-3.04-1.72-5.78-1.41-8.77.15-.36.17-.71-.02-1.06-.32-.52-1.07-.8-.88-1.62.38-1.67-.48-3.12-1.08-4.51-.65-1.5-.99-2.95-.94-4.55.02-.53.14-1.22-.82-1.31-.39,3.73-1.95,7.18-2.64,10.89-1.01-1.97.03-4.3-1.1-6.56-.77,1.63,0,3.09-.7,4.27-.72,1.22-.75,2.52-.84,3.84-.77-.13-.77-.7-.78-1.3-.02-.98.21-1.98-.22-2.92-.1-.22-.33-.32-.59-.25-.71.45.04,1.47-.64,1.87-.71.17-.82-.92-1.57-.52-.24.95-.16,1.93-.12,2.92-.27,0-.53.01-.8.02-.17-.92.11-1.93-.31-2.68-.91-.21-.99.83-1.55.67-.66-.96.35-2.34-1-3.23-.54,1-.31,1.91-.36,2.79-.05.9.18,1.84-.47,2.63-.8.09-1.58.3-1.45,1.31.23,1.77-.88,2.91-1.83,4.21-1.5-.94-1.03-2.48-1.2-3.83-.18-1.45-1.17-2.67-1.06-4.27.09-1.26.52-2.72-.57-4-.59.91-.35,1.75-.36,2.54-.02,5.58-.01,11.17-.01,16.75,0,.98.19,1.9-1.35,2.11-1.11.15-1.68,1.21-1.65,2.47.04,2.33.03,4.67,0,7,0,.59.21,1.31-.5,1.79-.62-.47-.44-1.09-.45-1.6-.03-3.75-.03-7.5-.04-11.25,0-.58,0-1.17-.01-1.75-.01-.56-.2-.98-.85-.94-.52.03-1.01.19-1.07.81-.05.58-.05,1.16-.06,1.74-.03,2.75-.05,5.5-.08,8.25-.28.07-.55.15-.83.22-.01-1.17-.01-2.33-.03-3.5q-.04-2.3-1.05-3.45c.5,2.15-1.28,3.52-1.05,5.41.05.39-.32.63-.65.58-1.25-.19-1.32.56-1.3,1.49.03,1.41.01,2.83-.02,4.24-.01.44.17,1.06-.69,1.11-.34-.57-.24-1.24-.25-1.87-.03-2.25-.05-4.49-.04-6.74,0-1.15-.41-2.02-1.64-2.07-1.3-.06-1.38-.79-1.36-1.81.05-2.08.02-4.16,0-6.24,0-.47.13-1.05-.59-1.17-1.27,2.39-1.53,4.97-1.49,7.62-1.82,2.46-.51,5.27-.9,7.89-.29.02-.43.21-.53.46-1.46-.07-1.48.9-1.48,1.97.02,7.41.03,14.83,0,22.24,0,2.05.37,4.17-.92,6.05-.21.3-.19.82-.15,1.22.22,2.12-.37,3.98-1.91,5.87,0-5.08,0-9.89,0-14.7,0-.66.17-1.58-.19-1.93-1.07-1.06-.78-2.3-.8-3.5-.04-2.25,0-4.5-.03-6.75,0-.42.28-1.04-.42-1.18-.83.26-.26,1.48-1.42,1.74-.05-.88-.12-1.66-.13-2.45-.05-4.33-.09-8.65-.14-12.98.07-.31-.13-.43-.37-.45-.26-.02-.42.12-.38.41-.48,1.66.4,3.51-.48,5.11l-.54-.02c-.07-4.69-.14-9.37-.21-14.06.05-.38-.2-.52-.5-.51-.23.01-.32.23-.29.47-.36,3.19.22,6.44-.33,9.9-.89-.92-.54-1.72-.69-2.42-.15-.72.31-1.64-.57-2.15-.96.51.08,1.94-1.17,2.27-.57-1.19-.08-2.49-.53-3.67-2.58.23-1.35,2.84-2.8,4.49,0-1.91.07-3.21-.02-4.51-.09-1.32.38-2.73-.34-4.04-1.23.58-.02,2.04-1.2,2.56-.43-.41-.35-.95-.49-1.4.12-.31.21-.66-.12-.86-.24-.14-.45.06-.54.31-1.09.73-.44,2.22-1.38,3.07-.85.77-.95,1.85-.92,2.98.03.98.34,2.09-.32,2.91-.91,1.13-.68,2.31-.52,3.54l-.03.53c-.04,1.5-.02,2.99-.14,4.48-.11,1.36.36,2.83-.56,4.34-.95-1.92.34-3.99-1.24-5.52.04,7.43-.39,14.79-1.61,22.52-.73-1.16-.53-2-.54-2.78-.02-3.75,0-7.49,0-11.24,0-.82.05-1.65-.43-2.41-1.43-2.26-1.81-4.75-1.61-7.37.06-.82.11-1.67-.19-2.47.13-.39.14-.87-.33-.89-.55-.02-.35.5-.33.84-.37,1.56.17,3.23-.4,4.9-1.31-.78,0-2.51-1.54-3-.41,1.37.15,2.89-.83,4.1-.83,1.02-1.73,1.99-2.2,3.3-.16-1.15-.09-2.23-.18-3.31-.08-.94.48-2.11-.73-2.84-.65,1.58.29,3.32-.79,5.04-.49-1.16-.35-2.07-.43-2.95-.06-.65.16-1.39-.33-1.92-.83-.91-.68-2.02-.71-3.08-.03-1.42-.04-2.83.04-4.25.12-2.36-.88-4.13-2.63-5.57-1.14,1.25-1.56,2.63-1.39,4.2.11,1.04,0,2.02-1.24,2.3-.64.14-.78.52-.75,1.06.03.66.08,1.32.13,1.99v.53c-1.33,1.99-2.38,4.04-2.15,6.56.13,1.48.03,2.98.01,4.48,0,.49.12,1.18-.14,1.45-1.26,1.25-.78,2.78-.83,4.21-.06,1.57-.02,3.15,0,4.73,0,.76.05,1.75-.61,2.05-1.75.78-1.37,2.23-1.39,3.57-.02,2.57,0,5.14-.01,7.71,0,.58.14,1.28-.13,1.72-1.35,2.24-.8,4.64-.75,7,0,.17-.01.34-.02.51-.34,2.77.24,5.61-.61,8.35-.78-2.81-.21-5.68-.61-8.49l-.04-.17c.4-3.81.08-7.62.16-11.43,0-.25.04-.56-.09-.73-1.32-1.68-.84-3.65-.88-5.52-.06-2.41,0-4.81-.02-7.22,0-.65.19-1.38-.28-1.92-.8-.91-.7-2-.71-3.07-.01-1.66,0-3.32-.01-4.98,0-.65.19-1.38-.29-1.92-.8-.91-.69-2-.7-3.07-.01-3.15-.04-6.31.01-9.46.02-1.08-.33-1.55-1.42-1.36-.51-.26-.75.11-1.02.43q-2.34.37-2.82,4.39c-.73-1.46-1.73-2.24-2.87-2.89-.73-.42-.88-1.16-.87-1.94,0-.75,0-1.5,0-2.25,0-.43-.07-1-.57-.91-1.74.33-1.39-.86-1.44-1.81-.03-.54.05-1.21-.83-1.18q-.34,3.45-1.7,4.53c-.92-.2.11-1.8-1.46-1.71,0,.96.02,1.93,0,2.9-.01.66.18,1.55-.17,1.94-1.22,1.39-.76,2.95-.76,4.49l-.13.12.08.16c-1.37.24-1,1.33-1.01,2.17-.04,4.58-.02,9.16-.06,13.74,0,.5.36,1.19-.58,1.56-.96-1.78.35-4-.82-5.7-.2.01-.39.03-.59.04v34.52c-.26.03-.51.07-.77.1.1-1.94-1.22-3.44-1.13-5.41.09-2.16-.03-4.33-.06-6.49-.01-.66.12-1.35-.33-1.93-.73-.93-.66-2.02-.66-3.11-.03-3.75-.05-7.49-.08-11.24.07-.25.02-.51-.22-.57-.36-.08-.58.14-.66.5-.31.14-.62.72-.96.12-.15-.26-.04-.65-.07-.98-.36-3.95.88-8.03-.96-11.87-.16-.34-.03-.82-.04-1.23-.02-.83-.05-1.65-.08-2.48.08-.23.02-.44-.21-.48-.31-.05-.53.13-.58.46q-1.02.66-1.21-.97c.06-.42.35-1.06-.27-1.11-.58-.04-.54.62-.5,1.09.06.93-1.23,1.1-1.14,2.06.17,1.91-.54,3.68-.87,5.5-.4,2.22-1.45,4.3-1.4,6.61,0,.04-.27.09-.54.17-.5-2.6.07-5.23-.33-7.81-.33-.58-.4-.59-.74-.03.04,2.25-.5,4.31-2.12,6.25,0-1.09-.08-2,.01-2.89.26-2.47-.47-4.75-1.38-6.97-.32-.78-.62-1.55-.63-2.39,0-1.56-.65-2.79-1.84-3.76-.61,1.53.42,3.36-.8,4.99-.94-1.75.31-3.72-.98-5.32-.62.94-.38,1.79-.38,2.59-.02,8-.19,16,.07,23.98.1,3.22-1.08,6.14-1.17,9.27-.02.87-.99,1.43-.94,2.49.14,2.91.11,5.82.15,8.73,0,.17,0,.35-.01.52-.04.91-.1,1.82-.1,2.73-.01,7.47,0,14.93-.04,22.4,0,.61.41,1.52-.66,1.82-.43-.84-.26-1.68-.27-2.49-.03-2.57-.01-5.14-.03-7.71,0-.66.2-1.4-.23-1.94-.91-1.16-.74-2.49-.78-3.81-.02-.74.25-1.57-.26-2.18-.9-1.08-.71-2.33-.73-3.56-.04-1.74-.07-3.48-.1-5.22,0-.36,0-.71.01-1.07.03-3.98.06-7.96.08-11.94,0-.5.06-1.04-.33-1.41-.77-.73-.65-1.65-.66-2.55-.01-2.24,0-4.48,0-6.72,0-.5.17-1.13-.06-1.47-1.54-2.26-.72-4.79-.93-7.2-.06-.65.22-1.43-.25-1.93-.93-.98-.73-2.14-.74-3.28-.06-3.98-.09-7.95-.13-11.93.04-.38-.21-.54-.51-.52-.23.01-.31.24-.28.48-.23.73.14,1.59-.67,2.32.03-1.96-1.66-3.33-1.45-5.37.13-1.29-.05-2.6-.09-3.91.06-.32-.14-.45-.39-.47-.28-.03-.43.14-.38.44-.03.33-.09.66-.1.99-.02.91.04,1.83-.04,2.74-.14,1.47-1.89.22-2.32,1.3-.04.09-.35.44-.65-.27.47-1.68-.68-3.25-1.34-4.9-.61-1.54-1.65-1.5-2.46-.04-.77,1.37-1.3,2.79-1.23,4.46.11,2.59.35,5.24-.83,7.7,0,.17-.01.35-.02.52-.35,3.92.15,7.87-.28,11.87-1.43-.42-.22-2.11-1.59-2.4-.44.75-.23,1.58-.23,2.37-.06,6.16-.25,12.32-.05,18.48.02.56.35,1.36-.63,1.6-.5-.88-.23-1.81-.28-2.7-.04-.74.16-1.57-.26-2.2-.81-1.21-.68-2.54-.69-3.86-.03-2.17-.05-4.33-.09-6.5-.01-.58.16-1.23-.23-1.7-.96-1.15-.76-2.5-.77-3.82-.01-3,0-6,0-9,0-1.16-.05-2.24-.65-3.36-1.08-1.98-1.63-4.15-1.36-6.47.07-.57.1-1.2-.35-1.66-.72-.75-.6-1.68-.64-2.59-.03-.66.15-1.49-.18-1.95-1.42-2-.42-4.55-1.69-6.62-.55-.9.24-2.64-1.79-2.55-.09,0-.21-.39-.3-.6-.71-1.58-1.32-3.17-1.06-4.97.06-.44.21-1.31-.31-1.29-1.35.04-1.4-1.5-2.39-1.81-.37.51-.22,1.03-.29,1.51-.07.46-.23.65-.81.62-1.58-.07-1.92.28-2.16,1.77-.11.65.31,1.47-.65,2.11-.6-1.24-.23-2.42-.39-3.51-.08-.56-.02-1.29-.8-1.31-.82-.03-1.11.58-1.16,1.34-.05.82.21,1.73-.33,2.43-.8,1.03-.59,2.19-.66,3.35-.06,1.08.21,2.24-.56,3.75-.64-1.67-.46-2.9-.47-4.08-.03-2.97-.06-3.01-2.63-1.77-.69-.32-.01-1.61-1.15-1.61-.65,1.06.44,2.57-.85,3.6-.69-1.58.06-3.23-.61-4.59-.93.01-.59,1.1-1.32,1.13q-1.35-2.35-2.77-.21c-.04.06-.28-.01-.66-.04,0-2.21,0-4.45,0-6.68,0-.67-.27-1.07-1.03-1.09-.82-.02-.95.43-.95,1.09,0,1.67.01,3.33-.03,5-.02.77.13,1.62-.9,2.78,0-1.43,0-2.29,0-3.15,0-.92-.02-1.83-.06-2.75-.01-.33-.1-.72-.49-.76-.45-.05-.86.23-.88.67-.05,1.32-.68,2.45-.96,4.18-1.43-1.78-2.8-3-2.76-5.03.12-.32.14-.73-.17-.81-.49-.12-.64.33-.75.72-.59,1.84-2.02,3.19-2.75,5.08-.73-1.84.47-3.79-.92-5.42-.63,1.13.11,2.4-.6,3.24-.8.95-.71,1.96-.72,3.02,0,1.07.03,2.14,0,3.22-.03,1.5-.04,1.5-1.73.82-.11-.3-.22-.6-.33-.9.08-.99.19-1.98-.43-2.87-.45-.65-1.11-.94-1.61-.24-.79,1.08-2.02,2-1.79,3.61l.04.53c-1.48,2.78-1.24,6.09-2.66,9.12-1.09-1.53.25-3.42-1.11-4.75-.18.29-.32.41-.33.54-.03,1.83-.03,3.66-.05,5.49-.03,2.66-.23,2.9-2.85,3.34-.42.71.21,1.65-.47,2.3-1.05.02-.32-1.28-1.07-1.38-.83-.11-.39,1.31-1.4,1.14-.2-1.28-.72-2.44-1.93-3.4-.56,1.15.06,2.42-.94,3.33-.1-3.7-.63-7.28-1.9-11.15-.79,1.63-.05,3.15-1.03,4.57-.73-2.34-.08-4.54-.62-6.6.07-.36-.17-.44-.43-.42-.2,0-.26.19-.2.38-.51,1.41.37,3.04-.74,4.84-.6-2.18-.11-4.08-.86-5.83-.28,1.54-1.54,2.68-1.54,4.23,0,5.58.06,11.15.09,16.73-.02.17-.03.34-.05.51-1.29.82-1.14,2.13-1.04,3.34.28,3.43-2.13,5.94-2.99,8.97-.07.26-.49.42-.74.61-1.05-.78-1.34-1.8-1.31-3.05.04-1.48.54-3.2-.24-4.38-.78-1.2-.68-2.31-.73-3.49-.07-1.82-.06-3.64-.08-5.46.07-.24.01-.47-.23-.52-.33-.06-.56.13-.63.48-1.13.83-.86,2.35-1.51,3.43-.76-.36-.55-.91-.55-1.34-.05-6.66.37-13.33-.97-19.94-.24-1.2-.58-1.92-1.93-1.91-.29,2.17.13,4.29-.33,6.65-1.34-1.73-1.85-3.31-1.78-5.11.03-.91-.07-1.82-.12-2.72.06-.31-.13-.43-.38-.46-.27-.02-.42.13-.38.42-.04,1.16-.03,2.33-.14,3.48-.1,1.11-.63,2.02-1.49,2.54-.76-.31-.18-1.2-.89-1.45-2.66.66-.84,3.51-2.27,4.93-.48-1.06-.31-1.99-.32-2.88-.03-2.41,0-4.83-.02-7.24,0-.55.1-1.23-.84-1.31-.3,1.72-.12,3.46-.14,5.19-.05,3.82-.02,3.82-.71,4.76-.7-1.2.43-2.91-1.31-4.27v5.54c-1.2-.98-1.53-2.37-2.99-2.76,0,1.52,0,2.84,0,4.16,0,1.41.07,2.83-.02,4.24-.08,1.22.42,2.55-.51,3.84-.63-.94-.42-1.78-.43-2.57-.04-2.83-.07-5.66-.02-8.49.03-1.79-.72-3.19-1.69-4.65-.64.78.11,1.84-1.04,2.41-.77-1.56.3-3.48-1.15-5.35-.09,2.03.26,3.74-.32,5.05-1,2.27-.81,4.53-.79,6.82.02,1.66-.55,3.02-1.41,4.34-1.63-.61-1.63-1.84-1.62-3.12.02-5.57.02-11.15-.01-16.72,0-.75.41-1.67-.44-2.21-2.32,3.05-1.13,6.77-1.78,10.58-1.07-1.27-.28-2.55-1.02-3.23-.81-.18-.84.99-1.59.61-.56-1.51.44-3.34-.85-5.14-.63,2.31.14,4.33-.67,6.45-.79-1.01-.56-1.94-.61-2.8-.1-1.57.21-3.15-.2-4.71.02-.33-.21-.44-.47-.43-.2.01-.26.19-.19.39-.52,1.93.37,4.03-.57,6.03-1.13-.88.14-2.49-1.25-3.07-.82.83.41,2.38-.96,2.85-.99.34-2.11.91-3.19-.27-.45,2.56.17,4.91-.47,7.52-.87-1.35-.54-3.19-2.79-3.07v12.3c-1.04-.78-.65-2.18-1.97-2.18-.54.57-.95,1.23-.93,2.14.06,1.91.08,3.82.12,5.72,0,.17,0,.35,0,.52-.14,1.74-.97,3.05-2.35,4.1-.95.73-1.36.17-1.62-.57-.18-.52-.17-1.14-.12-1.71.09-1.14-.43-1.87-1.41-2.35-.07-.25-.21-.44-.48-.5-.07-.49-.08-1-.23-1.46-.95-2.82-2.22-5.6-1.86-8.67.22-1.9-.46-3.53-1.09-5.19-.32-.82-.92-.88-1.48-.22-.28.34-.47.72-.42,1.13.26,2.28-.45,4.3-1.39,6.35-1.25,2.73-.54,5.69-.53,8.56-.02.17-.04.33-.06.5-1.03.59-1.06,1.56-1.05,2.59.02,5.49.02,10.98,0,16.47,0,.82.25,1.76-.54,2.54-.88-.91.15-2.43-1.39-3.2-.01,8.54-.54,16.82.07,25.1,0,.17,0,.35,0,.52-.36.46-.81.73-1.05-.02-.17-.53-.05-1.15-.07-1.73-.03-1.24.33-2.72-.21-3.68-.78-1.38-.65-2.7-.69-4.08-.06-2.58-.06-5.16-.1-7.74,0-.5.15-1.13-.09-1.47-1.43-2.04-.76-4.33-.91-6.52-.05-.74.21-1.77-.18-2.18-1.1-1.16-.78-2.47-.8-3.75-.04-2.83-.2-5.68.04-8.49.22-2.68-1.74-4.96-1.12-7.65.08-.34-.29-.55-.58-.72-.42-.24-.48-.66-.44-1.08.25-3.02-1.15-5.85-1-8.85.11-.17.09-.34-.1-.39-.07-.02-.19.19-.29.3-1.72,1.17-1.4,3.15-1.89,4.81-.19-.06-.38-.11-.57-.17-.07-1.07-.12-2.14-.23-3.21-.02-.25-.3-.32-.56-.27-.61.47.17,1.52-.71,1.86-.57-.2-.44-.67-.55-1.04-.31-1.04-.59-2.32-1.78-2.46-1.65-.19-2.41-.81-2.29-2.49.03-.41-.26-.8-.75-.84-.47-.04-.78.3-.96.66-.34.7-.19,1.47-.22,2.21-.07,1.72.32,3.5-.87,5.04-.17.22-.12.64-.12.97.03,2.82.07,5.64.1,8.46,0,.17,0,.35,0,.52-.63,1.94-1.47,3.84-1.14,5.97.06.41-.08.84-.41,1.13-.66.57-.54,1.34-.57,2.08-.02.49.11,1.2-.16,1.43-1.16,1-.76,2.27-.81,3.46-.24,5.64-.11,11.28-.04,16.93,0,.63.36,1.49-.92,2.08,0-1.43.01-2.64,0-3.85-.01-.83.24-1.78-.24-2.44-.87-1.21-.68-2.51-.71-3.82-.04-2.16-.06-4.32-.09-6.48,0-.66.1-1.35-.38-1.91-.73-.84-.61-1.85-.62-2.84-.04-3.9-.07-7.8-.11-11.7,0-.36.01-.71.02-1.07.11-.49.16-1-.11-1.45-1.64-2.72-2.03-5.69-1.81-8.81.08-1.07.02-2.15,0-3.23,0-.57.09-1.19-.33-1.66-.74-.83-.64-1.83-.66-2.82-.03-1.32-.07-2.64-.1-3.97,0-.36,0-.72.01-1.08.03-1.58.03-3.16.1-4.74.06-1.43-.02-2.83-.94-4-1.1-1.41-1.18-3.02-1.08-4.69.02-.41.05-.85-.05-1.24-.24-.93-.76-1.82-1.78-1.8-1.07.03-1.1,1.05-1.16,1.89-.06.82.31,1.8-.28,2.42-.81.85-.68,1.81-.73,2.79-.03.44.17,1.02-.63,1.23-.7-.96-.07-2.22-.65-3.42-1.43.87-2.49,1.9-3.13,3.36-.56,1.26-1.19,1.32-2.08.29-.55-.64-.43-1.39-.52-2.12-.08-.65.39-1.54-.72-1.9-.73,1.36.35,3.11-.83,4.41-.88-.9.12-2.25-1.32-3.2-.35,3.11.68,6.34-1.94,8.6-.59-1.19.59-2.78-.86-3.91-.65,1.2-.03,2.54-.69,3.7-1.07-.7,0-2.28-1.33-2.68-.6.63.06,1.62-.94,2.51,0-2.81-2.56-4.19-2.58-7.08-2.52,2.27-1.39,5.11-1.94,7.45-1.2-.23-.35-1.77-1.72-1.79-.33,3.21.22,6.48-.46,10.15-1.1-1.76-.03-3.52-1.33-4.98-.73,1.99.16,3.92-.63,5.65-.26-.23-.42-.32-.5-.45-.27-.44,0-1.35-.86-1.26-.6.06-.91.68-1.18,1.19-.36.67-.09,1.58-.9,2.16-.26-1.56-.25-3.08-.26-4.61,0-.51-.06-1.09-.76-.97-1.95.34-2.23-.9-2.34-2.35.13-.31.18-.79-.1-.83-.42-.07-.69.32-.7.79-.7.51-1.16,1.09-1.1,2.06.07,1.32.04,2.64-.01,3.96-.01.39.35,1.06-.69,1.09-.15-2.08-1.68-3.86-1.32-6.11.09-.56-.34-.89-.88-1.02-.05-.17-.1-.34-.15-.51.28-1.44-.11-2.72-.71-4.04-.54-1.2.18-2.74-.87-4.34-.45,1.97-1.41,3.29-2.21,4.73-.14-1.44-.21-2.86-.12-4.26.11-1.65-.89-2.7-1.8-3.87q-.4,1.97-1.92,2.72c-.59-.71-.08-1.61-.42-2.36-.34-.6-.41-.6-.75-.03-.32.63.23,1.73-.74,1.92-.95.19-1.36-.78-1.86-1.42-.37-.48-.57-1.04-.51-1.63.14-1.5-.52-2.53-1.76-3.27-2.17,2.47-.78,5.57-1.46,8.49-.85-.41-.9-2.17-2.26-1.23-.11.07-.6-.25-.79-.48-1.01-1.23-2.74-1.59-3.47-3.2-.57.97.09,2.04-.72,2.69-.66-.13-.52-1.2-1.67-.85v7.25c-1.93-2.64-1.2-5.85-3.24-7.94-1.79,1.72-2.95,3.51-2.79,5.85-.93-.02-.82-1.56-1.94-.82-.57.37-.89-.08-.89-.69,0-.67,0-1.33-.02-2-.02-1.15-.66-1.61-2-1.62v6.19c-2.98-.94-2.99-.94-2.98,2,0,.91.07,1.82.11,2.74-.11.13-.15.29-.13.46-.88-.03-.94,1.3-2.02,1.29v-6.03c-.95-.09-1.11.43-1.43,1.09-.87,1.79-.11,3.81-.99,5.56-.41,0-.62-.3-.84-.57,0-1.66.06-3.31.01-4.97-.03-1.06-.26-2.05-1.61-2.38-.1,1.71.33,3.61-.42,4.76-.92,1.42,0,3.17-1.07,4.14-1.33,1.21.21,3.09-1.3,4.26-.7-1.64.32-3.47-.69-4.71-1.1-1.36.03-3.26-1.45-4.72-.38,2.06.13,3.97-.77,5.67-.61-2.41-.22-4.87-.5-7.28.1-.15.08-.3-.09-.35-.04-.01-.14.2-.22.31-1.77.68-1.38,2.64-2.32,4.41-.59-2.98.04-5.45-.41-7.86.06-.28-.12-.4-.34-.42-.25-.02-.39.12-.35.39-.5,2.6.27,5.32-.62,8.47-1.11-2.39.22-4.6-1.3-6.69-.44,2.57-.14,4.77-.23,6.95-.04.91.15,1.97-1.39,1.58-.65-.16-.54.45-.6.79-.18,1.08-.41,2.1-2.12,2.48.65-1.92-.81-3.29-.78-4.86.06-2.81-.67-5.42-1.36-8.07-2.67.58-2.63.59-2.79,3.11-.04.64.41,1.55-.72,1.93-.46-1.57-.01-3.16-.36-4.68.04-.37-.21-.52-.5-.51-.23.01-.31.23-.28.47-.03,2.58-.07,5.15-.1,7.73,0,1.19-.26,2.16-1.75,2.18-.47-.97-.16-1.98-.26-2.96-.07-.66.17-1.56-.17-1.94-1.14-1.23-.89-2.66-.78-4.01.16-1.93-.95-3.46-1.32-5.22-.12-.55-.66-1.15-1.79-1.08v7.48c-.59-.05-.76-.19-.85-.44-.38-1.1-1.17-.71-1.3-.09-.3,1.42-1.18,2.78-.63,4.33,0,.18-.02.35-.02.53-.32,1.38.32,2.93-.39,4.17-.76,1.33-.71,2.67-.72,4.07,0,1.83-.05,3.66,0,5.48.05,1.65-.68,2.96-1.71,4.67-.44-2.68-1.79-3.81-4.37-3.4.82-2.33-1.41-3.53-1.44-5.47,0-.46-.62-.55-1.01-.48-1.32.24-1.55-.47-1.53-1.56,0-.37-.16-.79-.82-.73-.16,1.27.04,2.85-1.31,3.53-1.47.74-2.07,1.71-1.82,3.31.08.48-.21.93-.38,1.4-.89,2.41-2.09,4.78-1.47,7.49,0,.17-.01.35-.02.52-.07,2.44-.13,4.88-.2,7.39-1.17-.07-.59-1.75-1.94-1.48,0,9.51,0,19.06,0,28.61,0,.24-.09.48-.15.72-.02.06-.09.13-.15.16-.07.03-.16.03-.57.08.29-2.64-.49-5.09-1.07-7.58-.06-.24,0-.5-.02-.75-.03-.33,0-.73-.18-.96-1.04-1.31-.72-2.83-.82-4.31-.23-3.17.71-6.45-.9-9.51-.24-.46-.08-1.15-.08-1.73,0-1.83,0-3.66-.01-5.48,0-.57.12-1.41-.19-1.67-1.17-.99-.59-2.33-.9-3.47,0-.36,0-.72.01-1.08.72-2.87-1.16-5.4-1.14-8.22,0-.76-.72-1.73-.85-2.73-.11-.85-.69-1.47-1.72-1.47-.64,1.92.3,4.04-.83,6.11-.72-2.15.15-4.26-1.05-6.54-.52,2.02-.2,3.58-.34,5.11-.13,1.46.43,3.03-.79,4.95-.13-2.81.1-5.19-1.94-7.12-.02,2.15-2.17,2.41-2.87,4.05-.83-1.23.25-2.68-.98-3.64-1.2,3.34-1.79,6.62-1.27,10.03-.05.32-.09.64-.14.95-.58.18-.98.05-.98-.64,0-1.42,0-2.83-.01-4.25,0-.49,0-1.05-.98-.96,0,2.3,0,4.62,0,6.94,0,.92.13,1.9-.44,2.67-.49.67-.6,1.35-.56,2.11.04.96-.32,1.79-.77,2.6-.86,1.53-1.25,3.15-1.24,4.92.03,7.92.02,15.83,0,23.75,0,.77.21,1.6-.19,2.26-.53.04-.67-.19-.68-.42-.07-1.98-.92-3.81-1.35-5.7-.42-1.87-.74-3.68-.76-5.57-.02-2.08,0-4.17-.01-6.25,0-.58.13-1.32-.17-1.7-1.11-1.41-.76-3.01-.82-4.56-.05-1.5.4-3.24-.22-4.43-.85-1.63-.73-3.19-.77-4.82-.05-2.25-.1-4.5-.01-6.75.07-1.68-.73-2.87-1.65-4.22-.46.72-.29,1.33-.4,1.88-.11.56,0,1.24-.58,1.68-.82-1.19.32-2.76-1.36-3.89,0,1.57.08,2.81-.02,4.04-.11,1.21.46,2.58-.96,4.17,0-1.78,0-3.01,0-4.23,0-.74.13-1.53-.38-2.16-.69-.86-.62-1.86-.64-2.86-.02-1.33-.06-2.66-.09-3.99.09-.28-.03-.43-.3-.43-.24,0-.41.14-.41.42-.25.42-.44,1.16-.75,1.22-1.47.28-1.52,1.27-1.45,2.41.02.34.2.84-.37.99-1.05-.4-.17-1.59-.88-2.09-.71-.23-.85.83-1.85.52v-5.54c.07-.32-.14-.45-.39-.48-.29-.03-.43.14-.39.44-.04,2.23-.07,4.46-.11,6.69-.01.56.04,1.04-.71,1.36-2.28.98-2.36,1.22-2.14,3.93l-.02.53c-.04,3.64-.07,7.29-.12,10.93-.01.87.27,2.02-1.34,1.44-.4-.14-.59.21-.61.56-.04.66-.03,1.32-.04,1.99-.04,5.14,0,10.28-.16,15.41-.14,4.4-.15,8.78.26,13.16,0,.17,0,.34-.01.51-.28.85.15,1.8-.39,2.75-1.42-.7-1.71-1.87-1.7-3.28.04-4.24.1-8.48.04-12.72-.03-2.03.35-4.13-.88-6.04-.31-.48-.14-1.3-.15-1.96-.05-3.07-.09-6.14-.14-9.21.06-.3-.13-.42-.37-.45-.26-.02-.42.12-.38.41-.05,1.32-.07,2.64-.15,3.96-.03.57-.12,1.15-.27,1.7-.04.14-.41.27-.61.25-.19-.02-.23-.22-.23-.51.06-6.28.07-12.57.08-18.85,0-1.24.01-2.48,0-3.72,0-.45-.23-.82-.71-.87-.55-.05-1,.21-1.04.8-.07.91-.06,1.82-.08,2.73-.19.02-.37.04-.56.06-.54-.75-.38-1.7-.75-2.5.05-.34-.19-.43-.44-.42-.19,0-.26.18-.2.38-.38.72.14,1.82-.88,2.37-.57-1.34.13-2.75-.59-3.95-.06-.24-.17-.46-.46-.34-.09.04-.1.27-.14.41-.28.77.18,1.75-.91,2.86-.15-2.65-.23-4.85-1.14-6.88-.22-.48.04-1.32-.82-1.26-.67.05-1.22.43-1.24,1.29-.02.84,0,1.74-.7,2.52-.73-1.61.39-3.42-1.29-5.15.06,4.01-.15,7.55.13,11.1-.08.14-.13.3-.14.46-.76.13-1.01-.22-1-.96.02-1.49-.02-2.97-.04-4.46.07-.41.39-1.01-.22-1.11-.52-.08-.63.56-.74,1.01-1.52,2.18-.68,4.75-1.09,7.08-.99.25-.71-1.15-1.61-.97-.51.51-.25,1.21-.26,1.83-.03,2.74-.01,5.49-.02,8.23,0,.99-.31,1.9-.57,2.86-.6,2.18-1.7,4.27-1.47,6.69.16,1.64.43,3.52-.17,4.94-.87,2.02-.71,3.99-.81,6.01-.02.42-.07.84-.76.77-.37-1.94-.1-3.92-.19-5.89-.13-2.84.72-5.79-.92-8.49-.23-.37-.09-.98-.09-1.48,0-1.5.07-3-.02-4.49-.14-2.34.63-4.8-.89-6.99-.24-.34-.07-.97-.09-1.47-.04-1.08-.09-2.15-.13-3.23v-.03c.87-2.45-.87-4.54-.99-6.85-.02-.37-.44-.49-.76-.48-1.07.02-1.13-.66-1.13-1.47,0-.81-.08-1.62-.13-2.44.07-.29-.12-.41-.35-.43-.25-.02-.4.12-.36.4-.07,2.4-.13,4.79-.21,7.18-.02.43.13,1.05-.66,1.02-.68-.92.25-2.3-1.14-3.41-.35,2.42.44,4.91-1.64,6.55-1.47-1.85-1.54-3.99-1.52-6.21.02-2.61.2-5.24-.11-7.82-.73-.13-1.02.31-1.37.64-.14-.09-.3-.14-.46-.16-.18-.66.33-1.52-.52-1.94-1.89.63-1.47,2.18-1.53,3.55-.01.23-.04.5-.41.49-.78-.09-.24-1.34-1.17-1.34-1.09.89-1.5,2.03-1.42,3.46.06,1.06.32,2.24-.19,3.19-1.01,1.88-.85,3.81-.67,5.78l-.02.52c-.32,1.64.37,3.43-.4,4.93-.74,1.44-.69,2.87-.7,4.35-.01,1.83-.03,3.66,0,5.49.04,2.08-.93,3.95-1.4,5.9-.24.99-.58,1.98-.59,3.01-.04,3.25-.02,6.49-.05,9.74,0,.43.25,1.06-.61,1.14-.08-.2-.25-.41-.25-.62-.03-3.3-1.64-6.42-1.11-9.79.05-.29-.08-.71-.28-.92-.83-.91-.68-2.01-.69-3.08-.02-3.91,0-7.83-.02-11.74,0-.66.25-1.48-.64-1.87-.79.89.14,2.19-.93,3.15-.54-.77-.39-1.52-.4-2.2-.02-3,.03-5.99-.03-8.99-.05-2.32.28-4.65-.21-6.96.05-.34-.17-.43-.42-.42-.19,0-.25.18-.19.37-.09,2.02-.18,4.04-.27,6.09-1.79-.3-.97-2.74-2.85-2.94,0,1.54-.01,3.03,0,4.51,0,.54-.24.74-.74.69-.46-1.05.26-2.37-.76-3.28-.53-.71-.55-1.52-.55-2.36,0-1.4-.04-2.8-.06-4.21.13-.31.1-.69-.22-.74-.44-.07-.67.25-.6.71-.26,1.49-.69,2.9-1.89,4.12-.62-1.97.36-3.94-.93-5.93-.6,1.97,0,3.7-.6,5.76-.83-1.96-.93-3.78-2.38-4.94-.69.98-1.36,1.81-1.32,3,.08,2.49.09,4.98.13,7.47,0,.17,0,.34,0,.52-.04,2.41-.07,4.82-.11,7.23-.01.73.2,1.7-.66,1.97-1.58.49-1.33,1.68-1.33,2.82,0,2.49,0,4.99,0,7.48,0,2.91.01,5.82-.02,8.73,0,.6.25,1.55-.71,1.57-.87.02-1.21-.73-1.21-1.58-.01-1.41-.03-2.83-.07-4.24-.02-.74.18-1.53-.33-2.17-.75-.93-.66-2.02-.66-3.1,0-3.41,0-6.82-.03-10.23,0-.68.28-1.54-.74-1.86-.77,1.75.43,3.82-.99,5.89-.44-3.11.19-5.92-1.19-8.45-.21-.39-.03-.98-.05-1.48-.03-.91-.08-1.82-.12-2.73l-.05-.15c.38-4.81.08-9.63.17-14.44,0-.32.01-.75-.17-.96-1.06-1.2-.79-2.65-.81-4.04-.02-1.91,0-3.82-.01-5.73,0-.66.13-1.36-.37-1.91-.69-.75-.54-1.71-.73-2.59-.22-.83-.47-.38-.71-.01-.88.75-1.25,1.67-1.2,2.85.08,1.99.04,3.99,0,5.99,0,.43.25,1.03-.6,1.3-.37-1.24-.72-2.51-1.82-3.34-.87-.66-1.38-.54-1.52.51-.29,2.18-1.47,4.21-1.14,6.51.03.2-.26.39-.59.33-.5-.81-.29-1.73-.3-2.62-.03-3.16,0-6.32-.02-9.49,0-.61.25-1.4-.72-1.61-.43.6-.26,1.28-.26,1.93,0,1.1.14,2.2-1.39,2.45-.6.1-.61.68-.61,1.2,0,1.16.03,2.33-.04,3.49-.04.75.27,1.62-.78,2.22.44-3.75-1.15-7.09-1.73-10.64-.86,2.52-.02,5.21-.82,8.11-.79-1.28-.43-2.25-.66-3.09-.28-1.03,1.02-3.01-1.03-2.92-1.79.08-.7,1.98-.88,3.05-.19,1.07-.09,2.19-.12,3.33-1.31-.29-.49-1.78-1.92-1.87.41,3.73-.64,7.23-1.5,10.98-1.08-1.39.18-3.1-1.25-4.38-.66,2.91.18,5.71-.63,8.66-1.08-1.32.09-3.04-1.4-4.03-.46,1.39.05,2.8-.95,3.94-.82.94.29,2.58-1.02,3.66-.36-1.14-.22-2.15-.26-3.14-.02-.52-.11-1.06-.65-1.23-.69-.21-1.3.05-1.69.68-.18.29.13.87-.52.9-.11-4.1-1.61-8.06-1.24-12.21.07-.32-.13-.45-.38-.47-.28-.03-.43.14-.39.44-.04.49.07,1.06-.14,1.47-1.17,2.29-.98,4.75-1,7.19,0,.31-.12.66-.28.93-.26.43-.63.81-1.19.68-.51-.12-.43-.62-.48-1.01-.14-1.01.26-2.1-.34-3.1-1.87.66-1.69,2.73-2.79,3.73-.93-.54-.5-1.92-1.94-2.55v10.63c-.3,0-.44.19-.51.45-1.09.81.19,2.44-1.16,3.32-.38-.96-.14-1.88-.31-2.73-.16-.82.61-1.98-.84-2.55-.11,3.1-.24,6.06-.32,9.03-.03,1.04-.2,1.97-1.03,2.67-.27.23-.6.39-.9.23-.3-.17-.37-.59-.24-.88,1.01-2.32.26-4.72.31-7.07.03-1.57-.78-.78-1.34-.21-.19.02-.37.03-.56.05-.04-.58-.09-1.15-.13-1.73,0-.36,0-.72,0-1.08.03-.99.09-1.99.08-2.98-.02-1.76-.03-1.76-2.08-1.74v-5.71c.11-.18.09-.37-.11-.4-.19-.03-.28.14-.24.34-.65,1.05-1.29,2.1-1.94,3.15-.19.04-.39.09-.58.13-.02-.99-.02-1.99-.08-2.98-.04-.61-.28-1.16-.99-1.24-.81-.09-.93.5-.97,1.12-.11,1.63-1.5,2.98-1.05,4.73-1.25,1.05-.86,2.54-1.03,3.88-.03.23-.2.46-.67.38-.5-.83-.3-1.84-.22-2.75.15-1.68-1.52-2.42-1.81-3.83-1.61.63-1.15-.6-1.23-1.36-.05-.47.02-1.04-.86-1.08-.33,1.42.29,3.03-.37,4.32-1.08,2.15-.74,4.33-.64,6.54,0,.17,0,.35-.01.52-.4,2.79.31,5.68-.51,8.8-1.07-1.38-.02-2.94-1.48-4.25-.1,4.17-.16,7.93-.28,11.69-.12,3.7.61,7.44-.36,11.11-.57-1.28-.36-2.59-.42-3.89-.04-.82.11-1.68-.37-2.43-.62-.97-.57-2.06-.58-3.14-.02-2-.04-4-.08-5.99-.01-.66.1-1.36-.35-1.93-.73-.93-.65-2.03-.66-3.11,0-1.58-.05-3.17.01-4.74.04-1.15-.05-2.13-1.3-2.64-.89-.37-.7-1.23-.71-1.95-.01-2.75,0-5.49-.01-8.24,0-.66.14-1.5-.2-1.94-.96-1.27-.76-2.67-.79-4.06-.04-2.08-.07-4.16-.11-6.24,0-.36,0-.72.01-1.08.34-2.9-1.61-5.53-1.01-8.46-1.04-.97-.79-2.26-.93-3.48-.14-1.31-.77-2.44-1.65-3.5-.71,1.04.06,2.23-.63,3.14-1.03-.47-.39-1.46-.94-2.07-.5.24-1.04.49-1.52.72-.37-.48-.02-1.21-.89-1.28-.95.89-1.51,2.1-2.13,3.33-.36-.74.09-1.68-.47-2.25-.86-.16-.87.89-1.81.71.87-2.32-1.44-3.44-2.05-5.29-.19-.58-.77-.54-1.28-.49-.42.04-.54.33-.57.68-.23,2.16-1.68,3.74-2.69,5.7-.45-1.05-1.35-1.74-1.45-2.87-.22-.74-.51-.68-.86-.08l-.53.51c-.16-.07-.31-.14-.47-.21-.07-.46.13-1.06-.47-1.28-.35-.13-.61.17-.78.45-.71,1.14-1.15,2.77-3.05,1.5-.09-.06-.43.08-.43.12,0,2.08-2.63.89-3.02,2.45-2.41,1.03-2.43,1.02-3.32,2.74-.22.43-.45.6-.94.55-1.38-.13-1.89-.61-1.98-2.01-.05-.74-.06-1.49-.09-2.23-.23-.95-.54-.47-.85-.05-1.45.15-2.48,1.07-3.55,1.93-.17-.06-.33-.11-.5-.17-.05-.74-.11-1.47-.16-2.21-.34-.58-.41-.59-.73-.04-.04.82-.1,1.65-.13,2.47-.03,1.08.01,2.15-.05,3.23-.04.72-.41,1.33-1.19,1.33-.84,0-.72-.73-.76-1.29-.1-1.2-.42-2.26-1.7-2.85-.11.28-.24.48-.26.7-.13,1.14-.68,1.78-1.88,1.91-1.13.12-1.62-.52-2.09-1.37-.42-.76-.63-1.68-1.39-2.23-1.87,1.69-1.52,4.02-1.89,6.17-1.13-.58-1.46-1.38-1.84-2.23-.59-1.33-1-.59-1.31.23-.22.12-.43.11-.62-.06-.04-.49-.08-.99-.13-1.48.04-.3-.14-.47-.39-.49-.3-.03-.4.17-.36.45-.04,1.16-.04,2.32-.12,3.47-.12,1.67-1.07,2.62-2.64,3.12-.95-1.64.45-3.66-1.07-5.17-.61,1.44.06,2.88-.71,4.71-.74-2.67-2.71-1.92-4.1-2.43-.62.51-.41,1.14-.5,1.69-.06.34-.28.33-.48.35-.73-.23-.12-1.64-1.38-1.43-.11,1.72-.22,3.45.02,5.18-.09.14-.13.3-.12.47-1.03.11-.93-.59-.99-1.28-.08-.89.4-1.96-.6-2.69-.98,1.13.28,2.81-1.18,3.88-.4-1.39-.36-2.67-.18-3.86.37-2.46-.82-3.78-2.96-4.84-.3,4.96.22,9.76-.25,14.53,0,.05-.11.09-.17.12-.31.13-.08-.28-.3.1-.52-.98-.28-1.98-.3-2.93-.07-3.15-.09-6.3-.13-9.44.01-.38-.23-.56-.55-.54-.23.01-.31.26-.28.5-.03,1.7-.07,3.41-.09,5.11,0,.59.04,1.17-.74,1.29-.08-.14-.16-.28-.24-.42,0-3.38,0-6.77-.03-10.15,0-.62.2-1.38-.76-1.6-.44,1.12-.19,2.28-.21,3.42-.02,1.3-.58,2.14-2.08,2.75v-4.86c.08-.25,0-.47-.24-.52-.35-.08-.56.13-.64.47-.99.56-.99-1.05-1.81-.84-.69.78.27,2.12-1.24,3.05,0-1.54.02-2.75-.01-3.96-.02-.54.25-1.3-.46-1.53-.71-.22-1.26.37-1.69.83-.29.32-.32.87-.55,1.61-.35-1.57-.63-2.94-2.26-3.71.3,2.49-.72,4.41-1.79,6.33-.73-1.14.45-2.75-1.02-3.92-.39,1.66-.1,3.15-.25,4.6-.03.3-.22.39-.46.46-.67-.16-.27-1.15-.98-1.29-.77.05-.35,1.33-1.25,1.24-.77-.8.33-2.14-.71-2.83-1.01.22-.05,1.58-1.15,1.67-1.28-1.36-1.5-3.45-3.04-4.66-.75.8.14,2.09-1.02,2.66-.62-1.09-.04-2.24-.48-3.2-.92-.38-1.69.35-2.63.25-.4-.05.02,1.35-.35,2.01-.06.11-.26.15-.39.22-.72-.21-.23-1.51-1.09-1.4-.88.11-.66,1.2-1.13,1.84-.08-.31-.14-.53-.19-.75-.13-.53.23-1.25-.46-1.55-.74-.32-1.25.12-1.66.72-.16.24-.35.57-.8.39-.08-.54-.17-1.11-.25-1.67-.32-.59-.4-.59-.74-.04-.33.5.21,1.4-.69,1.64-.93-.45.21-1.92-1.14-2.15-.59.81,0,1.85-.55,2.61-1.23,1.71-.81,3.87-1.66,5.75-1.04,2.3-1.31,4.89-1.11,7.48.06.75-.27,1.54-.77,2.06-1.29,1.35-1.26,2.97-1.21,4.64.04,1.16,0,2.33,0,3.49,0,.58.08,1.19-.28,1.69-1.09,1.51-1.92,3.13-1.84,5.31-.87-.66-1.04-1.33-1.42-1.84-.33-.44-.67-1.01-1.33-.85-.63.15-.48.78-.56,1.25-.02.1-.21.17-.32.25-.71-1.33.37-3.04-.88-4.53-.7,1.55.01,3.08-.62,4.53-1.08-.85-.27-2.3-1.2-2.8-1.79-.97-1.51-2.56-1.53-4.11,0-.47.12-1.28-.41-1.29-1.82,0-1.5-1.25-1.65-2.36-.13-1-.8-1.74-1.53-2.42-.63.54-.29,1.2-.52,1.68-1.3,2.67-2.05,5.46-1.9,8.46.03.49.11,1.1-.12,1.47-1.39,2.24-.81,4.65-.74,7.01,0,.17,0,.35-.01.52-.4,2.44.28,4.99-.6,7.92-.95-1.9.09-3.7-1.24-5.27-.41,1.15-.26,2.05-.27,2.92-.02,10.08-.01,20.15-.05,30.23,0,.71.43,1.64-.58,2.17-.57-.84-.29-1.68-.34-2.48-.05-.83.23-1.78-.08-2.48-1.36-3.03-.74-6.22-.96-9.34-.03-.5.07-1.04-.25-1.45-.8-1-.73-2.17-.75-3.33-.01-.66.16-1.37-.31-1.93-.78-.92-.68-2.01-.69-3.09,0-3.75-.03-7.5.01-11.24.01-1.06-.1-1.98-1.08-2.59,0-.36-.01-.72-.02-1.08.1-.99.41-2.1-.15-2.92-.78-1.14-.77-2.33-.75-3.56.02-1.25-.15-2.38-.73-3.56-1.15-2.34-1.04-2.39-2.86-.42q-.66-.78-1.36-.54c-.31.25-.61.56-1.05.26-.08-1.24-.84-1.97-1.73-2.66-.58.78.19,1.98-1.27,2.43,0-1.15,0-2.14,0-3.13,0-.93.15-1.92-1.34-1.73-.54.07-.63-.39-.66-.83-.04-.58-.1-1.15-.15-1.73.06-.3-.12-.42-.36-.44-.26-.02-.4.13-.35.41-.13,1.3-.15,2.64-1.5,3.41-.81.46-.59,1.28-.63,2-.07,1.23.19,2.59-.26,3.67-1.32,3.2-2.13,6.43-1.62,9.9,0,.17,0,.34-.01.52-.38,2.48.26,5.03-.34,7.43-.9.05-.74-1.25-1.77-.87,0,.82,0,1.65,0,2.47,0,8.23,0,16.45-.04,24.68,0,.71.42,1.65-.61,2.21-.68-1.4.13-2.97-.66-4.17-.7-1.07-.69-2.18-.71-3.34,0-.58.17-1.35-.13-1.7-1.26-1.45-.82-3.14-.85-4.75-.05-2.66,0-5.32-.02-7.98,0-.73-.02-1.44-.27-2.19-.88-2.58-2-5.11-1.75-7.98.12-1.31-.06-2.65-.1-3.97l-.05-.16c.15-2.19.1-4.24-.53-6.49-.6-2.14-1.26-4.38-1.56-6.65.06-.33-.15-.44-.4-.43-.19,0-.24.19-.17.38-.37.87.11,1.94-.63,3.01-.48-.67-.46-1.24-.52-1.77-.06-.46-.23-.89-.74-.73-1.34.41-1.29-.42-1.27-1.3.02-.71,0-1.42,0-2.14-1.22.12-1.53.07-3.17-.53-.46.5-.02,1.12-.21,1.64-.15.42-.43.71-.89.75-.54.05-.67-.29-.74-.75-.14-.9-.6-.73-1.24-.41-1.98.98-2.84,2.57-2.75,4.73.02.58.03,1.16,0,1.74-.15,2.51.55,5.13-.96,7.49-.18.27.05.8.09,1.22,0,.17,0,.35-.01.52-.04,3.16-.06,6.32-.12,9.48-.02.97.22,1.98-.67,2.79-.54.49-.3,1.26-.31,1.91-.02,1.55,0,3.1,0,4.56-1.21.36-1.21-.8-2.1-1.14v34.15c-1.09-.02-.83-.69-.85-1.08-.05-1.66,0-3.33-.05-4.99-.05-1.54.23-3.12-.74-4.58-.36-.55-.19-1.46-.23-2.2-.11-1.79,0-3.52-.79-5.32-.62-1.41-.17-3.27-.23-4.93-.05-1.63.29-3.29-.8-4.8-.33-.46-.18-1.29-.18-1.95-.01-3.58,0-7.16-.02-10.74,0-.8.17-1.63-.59-2.31-.52-.46-.39-1.24-.4-1.9,0-1.67-.02-3.33,0-5,.02-2.53-1.03-4.83-1.47-7.27-.11-.61-.5-1.2-1.41-1.97-.24,3.51-.07,6.68-.1,9.83-.04,3.33,0,6.66-.01,9.99-.02,3.18.1,6.36-.4,9.53-.86-2.19-.51-4.46-.58-6.69-.07-2.25-.02-4.5-.02-6.74,0-2.33,0-4.66,0-6.99,0-2.25,0-4.49,0-6.74,0-2.3,0-4.6,0-7.13-2.49.6-3.05,2.29-3.26,4.51-1.11-1.03-.68-2.07-.72-2.94-.09-2.28-.05-2.29-2.17-2.85q-.94-.25-1.65-1.83c-.35.73-.24,1.46-.19,2.16.12,1.73-.11,3.32-1.39,4.62-.5.51-.66,1.12-.64,1.82.06,2.08.09,4.16.13,6.23,0,.17,0,.35-.01.52v5.66c-1.46.37-.76-1.44-2.04-1.36v25.25c-1.67-.71-2.07-1.75-2.05-3.06.03-1.75.13-3.5.04-5.24-.11-2.11.02-4.19-.8-6.33-.67-1.75-.18-3.94-.26-5.94-.07-1.78.25-3.54-.79-5.28-.56-.95-.23-2.43-.3-3.67,0-.36.01-.72.02-1.08-1.19-2.01-.88-4.24-.91-6.42-.02-1.49,0-2.97,0-4.46,0-.49.14-1.19-.12-1.44-1.36-1.3-.78-2.92-.86-4.41-.09-1.73-.08-3.46-.11-5.19,0-.36,0-.72.01-1.08.09-1.64.53-3.43-.19-4.88-.64-1.29-.66-2.5-.72-3.81-.08-1.65.39-3.38-.23-4.91-.51-1.26-.72-2.52-.91-3.81.07-.29-.11-.41-.35-.43-.25-.02-.4.12-.36.4-.47,1.75.29,3.65-.53,5.57-.75-.92-.54-1.95-1.24-2.65-.89-.89-1.52-1.95-1.39-3.32.05-.55-.19-1.06-.8-1-1.11.1-1.14-.58-1.23-1.38-.1-.84-.78-.67-1.35-.63-.34-.09-.52.02-.48.39-.24,1.12.12,2.37-.72,3.34-.31.36-.79,1.01-1.16.48-.94-1.35-1.31-.19-1.8.31-.75.75-1.63,1.13-2.67,1.09-1-.04-.42-1.39-1.35-1.6-1.04.77-1.88,1.78-2.73,2.8-.71.84-1.34.76-1.52-.22-.23-1.28-1.06-2.14-1.49-3.06-1.94.25-3.73.44-3.93,2.75-.04.48-.44.65-.9.68-.7.04-.8-.41-.81-.96,0-.46-.2-.93-.69-.8-2,.54-1-1.14-1.37-1.79.13-.32.16-.78-.14-.83-.41-.06-.72.3-.77.76-1.03.69-1.56,1.68-1.59,3.09-.76-.9.04-2.11-1.04-2.62-.86.38.17,1.7-.97,1.94-.52-.45-.19-1.26-.62-1.6-.62-.5-.6-2.83-2.24-.92-.21.25-.43-.05-.56-.25-.54-.87-.6-.52-1.05.18-1.23,1.88-1.17,4.32-2.77,6.02-.45-.74.17-1.68-.48-2.37-.07-.24-.19-.44-.47-.32-.09.04-.09.26-.14.4-.32,1.54.22,3.19-.38,4.75-1-.43-.31-1.81-1.6-1.96-.04.5-.16.98-.09,1.43.65,4-1.17,7.78-1.07,11.73.01.4-.11.87-.34,1.18-.59.8-.61,1.68-.6,2.61.02,1.49.09,2.97-.79,4.34-.32.49-.14,1.29-.2,1.95-.07.68.18,1.43-.32,2.3-.91-1.24-2.32-1.66-2.78-3.06-.09-.28-.51-.55-.83-.33-1.27.85-2.29-.09-3.41-.39-.12-.03-.29.08-.43.13-.52.52.15,1.5-.61,1.91-.89-.25-.3-1.56-1.11-1.51-1.8.11-1.48-1.09-1.53-2.13-.02-.43-.13-.83-.67-.83-.33.22-.32.57-.29.88.19,1.98-.17,3.8-1.45,5.38-.44.54-.58,1.17-.56,1.87.05,2.41.08,4.82.12,7.24,0,.17,0,.35,0,.52-.38,3.01.26,6.09-.46,9.45-1.14-1.45-.15-2.93-.97-4.01-.06-.23-.17-.42-.43-.31-.08.03-.09.24-.12.37ZM903.51,57.9c1-1.75.97-6.24-.15-7.99-.15,3-.09,5.49.15,7.99Z"/>
      <path class="cls-1" d="m91.83,66.97c.06.38-.18.54-.49.52-.23-.02-.32-.24-.29-.48.26-.01.52-.03.78-.04Z"/>
      <path class="cls-1" d="m7.13,156.52c.04-.13.04-.34.12-.37.26-.11.37.08.43.31-.18.02-.37.04-.55.07Z"/>
      <path class="cls-1" d="m291.77,61.03c-.37-.02-.66-.17-.78-.55"/>
      <path class="cls-1" d="m306.33,60.48c0,.18,0,.37,0,.55"/>
      <path class="cls-1" d="m1028.05,150.46c0,.2,0,.4,0,.6"/>
      <path class="cls-1" d="m583.54,77.78c.06-.33.2-.63.57-.62.36,0,.53.29.54.63.01.39,0,.78-.02,1.17-.39-.38-.06-1.41-1.1-1.18Z"/>
      <path class="cls-1" d="m824.25,151.05c-.26,0-.51-.01-.77-.02-.04-.47-.08-1.13.5-1.09.62.05.33.69.27,1.11Z"/>
      <path class="cls-1" d="m412.61,145.54c-.32-.03-.64-.07-.96-.1.11-.45.22-1.09.74-1.01.61.1.29.7.22,1.11Z"/>
      <path class="cls-1" d="m1074.18,62.53c.29-.02.57-.04.86-.06.15.35.09.65-.32.67-.35.02-.56-.23-.54-.61Z"/>
      <path class="cls-1" d="m964.23,64.06c.31-.03.61-.05.92-.08.11.3.22.74-.05.84-.58.2-.71-.35-.87-.76Z"/>
      <path class="cls-1" d="m876.07,150.57c-.22-.02-.44-.03-.66-.05-.02-.34-.22-.86.33-.84.47.02.46.49.33.89Z"/>
      <path class="cls-1" d="m980.12,125.05c-.27-.01-.54-.02-.81-.03-.05-.43,0-.85.55-.73.33.07.38.44.26.77Z"/>
      <path class="cls-1" d="m1089.05,34.54c-.35-.03-.69-.12-.69-.53,0-.4.34-.5.69-.53.14.35.14.71,0,1.06Z"/>
      <path class="cls-1" d="m371.64,141.04c-.27,0-.55-.02-.82-.03-.07-.47.16-.79.6-.71.32.05.35.43.22.74Z"/>
      <path class="cls-1" d="m40.92,109.54c-.3-.02-.61-.04-.91-.07.06-.47.36-.83.77-.76.29.05.26.51.14.83Z"/>
      <path class="cls-1" d="m747.32,118.05c-.31-.03-.62-.06-.92-.09.11-.39.26-.85.75-.72.32.08.3.5.17.81Z"/>
      <path class="cls-1" d="m135.96,138.97c.06.44.03.87-.51.92-.38.03-.52-.31-.55-.66.45.31.74,0,1.05-.26Z"/>
      <path class="cls-1" d="m443.62,74.08c.32-.03.64-.07.96-.1.13.31.13.72-.17.78-.39.07-.71-.24-.79-.68Z"/>
      <path class="cls-1" d="m1057.08,135.04c-.28,0-.56-.02-.84-.03-.07-.39.07-.69.47-.68.41.01.51.33.37.71Z"/>
      <path class="cls-1" d="m776.47,88.01c.27-.01.54-.02.82-.03.13.36.08.69-.35.7-.37,0-.57-.27-.47-.67Z"/>
      <path class="cls-1" d="m482.73,83c.25-.01.5-.02.75-.04.11.36.25.82-.3.86-.51.03-.51-.42-.46-.82Z"/>
      <path class="cls-1" d="m578.43,127.56c-.27-.01-.53-.03-.8-.04.01-.47.28-.85.7-.79.28.04.23.52.1.83Z"/>
      <path class="cls-1" d="m1088.23,52.01c.27-.01.53-.02.8-.03.12.31.12.7-.2.76-.43.07-.67-.25-.6-.72Z"/>
      <path class="cls-1" d="m1136.01,133.05c-.26,0-.52-.01-.78-.02-.05-.4.2-.65.51-.64.45,0,.37.36.26.66Z"/>
      <path class="cls-1" d="m550.69,94.5c.26,0,.53-.01.79-.02.16.26.11.58-.14.61-.31.03-.64-.16-.66-.59Z"/>
      <path class="cls-1" d="m841.49,75.99c.25,0,.51,0,.76-.01.13.23.13.58-.05.62-.43.11-.68-.16-.71-.61Z"/>
      <path class="cls-1" d="m963.33,60.5c.36.05.77-.06,1.07.26-.3.33-.7.2-1.06.26,0-.17,0-.35,0-.52Z"/>
      <path class="cls-1" d="m744.18,87.8c-.06-.23-.16-.46-.16-.69,0-.19.12-.37.18-.56.3.1.25.37.27.59.01.16-.01.32-.02.48-.02.16-.11.22-.27.18Z"/>
      <path class="cls-1" d="m1142,118.54c-.3-.02-.6-.04-.89-.06.04-.47.36-.82.76-.75.3.05.26.5.13.82Z"/>
      <path class="cls-1" d="m531.12,129.86c-.65.36-.95.19-.85-.57.22.27.43.58.85.57Z"/>
      <path class="cls-1" d="m829.25,168.55c-.3-.02-.59-.04-.89-.07.08-.36.3-.58.66-.5.25.06.3.32.22.57Z"/>
      <path class="cls-1" d="m1061.18,79.03c.31.11.5.33.57.65-.84.36-.47-.36-.57-.65Z"/>
      <path class="cls-1" d="m228.44,119.6c-.02.27-.16.46-.43.42-.27-.04-.4-.21-.19-.47.19.16.4.17.62.06Z"/>
      <path class="cls-1" d="m519.43,120.56c-.23-.01-.46-.02-.69-.03-.04-.27.1-.41.35-.39.22.02.4.14.34.42Z"/>
      <path class="cls-1" d="m1169.9,119.06c-.24-.01-.48-.02-.72-.03-.03-.26.09-.43.35-.41.23.02.41.16.37.44Z"/>
      <path class="cls-1" d="m353.62,121.06c-.24,0-.47,0-.71-.01.25-.37.49-.82.71.01Z"/>
      <path class="cls-1" d="m208.76,121.55c-.28-.01-.55-.03-.83-.04-.03-.24.05-.48.28-.5.32-.02.56.16.55.54Z"/>
      <path class="cls-1" d="m401.74,56.53c.29-.02.57-.04.86-.05-.23.62-.26.62-.86.05Z"/>
      <path class="cls-1" d="m506.48,121.56c-.26-.01-.52-.03-.78-.04-.03-.23.05-.45.28-.47.3-.01.54.13.5.51Z"/>
      <path class="cls-1" d="m672.26,122.57c-.22-.01-.44-.03-.66-.04-.06-.2,0-.38.19-.39.26-.01.48.1.47.43Z"/>
      <path class="cls-1" d="m1048.93,122.57c-.21-.01-.42-.03-.63-.04-.06-.19,0-.36.19-.37.25-.01.47.08.43.41Z"/>
      <path class="cls-1" d="m1095.22,57.01c.27-.01.54-.02.81-.03.07.25-.02.46-.25.51-.36.08-.55-.11-.55-.48Z"/>
      <path class="cls-1" d="m636.71,77.47c.22,0,.44,0,.66-.01.1.22.04.45-.18.49-.33.07-.52-.11-.48-.48Z"/>
      <path class="cls-1" d="m227.69,118.06c-.25-.01-.5-.03-.75-.04-.04-.28.06-.48.36-.45.25.03.43.19.39.49Z"/>
      <path class="cls-1" d="m819.48,58.5c.22-.02.44-.03.65-.05.06.27-.09.4-.32.43-.25.03-.36-.13-.34-.38Z"/>
      <path class="cls-1" d="m700.31,126.56c-.25-.01-.5-.02-.76-.04-.04-.29.11-.44.38-.42.24.02.44.15.38.46Z"/>
      <path class="cls-1" d="m203.78,117.05c-.29-.02-.58-.03-.87-.05.07-.34.29-.55.64-.47.24.05.32.28.24.52Z"/>
      <path class="cls-1" d="m1180.13,94.51c.26-.02.51-.03.77-.05.06.38-.17.54-.48.53-.23-.01-.31-.24-.28-.48Z"/>
      <path class="cls-1" d="m955.35,76.5c.16.19.32.39.48.58-.55.23-.57.21-.48-.58Z"/>
      <path class="cls-1" d="m824.47,60.5c.24-.01.48-.03.72-.04.07.3-.1.45-.35.47-.28.03-.4-.16-.37-.43Z"/>
      <path class="cls-1" d="m248.92,94.01c.25-.01.5-.03.75-.04.03.3-.14.46-.4.49-.29.03-.39-.17-.36-.45Z"/>
      <path class="cls-1" d="m826.25,152.05c-.26,0-.53-.01-.79-.02.05-.33.27-.51.58-.46.23.04.29.26.21.48Z"/>
      <path class="cls-1" d="m902.38,30.07c.07-.33.26-.6.62-.5.14.04.21.35.31.53-.3-.18-.61-.14-.92-.03Z"/>
      <path class="cls-1" d="m1177.15,92.01c.25-.01.5-.03.74-.04.02.29-.15.45-.4.48-.29.03-.39-.16-.35-.44Z"/>
      <path class="cls-1" d="m729.54,75c.25-.01.5-.03.74-.04-.22.54-.45.83-.74.04Z"/>
      <path class="cls-1" d="m878.33,27.24c.61-.47.94-.36.94.45-.27-.24-.51-.55-.94-.45Z"/>
      <path class="cls-1" d="m565.42,115.56c-.25-.01-.5-.02-.75-.03.34-.57.41-.57.75.03Z"/>
      <path class="cls-1" d="m248.73,114.05c-.28-.02-.57-.03-.85-.05.31-.42.62-.9.85.05Z"/>
      <path class="cls-1" d="m243.67,113.56c-.24-.01-.48-.02-.73-.04.32-.55.39-.55.73.04Z"/>
      <path class="cls-1" d="m1063.04,128.55c-.28-.02-.56-.03-.85-.05.05-.35.24-.54.59-.45.23.06.32.26.25.5Z"/>
      <path class="cls-1" d="m293.88,75.01c.26-.01.52-.03.78-.04.05.31-.14.47-.4.49-.29.03-.42-.16-.38-.45Z"/>
      <path class="cls-1" d="m885.41,74.5c.27,0,.54-.02.81-.03.08.24,0,.45-.23.49-.33.06-.54-.12-.58-.47Z"/>
      <path class="cls-1" d="m173.74,113.56c-.25-.01-.49-.02-.74-.04.34-.56.42-.55.74.04Z"/>
      <path class="cls-1" d="m973.07,129.56c-.26-.01-.51-.03-.77-.04-.05-.29.07-.48.36-.45.25.03.45.18.4.49Z"/>
      <path class="cls-1" d="m946.37,91c.25,0,.51-.02.76-.03.09.31-.08.46-.35.47-.27.02-.43-.15-.41-.44Z"/>
      <path class="cls-1" d="m1067.01,152.56c-.25-.01-.5-.02-.75-.03.28-.68.53-.61.75.03Z"/>
      <path class="cls-1" d="m746.54,91c.24-.01.48-.02.72-.03-.21.58-.45.7-.72.03Z"/>
      <path class="cls-1" d="m719.2,130.57c-.21-.01-.42-.03-.62-.04-.06-.2,0-.37.2-.38.25-.01.5.07.43.42Z"/>
      <path class="cls-1" d="m129.76,131.56c-.24-.01-.47-.02-.71-.03-.05-.28.09-.43.35-.41.24.02.42.15.36.44Z"/>
      <path class="cls-1" d="m951.14,131.55c-.29-.02-.58-.04-.87-.06.08-.33.28-.52.62-.44.23.05.31.26.24.5Z"/>
      <path class="cls-1" d="m975.08,131.56c-.25-.01-.51-.03-.76-.04-.04-.29.1-.46.38-.43.25.02.44.16.38.47Z"/>
      <path class="cls-1" d="m323.63,132.55c-.26-.01-.52-.02-.78-.04-.04-.3.11-.46.39-.44.25.02.46.16.38.47Z"/>
      <path class="cls-1" d="m43.1,104.51c.23-.02.45-.04.68-.05.06.28-.11.43-.34.46-.27.03-.38-.14-.34-.41Z"/>
      <path class="cls-1" d="m997.37,30.49c.22,0,.45-.02.67-.03.08.27-.07.4-.3.42-.24.01-.38-.13-.37-.39Z"/>
      <path class="cls-1" d="m1082.05,153.05c-.31-.03-.62-.06-.93-.08.11-.34.33-.55.69-.46.25.06.32.29.24.55Z"/>
      <path class="cls-1" d="m264.68,111.56c-.29-.03-.57-.05-.86-.08.35-.6.64-.66.86.08Z"/>
      <path class="cls-1" d="m1043.05,135.05c-.26-.01-.52-.02-.78-.03-.02-.25.04-.53.28-.56.38-.05.56.2.5.59Z"/>
      <path class="cls-1" d="m1161.97,135.05c-.27-.01-.55-.02-.82-.03.02-.29,0-.62.43-.59.39.02.43.31.39.62Z"/>
      <path class="cls-1" d="m1154.96,136.05c-.26-.01-.53-.02-.79-.03-.02-.24.06-.48.3-.51.35-.04.55.16.49.54Z"/>
      <path class="cls-1" d="m1110.94,136.56c-.23-.01-.46-.02-.7-.03.27-.69.49-.52.7.03Z"/>
      <path class="cls-1" d="m692.55,87.51c.24-.02.49-.03.73-.05.06.37-.15.56-.47.54-.22-.01-.29-.26-.26-.49Z"/>
      <path class="cls-1" d="m115.66,137.58c-.19-.02-.38-.03-.57-.05-.07-.19-.02-.37.17-.38.25-.01.47.1.4.43Z"/>
      <path class="cls-1" d="m673.57,87.51c.26-.01.52-.02.79-.04.08.39-.15.55-.48.52-.24-.02-.33-.24-.31-.48Z"/>
      <path class="cls-1" d="m895.16,137.55c-.26-.01-.52-.03-.79-.04-.03-.23.06-.46.29-.47.3-.02.55.12.5.51Z"/>
      <path class="cls-1" d="m1026.01,137.56c-.23-.01-.46-.02-.69-.03-.04-.27.1-.41.35-.39.22.02.4.14.34.42Z"/>
      <path class="cls-1" d="m12.11,81.51c.24-.02.48-.04.72-.05.07.3-.1.47-.36.5-.29.03-.4-.17-.36-.45Z"/>
      <path class="cls-1" d="m898.41,58.5c.26,0,.52-.02.78-.02.1.3-.04.46-.32.47-.26,0-.44-.15-.47-.44Z"/>
      <path class="cls-1" d="m886.23,138.54c-.22-.18-.45-.36-.67-.54.1-.25.3-.45.54-.31.34.2.25.54.12.86Z"/>
      <path class="cls-1" d="m867.43,70.5c.23-.01.47-.03.7-.04.06.28-.11.43-.35.46-.27.03-.39-.14-.35-.41Z"/>
      <path class="cls-1" d="m436.54,138.55c-.26-.01-.52-.02-.78-.04-.04-.3.11-.47.39-.44.25.02.46.16.39.48Z"/>
      <path class="cls-1" d="m799.23,138.56c-.26-.01-.51-.03-.77-.04-.04-.29.1-.46.38-.44.25.02.45.16.39.47Z"/>
      <path class="cls-1" d="m819.2,157.56c-.25-.01-.49-.02-.74-.03.34-.55.41-.55.74.03Z"/>
      <path class="cls-1" d="m69.81,109.56c-.24-.01-.47-.02-.71-.03-.04-.28.11-.42.36-.4.23.02.42.14.35.43Z"/>
      <path class="cls-1" d="m399.54,139.56c-.24-.01-.48-.02-.71-.03-.04-.28.11-.42.36-.4.23.02.42.14.35.43Z"/>
      <path class="cls-1" d="m187.96,96.01c.26-.01.51-.03.77-.04.01.35-.2.55-.51.53-.22-.02-.29-.26-.26-.49Z"/>
      <path class="cls-1" d="m442.55,141.05c-.24,0-.47,0-.71-.01,0-.28.17-.42.41-.42.26,0,.39.16.3.43Z"/>
      <path class="cls-1" d="m671.56,87.51c.26-.01.52-.03.78-.04.08.39-.14.57-.48.54-.24-.02-.33-.25-.3-.5Z"/>
      <path class="cls-1" d="m439.79,69c.24-.01.49-.02.73-.03.05.3-.13.45-.37.47-.28.03-.39-.16-.36-.43Z"/>
      <path class="cls-1" d="m518.69,87.51c.25-.02.51-.03.76-.05.07.38-.16.54-.48.52-.23-.01-.31-.24-.28-.48Z"/>
      <path class="cls-1" d="m377.48,142.58c-.2-.01-.41-.03-.61-.04-.06-.19,0-.36.19-.37.25-.01.48.08.42.42Z"/>
      <path class="cls-1" d="m1122.16,82.46c.19-.3.45-.49.82-.48,0,.62-.41.56-.82.48Z"/>
      <path class="cls-1" d="m768.56,86.49c.25,0,.51,0,.76,0,.09.29-.03.48-.32.48-.26,0-.45-.16-.44-.47Z"/>
      <path class="cls-1" d="m576.7,86.49c.25,0,.51-.01.76-.02.08.24.01.46-.22.51-.35.07-.54-.13-.53-.49Z"/>
      <path class="cls-1" d="m190.99,98c.24-.01.48-.03.72-.04-.21.52-.43.81-.72.04Z"/>
      <path class="cls-1" d="m258.87,100.53c.28-.02.56-.04.84-.05-.25.58-.27.59-.84.05Z"/>
      <path class="cls-1" d="m802.23,145.56c-.26-.01-.52-.03-.79-.04-.04-.24.05-.47.28-.48.3-.01.55.14.51.52Z"/>
      <path class="cls-1" d="m826.43,62.01c.25-.01.51-.03.76-.04.03.37-.2.55-.5.53-.22-.01-.29-.25-.26-.48Z"/>
      <path class="cls-1" d="m1013.28,59.51c.27-.01.54-.02.8-.04.08.26-.01.47-.25.53-.38.1-.56-.11-.55-.49Z"/>
      <path class="cls-1" d="m897.15,146.56c-.25-.01-.5-.02-.75-.04-.04-.29.12-.43.38-.41.24.02.44.14.37.45Z"/>
      <path class="cls-1" d="m1030.02,147.06c-.25-.01-.5-.03-.75-.04-.04-.28.07-.47.36-.44.25.03.43.18.39.48Z"/>
      <path class="cls-1" d="m422.47,147.57c-.21-.01-.42-.03-.63-.04-.06-.19,0-.37.2-.38.25-.01.48.08.44.42Z"/>
      <path class="cls-1" d="m708.36,147.55c-.29-.01-.57-.03-.86-.04.07-.35.3-.54.63-.48.24.05.3.28.23.52Z"/>
      <path class="cls-1" d="m1104.98,149.74c.07.26.14.52.21.78-.42-.03-.85-.03-.99-.56.26-.07.52-.15.78-.22Z"/>
      <path class="cls-1" d="m816.48,59c.25,0,.51-.02.76-.03.1.31-.09.45-.35.47-.27.02-.44-.14-.41-.44Z"/>
      <path class="cls-1" d="m226.84,85.99c-.04-.12-.15-.3-.1-.35.15-.19.37-.24.59-.07-.16.14-.32.28-.48.42Z"/>
      <path class="cls-1" d="m1132.11,84.54c.3-.02.59-.04.89-.07.08.26-.01.46-.25.53-.37.1-.56-.12-.63-.46Z"/>
      <path class="cls-1" d="m675.58,84.5c.24-.01.47-.03.71-.04.07.29-.1.43-.34.45-.26.03-.39-.14-.36-.41Z"/>
      <path class="cls-1" d="m281.93,99c.23-.01.45-.03.68-.04,0,.33-.22.44-.48.43-.2,0-.26-.19-.2-.39Z"/>
      <path class="cls-1" d="m852.46,48.5c.26,0,.51-.01.77-.02.11.29-.02.47-.31.47-.26,0-.45-.16-.46-.45Z"/>
      <path class="cls-1" d="m1083.27,64.5c.25,0,.5-.02.76-.03.1.31-.07.47-.34.48-.27.01-.44-.15-.42-.45Z"/>
      <path class="cls-1" d="m427.53,164.56c-.25-.01-.5-.02-.75-.04-.04-.29.12-.43.38-.41.24.02.43.14.37.45Z"/>
      <path class="cls-1" d="m872.4,63.01c.27-.01.54-.02.81-.03.07.26,0,.49-.25.55-.39.09-.56-.14-.56-.52Z"/>
      <path class="cls-1" d="m469.75,74c.27,0,.53-.02.8-.03.08.24,0,.46-.24.51-.35.08-.55-.12-.56-.48Z"/>
      <path class="cls-1" d="m695.6,76.49l.7-.03c.08.29-.09.43-.33.45-.26.02-.39-.14-.37-.42Z"/>
      <path class="cls-1" d="m976.42,79.48c.24,0,.48,0,.72,0,.09.28-.02.45-.3.44-.25,0-.42-.15-.42-.43Z"/>
      <path class="cls-1" d="m774.29,83.03c-.19-.07-.26-.21-.18-.38.03-.06.12-.1.18-.15,0,.18,0,.35,0,.53Z"/>
      <path class="cls-1" d="m1121.69,132.58c-.09.41-.27.51-.57.16.19-.05.38-.1.57-.16Z"/>
      <path class="cls-1" d="m420.36,145.94c-.2.02-.4.05-.6.07.04-.14.05-.37.14-.41.28-.12.39.1.46.34Z"/>
      <path class="cls-1" d="m718.47,66.89c.24-.45.42-.39.55.07-.18-.02-.37-.05-.55-.07Z"/>
      <path class="cls-1" d="m375.26,68.53c.09-.1.2-.12.32-.06.1.15.08.3-.09.34-.05.01-.15-.18-.23-.28Z"/>
      <path class="cls-1" d="m964.95,142.92c-.21.03-.43.06-.64.1.08-.18.15-.35.23-.53.14.14.27.29.41.43Z"/>
      <path class="cls-1" d="m303.38,142.64c-.12.38-.31.45-.58.13.19-.04.39-.09.58-.13Z"/>
      <path class="cls-1" d="m634.11,141.77c-.29.31-.48.23-.57-.17.19.06.38.11.57.17Z"/>
      <path class="cls-1" d="m1111.69,140.56c-.09.44-.26.54-.56.13.19-.04.37-.09.56-.13Z"/>
      <path class="cls-1" d="m305.67,139.55l-.18.03s-.17-.08-.17-.08c-.04-.2.05-.38.24-.34.19.03.22.22.11.4Z"/>
      <path class="cls-1" d="m397.12,74.14c.12-.13.27-.19.44-.16.03.55-.18.43-.44.16Z"/>
      <path class="cls-1" d="m392.18,137.48c-.22.14-.36.06-.46-.16.17.02.32.07.46.16Z"/>
      <path class="cls-1" d="m636.39,137.05h-.21s-.18-.09-.18-.09c.1-.11.22-.32.29-.3.19.05.21.22.1.39Z"/>
      <path class="cls-1" d="m569.59,84.85c.22-.42.41-.36.57.04-.19-.01-.38-.03-.57-.04Z"/>
      <path class="cls-1" d="m990.72,129.94c-.25.16-.4.07-.5-.18.17.06.33.12.5.18Z"/>
      <path class="cls-1" d="m457.75,74.51c.19.02.38.04.57.07-.06.23-.18.42-.44.31-.08-.04-.09-.25-.13-.38Z"/>
      <path class="cls-1" d="m466.65,74.74c.08-.22.22-.32.46-.2-.15.07-.3.13-.46.2Z"/>
      <path class="cls-1" d="m1147.18,75.51c.2.03.4.06.59.09-.06.24-.2.42-.45.3-.09-.04-.1-.25-.14-.38Z"/>
      <path class="cls-1" d="m295.86,77.51c.2.02.39.04.59.06-.05.25-.16.45-.44.34-.09-.04-.1-.26-.15-.4Z"/>
      <path class="cls-1" d="m522.48,124.05l-.16.04s-.15-.08-.15-.08c.07-.11.18-.32.22-.31.17.05.2.19.09.35Z"/>
      <path class="cls-1" d="m882.38,78.01c.2.03.41.06.61.08-.08.23-.21.42-.48.3-.09-.04-.09-.25-.14-.39Z"/>
      <path class="cls-1" d="m400.74,54.93c.23-.46.4-.4.53.06-.18-.02-.35-.04-.53-.06Z"/>
      <path class="cls-1" d="m582.66,78.51c.15-.03.28,0,.4.1-.24.4-.34.22-.4-.1Z"/>
      <path class="cls-1" d="m244.33,115.93c-.24.16-.39.08-.5-.17.17.06.33.11.5.17Z"/>
      <path class="cls-1" d="m1133.12,79.88c.17-.4.35-.42.55-.02-.18,0-.36.01-.55.02Z"/>
      <path class="cls-1" d="m28.69,112.94c-.2.03-.41.05-.61.08.04-.14.05-.36.14-.4.28-.12.4.09.47.32Z"/>
      <path class="cls-1" d="m308.35,152.73c-.16.36-.35.36-.56.05.19-.02.37-.03.56-.05Z"/>
      <path class="cls-1" d="m319.2,81.12c.13-.12.28-.17.45-.14.11.17.09.35-.1.39-.1.02-.23-.16-.35-.25Z"/>
      <path class="cls-1" d="m263.29,111.98c-.25.13-.39.02-.47-.21.16.07.31.14.47.21Z"/>
      <path class="cls-1" d="m1135.59,81.56c.11-.1.23-.13.38-.09.11.16.09.33-.09.37-.07.02-.19-.18-.29-.28Z"/>
      <path class="cls-1" d="m46.02,99.24c.29-.31.48-.25.58.16-.19-.05-.39-.1-.58-.16Z"/>
      <path class="cls-1" d="m608.14,98.49c.09-.08.18-.08.28-.02.11.17.08.36-.1.37-.17.01-.24-.17-.17-.36Z"/>
      <path class="cls-1" d="m192.97,98.51c.19.02.38.05.56.07-.05.24-.17.42-.43.31-.08-.04-.09-.25-.13-.38Z"/>
      <path class="cls-1" d="m709.32,60.87c-.26.05-.52.1-.78.15,0-.17,0-.35,0-.52.25.12.51.24.76.37,0,0,.01,0,.01,0Z"/>
      <path class="cls-1" d="m254.85,96.37c.09-.34.25-.44.53-.17-.18.06-.35.11-.53.17Z"/>
      <path class="cls-1" d="m552.66,95.51c.2.02.4.05.59.07-.06.24-.18.43-.45.32-.09-.04-.1-.26-.14-.39Z"/>
      <path class="cls-1" d="m188.9,93.82c.21-.39.41-.36.59.03-.2,0-.39-.02-.59-.03Z"/>
      <path class="cls-1" d="m944.36,92c.18.02.37.05.55.07-.07.21-.19.39-.43.28-.08-.03-.09-.23-.13-.35Z"/>
      <path class="cls-1" d="m527.69,92.01c.2.03.4.05.59.08-.07.23-.2.41-.46.3-.08-.04-.09-.25-.13-.38Z"/>
      <path class="cls-1" d="m249.86,89.4c.23-.44.42-.39.55.06-.18-.02-.37-.04-.55-.06Z"/>
      <path class="cls-1" d="m225.93,87.51c.2.02.39.05.59.07-.05.24-.17.46-.45.34-.09-.04-.1-.27-.14-.41Z"/>
      <path class="cls-1" d="m62.56,106.12c-.16.13-.32.26-.48.39-.03-.37.14-.49.48-.39Z"/>
      <path class="cls-1" d="m279.89,102.01c.2.03.4.06.6.08-.08.23-.21.41-.47.3-.09-.04-.09-.25-.14-.38Z"/>
      <path class="cls-1" d="m967.34,65.5c.19.03.38.06.57.08-.06.23-.19.41-.44.29-.08-.04-.09-.24-.13-.37Z"/>
      <path class="cls-1" d="m1180.54,127.84c.16-.13.25-.27.35-.29.28-.04.6-.13.77.23-.14.06-.27.18-.41.18-.22,0-.44-.07-.72-.13Z"/>
      <path class="cls-1" d="m1102.92,150.96c-.12-.07-.24-.14-.36-.21.13-.06.26-.17.38-.17.12,0,.24.13.36.2-.13.06-.25.12-.38.18Z"/>
      <path class="cls-1" d="m637.07,149.01c.06-.21.11-.43.17-.64.45.35.04.47-.17.65h0Z"/>
    </g>
  </g>
</svg>