<?xml version="1.0" encoding="UTF-8"?>
<svg id="Layer_2" data-name="Layer 2" xmlns="http://www.w3.org/2000/svg" viewBox="0 0 36.71 41.67">
  <defs>
    <style>
      .cls-1 {
        fill: #fff;
      }

      .cls-2 {
        fill: #0a0a0a;
      }
    </style>
  </defs>
  <g id="Layer_3" data-name="Layer 3">
    <g>
      <g>
        <path class="cls-1" d="m15.89,34.83l-.06-.1L4.61,15.29h22.57l-11.29,19.54ZM4.84,15.43l11.05,19.13,11.05-19.13H4.84Z"/>
        <path class="cls-1" d="m35.19,31.76l-8.21-16.42.06-.03,8.57-4.68v.12s-.42,21.02-.42,21.02Zm-8.03-16.37l7.91,15.82.4-20.36-8.31,4.54Z"/>
        <path class="cls-1" d="m19.48,40.59l-3.7-5.95,19.7-3.29-16,9.24Zm-3.48-5.85l3.52,5.67,15.25-8.8-18.77,3.13Z"/>
        <polygon class="cls-1" points="19.47 40.56 .64 31.09 15.91 34.63 15.88 34.76 1.7 31.47 19.53 40.44 19.47 40.56"/>
        <polygon class="cls-1" points="4.66 15.39 2.57 11.24 2.61 11.2 17.52 1.09 17.55 1.11 35.57 10.68 35.51 10.8 17.53 1.25 2.74 11.28 4.78 15.33 4.66 15.39"/>
        <polygon class="cls-1" points="1.24 31.29 1.1 31.27 2.58 11.26 2.72 11.27 1.31 30.37 4.66 15.33 4.67 15.31 17.53 1.06 27.12 15.32 27.01 15.4 17.52 1.28 4.79 15.39 1.24 31.29"/>
      </g>
      <g>
        <circle class="cls-1" cx="19.5" cy="40.5" r="1.14"/>
        <path class="cls-2" d="m19.5,41.67c-.65,0-1.17-.53-1.17-1.17s.53-1.17,1.17-1.17,1.17.53,1.17,1.17-.53,1.17-1.17,1.17Zm0-2.28c-.61,0-1.1.5-1.1,1.1s.5,1.1,1.1,1.1,1.1-.5,1.1-1.1-.5-1.1-1.1-1.1Z"/>
      </g>
      <g>
        <circle class="cls-1" cx="35.13" cy="31.48" r="1.14"/>
        <path class="cls-2" d="m35.13,32.65c-.65,0-1.17-.53-1.17-1.17s.53-1.17,1.17-1.17,1.17.53,1.17,1.17-.53,1.17-1.17,1.17Zm0-2.28c-.61,0-1.1.5-1.1,1.1s.5,1.1,1.1,1.1,1.1-.5,1.1-1.1-.5-1.1-1.1-1.1Z"/>
      </g>
      <g>
        <circle class="cls-1" cx="15.89" cy="34.69" r="1.14"/>
        <path class="cls-2" d="m15.89,35.87c-.65,0-1.17-.53-1.17-1.17s.53-1.17,1.17-1.17,1.17.53,1.17,1.17-.53,1.17-1.17,1.17Zm0-2.28c-.61,0-1.1.5-1.1,1.1s.5,1.1,1.1,1.1,1.1-.5,1.1-1.1-.5-1.1-1.1-1.1Z"/>
      </g>
      <g>
        <circle class="cls-1" cx="1.17" cy="31.28" r="1.14"/>
        <path class="cls-2" d="m1.17,32.45c-.65,0-1.17-.53-1.17-1.17s.53-1.17,1.17-1.17,1.17.53,1.17,1.17-.53,1.17-1.17,1.17Zm0-2.28c-.61,0-1.1.5-1.1,1.1s.5,1.1,1.1,1.1,1.1-.5,1.1-1.1-.5-1.1-1.1-1.1Z"/>
      </g>
      <g>
        <circle class="cls-1" cx="4.72" cy="15.36" r="1.14"/>
        <path class="cls-2" d="m4.72,16.53c-.65,0-1.17-.53-1.17-1.17s.53-1.17,1.17-1.17,1.17.53,1.17,1.17-.53,1.17-1.17,1.17Zm0-2.28c-.61,0-1.1.5-1.1,1.1s.5,1.1,1.1,1.1,1.1-.5,1.1-1.1-.5-1.1-1.1-1.1Z"/>
      </g>
      <g>
        <circle class="cls-1" cx="27.07" cy="15.36" r="1.14"/>
        <path class="cls-2" d="m27.07,16.53c-.65,0-1.17-.53-1.17-1.17s.53-1.17,1.17-1.17,1.17.53,1.17,1.17-.53,1.17-1.17,1.17Zm0-2.28c-.61,0-1.1.5-1.1,1.1s.5,1.1,1.1,1.1,1.1-.5,1.1-1.1-.5-1.1-1.1-1.1Z"/>
      </g>
      <g>
        <circle class="cls-1" cx="35.54" cy="10.74" r="1.14"/>
        <path class="cls-2" d="m35.54,11.91c-.65,0-1.17-.53-1.17-1.17s.53-1.17,1.17-1.17,1.17.53,1.17,1.17-.53,1.17-1.17,1.17Zm0-2.28c-.61,0-1.1.5-1.1,1.1s.5,1.1,1.1,1.1,1.1-.5,1.1-1.1-.5-1.1-1.1-1.1Z"/>
      </g>
      <g>
        <circle class="cls-1" cx="17.59" cy="1.17" r="1.14"/>
        <path class="cls-2" d="m17.59,2.34c-.65,0-1.17-.53-1.17-1.17s.53-1.17,1.17-1.17,1.17.53,1.17,1.17-.53,1.17-1.17,1.17Zm0-2.28c-.61,0-1.1.5-1.1,1.1s.5,1.1,1.1,1.1,1.1-.5,1.1-1.1-.5-1.1-1.1-1.1Z"/>
      </g>
      <g>
        <circle class="cls-1" cx="2.65" cy="11.38" r="1.14"/>
        <path class="cls-2" d="m2.65,12.55c-.65,0-1.17-.53-1.17-1.17s.53-1.17,1.17-1.17,1.17.53,1.17,1.17-.53,1.17-1.17,1.17Zm0-2.28c-.61,0-1.1.5-1.1,1.1s.5,1.1,1.1,1.1,1.1-.5,1.1-1.1-.5-1.1-1.1-1.1Z"/>
      </g>
    </g>
  </g>
</svg>