<?xml version="1.0" encoding="UTF-8"?>
<svg id="Layer_2" data-name="Layer 2" xmlns="http://www.w3.org/2000/svg" viewBox="0 0 227.72 69.48">
  <defs>
    <style>
      .cls-1 {
        fill: #fff;
      }

      .cls-2 {
        fill: #0a0a0a;
      }
    </style>
  </defs>
  <g id="Layer_1-2" data-name="Layer 1">
    <g>
      <g>
        <g>
          <path class="cls-1" d="m26.5,58.07l-.1-.17L7.68,25.5h37.64l-18.82,32.57ZM8.07,25.72l18.43,31.9,18.43-31.9H8.07Z"/>
          <path class="cls-1" d="m58.67,52.95l-13.69-27.39.09-.05,14.29-7.8v.19s-.7,35.04-.7,35.04Zm-13.4-27.29l13.19,26.38.67-33.95-13.86,7.56Z"/>
          <path class="cls-1" d="m32.48,67.68l-6.16-9.92,32.84-5.48-26.68,15.4Zm-5.8-9.75l5.87,9.45,25.42-14.67-31.3,5.23Z"/>
          <polygon class="cls-1" points="32.47 67.63 1.07 51.83 26.53 57.74 26.48 57.96 2.84 52.47 32.57 67.43 32.47 67.63"/>
          <polygon class="cls-1" points="7.78 25.66 4.28 18.74 4.36 18.68 29.21 1.82 29.27 1.85 59.31 17.8 59.2 18 29.22 2.08 4.56 18.81 7.98 25.56 7.78 25.66"/>
          <polygon class="cls-1" points="2.06 52.18 1.84 52.14 4.31 18.77 4.53 18.78 2.18 50.64 7.77 25.56 7.79 25.53 29.23 1.77 45.22 25.55 45.03 25.67 29.2 2.13 7.98 25.66 2.06 52.18"/>
        </g>
        <g>
          <circle class="cls-1" cx="32.52" cy="67.53" r="1.9"/>
          <path class="cls-2" d="m32.52,69.48c-1.08,0-1.95-.88-1.95-1.95s.88-1.95,1.95-1.95,1.95.88,1.95,1.95-.88,1.95-1.95,1.95Zm0-3.79c-1.02,0-1.84.83-1.84,1.84s.83,1.84,1.84,1.84,1.84-.83,1.84-1.84-.83-1.84-1.84-1.84Z"/>
        </g>
        <g>
          <circle class="cls-1" cx="58.57" cy="52.49" r="1.9"/>
          <path class="cls-2" d="m58.57,54.45c-1.08,0-1.95-.88-1.95-1.95s.88-1.95,1.95-1.95,1.95.88,1.95,1.95-.88,1.95-1.95,1.95Zm0-3.79c-1.02,0-1.84.83-1.84,1.84s.83,1.84,1.84,1.84,1.84-.83,1.84-1.84-.83-1.84-1.84-1.84Z"/>
        </g>
        <g>
          <circle class="cls-1" cx="26.5" cy="57.85" r="1.9"/>
          <path class="cls-2" d="m26.5,59.8c-1.08,0-1.95-.88-1.95-1.95s.88-1.95,1.95-1.95,1.95.88,1.95,1.95-.88,1.95-1.95,1.95Zm0-3.79c-1.02,0-1.84.83-1.84,1.84s.83,1.84,1.84,1.84,1.84-.83,1.84-1.84-.83-1.84-1.84-1.84Z"/>
        </g>
        <g>
          <circle class="cls-1" cx="1.95" cy="52.15" r="1.9"/>
          <path class="cls-2" d="m1.95,54.1c-1.08,0-1.95-.88-1.95-1.95s.88-1.95,1.95-1.95,1.95.88,1.95,1.95-.88,1.95-1.95,1.95Zm0-3.79c-1.02,0-1.84.83-1.84,1.84s.83,1.84,1.84,1.84,1.84-.83,1.84-1.84-.83-1.84-1.84-1.84Z"/>
        </g>
        <g>
          <circle class="cls-1" cx="7.88" cy="25.61" r="1.9"/>
          <path class="cls-2" d="m7.88,27.56c-1.08,0-1.95-.88-1.95-1.95s.88-1.95,1.95-1.95,1.95.88,1.95,1.95-.88,1.95-1.95,1.95Zm0-3.79c-1.02,0-1.84.83-1.84,1.84s.83,1.84,1.84,1.84,1.84-.83,1.84-1.84-.83-1.84-1.84-1.84Z"/>
        </g>
        <g>
          <circle class="cls-1" cx="45.13" cy="25.61" r="1.9"/>
          <path class="cls-2" d="m45.13,27.56c-1.08,0-1.95-.88-1.95-1.95s.88-1.95,1.95-1.95,1.95.88,1.95,1.95-.88,1.95-1.95,1.95Zm0-3.79c-1.02,0-1.84.83-1.84,1.84s.83,1.84,1.84,1.84,1.84-.83,1.84-1.84-.83-1.84-1.84-1.84Z"/>
        </g>
        <g>
          <circle class="cls-1" cx="59.25" cy="17.9" r="1.9"/>
          <path class="cls-2" d="m59.25,19.85c-1.08,0-1.95-.88-1.95-1.95s.88-1.95,1.95-1.95,1.95.88,1.95,1.95-.88,1.95-1.95,1.95Zm0-3.79c-1.02,0-1.84.83-1.84,1.84s.83,1.84,1.84,1.84,1.84-.83,1.84-1.84-.83-1.84-1.84-1.84Z"/>
        </g>
        <g>
          <circle class="cls-1" cx="29.33" cy="1.95" r="1.9"/>
          <path class="cls-2" d="m29.33,3.91c-1.08,0-1.95-.88-1.95-1.95s.88-1.95,1.95-1.95,1.95.88,1.95,1.95-.88,1.95-1.95,1.95Zm0-3.79c-1.02,0-1.84.83-1.84,1.84s.83,1.84,1.84,1.84,1.84-.83,1.84-1.84-.83-1.84-1.84-1.84Z"/>
        </g>
        <g>
          <circle class="cls-1" cx="4.42" cy="18.97" r="1.9"/>
          <path class="cls-2" d="m4.42,20.92c-1.08,0-1.95-.88-1.95-1.95s.88-1.95,1.95-1.95,1.95.88,1.95,1.95-.88,1.95-1.95,1.95Zm0-3.79c-1.02,0-1.84.83-1.84,1.84s.83,1.84,1.84,1.84,1.84-.83,1.84-1.84-.83-1.84-1.84-1.84Z"/>
        </g>
      </g>
      <g>
        <path class="cls-1" d="m83.56,24.75v19.99h2.61v1.16h-3.91v-22.32h3.91v1.16h-2.61Z"/>
        <path class="cls-1" d="m102.32,29.99c.34.04.63.1.86.17l-.18,1.31c-.31-.07-.62-.12-.94-.16-.32-.04-.64-.06-.97-.06-.57,0-1.11.07-1.61.2-.5.13-.95.34-1.35.62-.38.27-.72.61-1,1.02-.28.41-.5.89-.65,1.45l.02,7.83h-1.4v-12.22h1.29l.08,1.88v.54c.49-.84,1.13-1.49,1.95-1.95s1.78-.7,2.89-.69c.33,0,.67.02,1.01.06Z"/>
        <path class="cls-1" d="m110,42.13c-.7-.32-1.3-.75-1.8-1.29-.5-.55-.9-1.19-1.17-1.92-.28-.73-.42-1.5-.42-2.32v-.49c0-.87.14-1.69.42-2.44.28-.75.67-1.41,1.17-1.96.49-.56,1.06-.99,1.72-1.31s1.37-.47,2.14-.47,1.52.15,2.15.43c.63.29,1.16.69,1.59,1.19.42.51.74,1.11.97,1.79.22.68.33,1.41.33,2.19v.83h-9.15v.37c.03.65.15,1.25.37,1.81.21.56.51,1.05.89,1.47.38.44.84.79,1.38,1.05.53.26,1.13.39,1.78.39.75,0,1.43-.14,2.04-.43s1.13-.7,1.57-1.24l.86.65c-.47.65-1.08,1.17-1.85,1.57-.77.4-1.66.6-2.68.6-.84,0-1.62-.16-2.32-.47Zm.55-10.73c-.46.21-.86.49-1.21.85-.35.37-.64.8-.87,1.3-.23.5-.38,1.04-.45,1.63h7.74v-.12c0-.49-.09-.98-.26-1.47-.18-.49-.42-.92-.73-1.29-.32-.37-.7-.67-1.15-.89-.45-.22-.97-.33-1.55-.33-.55,0-1.05.1-1.51.31Z"/>
        <path class="cls-1" d="m127.57,23.58v22.32h-3.91v-1.16h2.61v-19.99h-2.61v-1.16h3.91Z"/>
        <path class="cls-1" d="m141.12,41.25c.41-.13.78-.33,1.1-.58.32-.24.57-.54.77-.89.2-.35.31-.75.35-1.19h1.29c-.03.58-.18,1.11-.45,1.6-.27.49-.62.91-1.05,1.26-.44.35-.94.63-1.51.84-.57.2-1.16.3-1.78.3-.9,0-1.68-.17-2.34-.51-.66-.34-1.22-.79-1.66-1.37-.44-.56-.78-1.2-.99-1.94-.22-.73-.33-1.5-.34-2.29v-.47c0-.79.12-1.55.34-2.29.22-.73.55-1.39.99-1.96.44-.56.99-1,1.65-1.34.66-.34,1.44-.51,2.34-.51.68,0,1.3.11,1.88.32.58.21,1.08.51,1.51.9.42.38.76.84,1,1.38.25.54.38,1.12.41,1.74h-1.29c-.03-.46-.14-.88-.32-1.27-.18-.39-.43-.73-.74-1.01-.32-.28-.68-.5-1.1-.66s-.87-.24-1.35-.24c-.71,0-1.32.14-1.82.43s-.9.66-1.22,1.12c-.32.47-.56,1.01-.7,1.59-.14.59-.22,1.19-.23,1.8v.47c0,.62.08,1.22.23,1.81.14.59.38,1.11.7,1.58.31.47.71.84,1.21,1.13s1.11.43,1.84.43c.44,0,.87-.07,1.28-.2Z"/>
        <path class="cls-1" d="m148.43,33.73c.25-.75.61-1.4,1.07-1.97.47-.56,1.04-1,1.71-1.33s1.43-.5,2.29-.5,1.62.16,2.3.49c.67.33,1.24.77,1.71,1.34.47.56.82,1.21,1.07,1.95.25.75.37,1.54.37,2.37v.36c0,.84-.12,1.62-.37,2.37-.25.74-.6,1.39-1.06,1.96-.47.56-1.04,1-1.71,1.33-.67.33-1.44.5-2.29.5s-1.63-.16-2.3-.49c-.68-.33-1.25-.77-1.71-1.34-.47-.56-.84-1.21-1.08-1.95-.25-.75-.37-1.54-.37-2.37v-.36c0-.83.12-1.62.37-2.36Zm1.25,4.6c.18.6.44,1.14.8,1.6.34.46.76.83,1.28,1.11.51.28,1.1.42,1.77.42s1.25-.14,1.75-.42c.5-.28.93-.65,1.29-1.12.34-.46.6-.99.77-1.59.18-.6.27-1.23.28-1.88v-.36c0-.64-.1-1.26-.28-1.86-.18-.6-.44-1.13-.78-1.59-.35-.47-.79-.84-1.29-1.12-.51-.28-1.09-.42-1.76-.42s-1.25.14-1.76.42c-.51.28-.93.65-1.27,1.12-.35.46-.62.99-.8,1.59-.18.6-.27,1.22-.28,1.86v.36c0,.65.1,1.27.28,1.88Z"/>
        <path class="cls-1" d="m162.63,30.16h1.25l.07,2.37c.19-.35.41-.68.67-.98.26-.3.54-.56.86-.78.38-.26.79-.47,1.23-.62.44-.15.92-.22,1.42-.22.67,0,1.26.1,1.78.3.52.2.95.5,1.3.89.35.39.61.88.79,1.45.18.58.27,1.23.27,1.96v7.84s-1.34,0-1.34,0v-7.82c0-.56-.07-1.05-.2-1.48-.12-.43-.31-.79-.57-1.08-.26-.29-.59-.52-.98-.67-.39-.15-.85-.22-1.38-.21-.47,0-.91.08-1.32.24-.41.16-.79.38-1.13.65-.31.26-.58.56-.82.9-.24.35-.42.72-.55,1.12v8.35h-1.36v-12.22Z"/>
        <path class="cls-1" d="m176.51,30.16h1.25l.07,2.37c.19-.35.41-.68.67-.98.26-.3.54-.56.86-.78.38-.26.79-.47,1.23-.62.44-.15.92-.22,1.42-.22.67,0,1.26.1,1.78.3.52.2.95.5,1.3.89.35.39.61.88.79,1.45.18.58.27,1.23.27,1.96v7.84s-1.34,0-1.34,0v-7.82c0-.56-.07-1.05-.2-1.48-.12-.43-.31-.79-.57-1.08-.26-.29-.59-.52-.98-.67-.39-.15-.85-.22-1.38-.21-.47,0-.91.08-1.32.24-.41.16-.79.38-1.13.65-.31.26-.58.56-.82.9-.24.35-.42.72-.55,1.12v8.35h-1.36v-12.22Z"/>
        <path class="cls-1" d="m193.3,42.13c-.7-.32-1.3-.75-1.8-1.29-.5-.55-.9-1.19-1.17-1.92-.28-.73-.42-1.5-.42-2.32v-.49c0-.87.14-1.69.42-2.44.28-.75.67-1.41,1.17-1.96.49-.56,1.06-.99,1.72-1.31s1.37-.47,2.14-.47,1.52.15,2.15.43c.63.29,1.16.69,1.59,1.19.42.51.74,1.11.97,1.79.22.68.33,1.41.33,2.19v.83h-9.15v.37c.03.65.15,1.25.37,1.81.21.56.51,1.05.89,1.47.38.44.84.79,1.38,1.05.53.26,1.13.39,1.78.39.75,0,1.43-.14,2.04-.43s1.13-.7,1.57-1.24l.86.65c-.47.65-1.08,1.17-1.85,1.57-.77.4-1.66.6-2.68.6-.84,0-1.62-.16-2.32-.47Zm.55-10.73c-.46.21-.86.49-1.21.85-.35.37-.64.8-.87,1.3-.23.5-.38,1.04-.45,1.63h7.74v-.12c0-.49-.09-.98-.26-1.47-.18-.49-.42-.92-.73-1.29-.32-.37-.7-.67-1.15-.89-.45-.22-.97-.33-1.55-.33-.55,0-1.05.1-1.51.31Z"/>
        <path class="cls-1" d="m210.53,41.25c.41-.13.78-.33,1.1-.58.32-.24.57-.54.77-.89.2-.35.31-.75.35-1.19h1.29c-.03.58-.18,1.11-.45,1.6-.27.49-.62.91-1.05,1.26-.44.35-.94.63-1.51.84-.57.2-1.16.3-1.78.3-.9,0-1.68-.17-2.34-.51-.66-.34-1.22-.79-1.66-1.37-.44-.56-.78-1.2-.99-1.94-.22-.73-.33-1.5-.34-2.29v-.47c0-.79.12-1.55.34-2.29.22-.73.55-1.39.99-1.96.44-.56.99-1,1.65-1.34.66-.34,1.44-.51,2.34-.51.68,0,1.3.11,1.88.32.58.21,1.08.51,1.51.9.42.38.76.84,1,1.38.25.54.38,1.12.41,1.74h-1.29c-.03-.46-.14-.88-.32-1.27-.18-.39-.43-.73-.74-1.01-.32-.28-.68-.5-1.1-.66s-.87-.24-1.35-.24c-.71,0-1.32.14-1.82.43s-.9.66-1.22,1.12c-.32.47-.56,1.01-.7,1.59-.14.59-.22,1.19-.23,1.8v.47c0,.62.08,1.22.23,1.81.14.59.38,1.11.7,1.58.31.47.71.84,1.21,1.13s1.11.43,1.84.43c.44,0,.87-.07,1.28-.2Z"/>
        <path class="cls-1" d="m222.67,30.16h4.53v1.12h-4.53v7.66c0,.47.08.87.22,1.18s.33.56.57.75c.24.2.52.33.84.42s.67.12,1.03.12c.22,0,.44,0,.65-.02.22-.01.43-.04.64-.07.17-.02.32-.05.47-.07.15-.03.28-.05.39-.06l.21,1.03c-.14.06-.3.12-.48.16-.18.05-.36.09-.56.12-.25.04-.51.07-.77.08-.27.02-.53.03-.8.03-.54,0-1.04-.07-1.51-.2s-.86-.34-1.2-.64c-.34-.29-.6-.67-.8-1.13-.19-.46-.29-1.03-.3-1.7v-7.66h-3.4v-1.12h3.4v-3.13h1.38v3.13Z"/>
      </g>
    </g>
  </g>
</svg>