<?xml version="1.0" encoding="UTF-8"?>
<svg id="Layer_2" data-name="Layer 2" xmlns="http://www.w3.org/2000/svg" viewBox="0 0 312.11 569.59">
  <defs>
    <style>
      .cls-1 {
        fill: none;
        stroke: #fff;
        stroke-miterlimit: 10;
        stroke-width: 2px;
      }
    </style>
  </defs>
  <g id="Camada_2" data-name="Camada 2">
    <g>
      <polyline class="cls-1" points="122.35 347 19.11 347 19.11 36.84 293 36.84 293 347 127.01 347"/>
      <rect class="cls-1" x="1" y="1" width="310.11" height="554.43"/>
      <polyline class="cls-1" points="122.35 337 29.11 337 29.11 46.84 283 46.84 283 337 127.01 337"/>
      <polygon class="cls-1" points="296.11 568.59 283.55 568.59 282.55 555.52 297.11 555.52 296.11 568.59"/>
      <polygon class="cls-1" points="138.08 359.86 138.08 364.59 111.27 364.59 111.27 359.86 113.62 359.86 113.62 355.59 135.73 355.59 135.73 359.86 138.08 359.86"/>
      <g>
        <rect class="cls-1" x="132.06" y="46.84" width="52.37" height="10.79"/>
        <line class="cls-1" x1="158.24" y1="57.63" x2="158.24" y2="71.38"/>
        <rect class="cls-1" x="149.03" y="71.38" width="17.81" height="12.13"/>
        <polygon class="cls-1" points="179.43 95.82 137.27 95.82 142.27 83.68 174.42 83.68 179.43 95.82"/>
        <rect class="cls-1" x="139.03" y="95.82" width="3.53" height="12.1"/>
        <rect class="cls-1" x="174.66" y="95.82" width="3.53" height="12.1"/>
        <polygon class="cls-1" points="133.84 108.02 182.64 108.02 176.84 113.23 139.64 113.23 133.84 108.02"/>
        <polygon class="cls-1" points="140.03 113.62 144.24 113.62 134.56 127.9 143.8 146.89 141.07 148.82 130.29 127.84 140.03 113.62"/>
        <polygon class="cls-1" points="156.49 113.36 159.44 113.36 160.64 126.87 159.44 142.39 156.5 142.39 155.24 126.57 156.49 113.36"/>
        <polygon class="cls-1" points="176.66 113.62 172.45 113.62 182.13 127.9 172.89 146.89 175.62 148.82 186.4 127.84 176.66 113.62"/>
      </g>
      <g>
        <g>
          <rect class="cls-1" x="241.34" y="390.09" width="32.56" height="52.58"/>
          <rect class="cls-1" x="254.29" y="415.91" width="6.66" height="16.01"/>
          <g>
            <circle class="cls-1" cx="257.62" cy="401.94" r="5.45"/>
            <rect class="cls-1" x="257.03" y="398.28" width="1.17" height="7.33"/>
          </g>
          <rect class="cls-1" x="257.03" y="420.7" width="1.17" height="10.9"/>
          <path class="cls-1" d="m252.91,431.92c0,2.54,2.11,4.61,4.7,4.61s4.7-2.06,4.7-4.61h-9.41Z"/>
        </g>
        <rect class="cls-1" x="237.49" y="386.8" width="40.18" height="75.78"/>
        <g>
          <path class="cls-1" d="m258.36,452.19l.81,4.61h-3.11l.8-4.61c-.56-.28-.94-.85-.94-1.51,0-.94.76-1.7,1.69-1.7s1.7.76,1.7,1.7c0,.66-.39,1.24-.95,1.51Z"/>
          <circle class="cls-1" cx="257.62" cy="452.89" r="6.07"/>
        </g>
      </g>
      <g>
        <rect class="cls-1" x="32.56" y="420.06" width="32.56" height="50.16"/>
        <rect class="cls-1" x="29.11" y="414.75" width="39.46" height="60.78"/>
      </g>
      <polygon class="cls-1" points="65.12 420.06 65.12 468.06 62.03 468.06 61.5 442.67 60.74 442.67 60.21 468.06 57.11 468.06 56.58 442.67 55.82 442.67 55.29 468.06 52.2 468.06 51.67 442.67 50.91 442.67 50.38 468.06 47.29 468.06 46.76 442.67 46 442.67 45.47 468.06 42.38 468.06 41.85 442.67 41.09 442.67 40.56 468.06 37.47 468.06 36.94 442.67 36.18 442.67 35.65 468.06 32.56 468.06 32.56 420.06 65.12 420.06"/>
      <g>
        <polygon class="cls-1" points="216.12 388.26 92.2 388.26 85.2 364.59 223.12 364.59 216.12 388.26"/>
        <path class="cls-1" d="m198.59,361.02c0-5.43-5.02-9.83-11.22-9.83s-11.22,4.4-11.22,9.83h22.44Z"/>
        <rect class="cls-1" x="173.97" y="361.02" width="26.82" height="3.58"/>
        <polygon class="cls-1" points="94.17 385.26 89.72 367.59 218.6 367.59 214.15 385.26 94.17 385.26"/>
        <ellipse class="cls-1" cx="154.16" cy="376.43" rx="20.1" ry="4.45"/>
      </g>
      <rect class="cls-1" x="1" y="1" width="310.11" height="12.94"/>
      <rect class="cls-1" x="1" y="542.48" width="310.11" height="12.94"/>
      <rect class="cls-1" x="1" y="534.8" width="310.11" height="7.69"/>
      <g>
        <polygon class="cls-1" points="28.56 568.59 16 568.59 15 555.52 29.56 555.52 28.56 568.59"/>
        <line class="cls-1" x1="16.1" y1="565.31" x2="28.8" y2="565.31"/>
      </g>
      <g>
        <polygon class="cls-1" points="296.11 568.52 283.55 568.52 282.55 555.45 297.11 555.45 296.11 568.52"/>
        <line class="cls-1" x1="283.65" y1="565.25" x2="296.35" y2="565.25"/>
      </g>
      <polyline class="cls-1" points="122.35 337 29.11 337 29.11 279.54 283 279.54 283 337 127.01 337"/>
      <g>
        <path class="cls-1" d="m39.94,279.54h30.66c-.59-8.04-7.31-14.38-15.52-14.38-.67,0-1.32.06-1.96.14,0,0,0,.01,0,.02-1.83.29-3.57.89-5.13,1.76-.04,0-.08-.01-.12-.01-1.17.65-2.24,1.45-3.19,2.36,0,0,0,.02,0,.03-2.69,2.59-4.45,6.13-4.74,10.08Z"/>
        <path class="cls-1" d="m44.67,269.43c-.03-1.55-.28-3.04-.73-4.44-.02-.06-.04-.12-.06-.18-.3-.9-.67-1.75-1.12-2.57-.04-.07-.08-.14-.12-.21-.2-.36-.42-.7-.65-1.04-.03-.05-.06-.09-.09-.14-.25-.37-.52-.72-.81-1.06-.07-.08-.14-.16-.2-.23-.23-.26-.46-.52-.71-.77-.08-.09-.17-.17-.25-.26-.3-.29-.61-.57-.93-.84-.1-.08-.2-.15-.3-.23-.24-.19-.49-.37-.74-.55-.14-.09-.27-.19-.41-.28-.29-.19-.58-.36-.88-.53-.17-.1-.35-.19-.52-.27-.26-.13-.52-.26-.79-.38-.18-.08-.36-.15-.54-.22-.25-.1-.49-.19-.75-.27-.16-.05-.32-.11-.48-.16,0,0,0,0,0,0-1.42-.43-2.93-.66-4.5-.66v25.41h10.79c.29-3.97,2.06-7.52,4.77-10.11Z"/>
        <path class="cls-1" d="m34.84,255.23c.18.07.36.15.54.22.27.12.53.25.79.38.18.09.35.18.52.27.3.17.59.34.88.53.14.09.27.18.41.28.25.18.5.36.74.55.1.08.2.15.3.23.32.27.63.55.93.84.09.08.17.17.25.26.24.25.48.5.71.77.07.08.14.15.2.23.28.34.55.69.81,1.06.03.05.06.09.09.14.23.34.44.69.65,1.04.04.07.08.14.12.21.45.81.82,1.67,1.12,2.57.02.06.04.12.06.18.15.48.29.96.4,1.46,1.13.34,2.31.54,3.53.62,1.55-.86,3.27-1.45,5.09-1.74-.01,0-.03,0-.04,0,.66-5.57,4.27-10.23,9.24-12.4.04-.02.08-.04.12-.05.23-.1.46-.19.7-.28.46-.18.93-.34,1.41-.48,0-.2.03-.39.03-.58,0-8.6-6.97-15.58-15.58-15.58s-15.58,6.97-15.58,15.58c0,1.12.12,2.2.35,3.25.16.05.32.11.48.16.25.08.5.17.75.27Z"/>
        <path class="cls-1" d="m62.15,252.94c-4.87,2.21-8.39,6.84-9.04,12.37.75-.11,1.52-.19,2.3-.19,8.22,0,14.93,6.36,15.52,14.43h5.96c.83-3.99,3.17-7.41,6.42-9.63.14-.11.28-.23.43-.33.12-.79.2-1.59.2-2.42,0-8.58-6.97-15.53-15.58-15.53-1.9,0-3.72.35-5.4.97-.23.09-.47.18-.7.28-.04.02-.08.04-.12.05Z"/>
        <path class="cls-1" d="m53.12,265.3c-.05,0-.11.02-.16.02.05,0,.11-.01.16-.02,0,0,0,0,0,0Z"/>
        <path class="cls-1" d="m83.32,269.91c-3.03,2.29-5.19,5.69-5.91,9.63h28.87c-1.32-1.62-2.31-3.52-2.9-5.58-.01-.04-.02-.07-.03-.11-.1-.36-.2-.73-.27-1.1-.1-.46-.18-.93-.23-1.41-2.73-2.75-6.46-4.46-10.59-4.46-3.15,0-6.08,1-8.51,2.69,0,0,0,.02,0,.03-.15.09-.28.21-.43.3Z"/>
        <path class="cls-1" d="m142.65,265.12c4.46,0,8.48,1.89,11.32,4.9,4.5-2.73,7.51-7.66,7.51-13.31,0-8.6-6.97-15.58-15.58-15.58s-15.58,6.97-15.58,15.58c0,4.14,1.62,7.89,4.26,10.68,2.35-1.43,5.11-2.27,8.07-2.27Z"/>
        <path class="cls-1" d="m103.38,273.96c.61,2.08,1.63,3.97,2.97,5.58h20.56c.19-2.28.87-4.41,1.94-6.3,1.19-2.19,2.9-4.06,4.95-5.45-.07-.54-.16-1.07-.28-1.59-1.35-1.74-2.32-3.77-2.83-5.99-2.85-3.69-7.31-6.08-12.33-6.08-8.6,0-15.58,6.97-15.58,15.58,0,1.04.11,2.06.3,3.04.08.37.17.74.27,1.1.01.04.02.07.03.11Z"/>
        <path class="cls-1" d="m157.94,279.54c-.65-7.94-7.34-14.19-15.51-14.19-5.83,0-10.9,3.18-13.57,7.89-1.04,1.9-1.68,4.03-1.85,6.3h30.94Z"/>
        <path class="cls-1" d="m238.7,278.21c0-8.6-6.97-15.58-15.58-15.58-1.06,0-2.09.11-3.09.32-.88.35-1.79.64-2.74.83-2.75,1.11-5.1,2.98-6.81,5.35-.34,2.62-1.33,5.04-2.8,7.08-.08.66-.14,1.32-.14,2.01,0,.45.03.89.07,1.33h31.02c.04-.44.07-.88.07-1.33Z"/>
        <path class="cls-1" d="m219.9,262.97s.09-.01.13-.02c2.55-1.03,4.77-2.71,6.44-4.84,0-.02-.01-.03-.02-.05,2.06-2.64,3.29-5.95,3.29-9.55,0-1.87-.35-3.66-.95-5.33.01-.02.03-.03.04-.04-2.19-5.95-7.89-10.21-14.61-10.21-8.6,0-15.58,6.97-15.58,15.58,0,1.23.16,2.42.43,3.56,5.55,1.46,9.87,5.88,11.19,11.49,1.27.33,2.59.53,3.96.53,1.05,0,2.08-.11,3.08-.31.02,0,.05-.02.07-.03.88-.18,1.72-.45,2.53-.77Z"/>
        <path class="cls-1" d="m210.46,267.12c0-8.6-6.92-15.58-15.45-15.58-7.25,0-13.32,5.05-14.99,11.84,3.86,2.83,6.38,7.41,6.38,12.59,0,1.23-.16,2.42-.43,3.57h18.32c3.74-2.84,6.16-7.34,6.16-12.43Z"/>
        <path class="cls-1" d="m186.38,275.97c0-8.6-6.97-15.58-15.58-15.58-7.31,0-13.42,5.04-15.1,11.82,1.39,2.14,2.28,4.63,2.47,7.32h27.78c.27-1.15.43-2.34.43-3.57Z"/>
        <path class="cls-1" d="m226.47,258.11c2.04,5.54,7.13,9.61,13.24,10.14,2.44-5.42,7.87-9.19,14.2-9.19.06,0,.12,0,.18,0,.06,0,.12,0,.18,0,.34,0,.67.03,1,.05.88-1.95,1.37-4.1,1.37-6.37,0-8.6-6.97-15.58-15.58-15.58-4.98,0-9.4,2.35-12.25,5.98.62,1.68.97,3.48.97,5.37,0,3.63-1.25,6.95-3.33,9.6Z"/>
        <path class="cls-1" d="m283,279.55v-22.43c-6.88,0-12.7,4.46-14.77,10.64,0,0,0,0,0,0,.25.5.46,1.01.66,1.53.02.04.03.09.05.13.17.47.31.95.43,1.44.02.09.05.19.07.28.1.45.18.91.25,1.38.02.12.04.24.06.37.06.57.1,1.15.1,1.74,0,0,0,0,0,0,0,.48-.03.95-.07,1.42-.02.21-.05.42-.08.63-.03.24-.07.47-.11.71-.05.27-.11.55-.17.81-.03.14-.07.28-.11.42-.08.31-.17.62-.27.92h13.95Z"/>
        <path class="cls-1" d="m254.09,259.07c-8.52.1-15.4,7.03-15.4,15.57,0,1.72.29,3.37.8,4.91h29.55c.1-.3.19-.61.27-.92.04-.14.07-.28.11-.42.06-.27.12-.54.17-.81.04-.23.08-.47.11-.71.03-.21.06-.42.08-.63.04-.47.07-.94.07-1.42,0,0,0,0,0,0,0-.59-.04-1.17-.1-1.74-.01-.12-.04-.24-.06-.37-.06-.46-.14-.92-.25-1.38-.02-.09-.05-.19-.07-.28-.12-.49-.27-.97-.43-1.44-.02-.04-.03-.09-.05-.13-.19-.52-.41-1.04-.66-1.53-2.4-4.86-7.26-8.28-12.96-8.65,0,0,0,.01,0,.02-.39-.03-.78-.05-1.18-.06Z"/>
        <path class="cls-1" d="m269.04,279.57s0-.02,0-.02h0s0,.02,0,.02Z"/>
      </g>
      <polyline class="cls-1" points="122.35 337 29.11 337 29.11 288.82 283 288.82 283 337 127.01 337"/>
      <path class="cls-1" d="m127.01,333.32v22.27h-4.66v-22.27c.75.17,1.53.26,2.33.26s1.58-.09,2.33-.26Z"/>
      <path class="cls-1" d="m135.15,323.12c0,4.98-3.48,9.14-8.13,10.2-.75.17-1.53.26-2.33.26s-1.58-.09-2.33-.26c-4.66-1.06-8.14-5.22-8.14-10.2,0-5.78,4.69-10.46,10.47-10.46s10.46,4.68,10.46,10.46Z"/>
    </g>
  </g>
</svg>